<svg width="26" height="26" viewBox="0 0 26 26" fill="none" xmlns="http://www.w3.org/2000/svg">
	<path fill-rule="evenodd" clip-rule="evenodd" d="M5.41667 5.41699H17.3333C18.5304 5.41699 19.5 6.38658 19.5 7.58366V15.167C19.5 16.3641 18.5304 17.3337 17.3333 17.3337H5.41667C4.21958 17.3337 3.25 16.3641 3.25 15.167V7.58366C3.25 6.38658 4.21958 5.41699 5.41667 5.41699Z" stroke="#3DC1F2" stroke-width="1.5" stroke-linecap="round" stroke-linejoin="round"/>
	<path d="M19.5 8.66699H20.5833C21.7804 8.66699 22.75 9.63658 22.75 10.8337V18.417C22.75 19.6141 21.7804 20.5837 20.5833 20.5837H8.66667C7.46958 20.5837 6.5 19.6141 6.5 18.417V17.3337" stroke="#3DC1F2" stroke-width="1.5" stroke-linecap="round" stroke-linejoin="round"/>
	<path d="M8.66667 11.917H7.58333C6.98533 11.917 6.5 11.4317 6.5 10.8337V9.75033C6.5 9.15233 6.98533 8.66699 7.58333 8.66699H8.66667C9.26467 8.66699 9.75 9.15233 9.75 9.75033V10.8337C9.75 11.4317 9.26467 11.917 8.66667 11.917Z" stroke="#3DC1F2" stroke-width="1.5" stroke-linecap="round" stroke-linejoin="round"/>
</svg>
