<svg width="355" height="85" viewBox="0 0 355 85" fill="none" xmlns="http://www.w3.org/2000/svg">
<g filter="url(#filter0_d_667_119590)">
<rect x="10" width="60" height="60" rx="6" fill="url(#paint0_radial_667_119590)"/>
<path d="M32.7205 32.236H31.3525V34H29.4565V32.236H24.9325V30.928L28.8925 25.6H30.9325L27.2605 30.652H29.5165V29.08H31.3525V30.652H32.7205V32.236ZM39.3741 25.6V26.86L36.2541 34H34.1421L37.1541 27.184H34.3701V28.552H32.6421V25.6H39.3741ZM42.7115 27.16V29.38H46.5995V30.94H42.7115V34H40.7675V25.6H47.1155V27.16H42.7115ZM51.3629 34.144C50.6669 34.144 50.0469 33.972 49.5029 33.628C48.9589 33.284 48.5309 32.788 48.2189 32.14C47.9149 31.484 47.7629 30.704 47.7629 29.8C47.7629 28.896 47.9149 28.12 48.2189 27.472C48.5309 26.816 48.9589 26.316 49.5029 25.972C50.0469 25.628 50.6669 25.456 51.3629 25.456C52.0589 25.456 52.6789 25.628 53.2229 25.972C53.7669 26.316 54.1909 26.816 54.4949 27.472C54.8069 28.12 54.9629 28.896 54.9629 29.8C54.9629 30.704 54.8069 31.484 54.4949 32.14C54.1909 32.788 53.7669 33.284 53.2229 33.628C52.6789 33.972 52.0589 34.144 51.3629 34.144ZM51.3629 32.5C51.8749 32.5 52.2749 32.28 52.5629 31.84C52.8589 31.4 53.0069 30.72 53.0069 29.8C53.0069 28.88 52.8589 28.2 52.5629 27.76C52.2749 27.32 51.8749 27.1 51.3629 27.1C50.8589 27.1 50.4589 27.32 50.1629 27.76C49.8749 28.2 49.7309 28.88 49.7309 29.8C49.7309 30.72 49.8749 31.4 50.1629 31.84C50.4589 32.28 50.8589 32.5 51.3629 32.5Z" fill="white"/>
</g>
<path d="M97.124 14.394H92.574L91.677 16.5H89.935L94.03 7.4H95.694L99.802 16.5H98.034L97.124 14.394ZM96.565 13.068L94.849 9.09L93.146 13.068H96.565ZM103.625 16.591C102.905 16.591 102.26 16.4393 101.688 16.136C101.116 15.8327 100.669 15.4123 100.349 14.875C100.028 14.329 99.8678 13.7137 99.8678 13.029C99.8678 12.3443 100.028 11.7333 100.349 11.196C100.669 10.6587 101.111 10.2383 101.675 9.935C102.247 9.63167 102.897 9.48 103.625 9.48C104.309 9.48 104.907 9.61867 105.419 9.896C105.939 10.1733 106.329 10.572 106.589 11.092L105.341 11.82C105.141 11.4993 104.89 11.261 104.587 11.105C104.292 10.9403 103.967 10.858 103.612 10.858C103.005 10.858 102.502 11.0573 102.104 11.456C101.705 11.846 101.506 12.3703 101.506 13.029C101.506 13.6877 101.701 14.2163 102.091 14.615C102.489 15.005 102.996 15.2 103.612 15.2C103.967 15.2 104.292 15.122 104.587 14.966C104.89 14.8013 105.141 14.5587 105.341 14.238L106.589 14.966C106.32 15.486 105.926 15.889 105.406 16.175C104.894 16.4523 104.301 16.591 103.625 16.591ZM110.777 16.591C110.058 16.591 109.412 16.4393 108.84 16.136C108.268 15.8327 107.822 15.4123 107.501 14.875C107.18 14.329 107.02 13.7137 107.02 13.029C107.02 12.3443 107.18 11.7333 107.501 11.196C107.822 10.6587 108.264 10.2383 108.827 9.935C109.399 9.63167 110.049 9.48 110.777 9.48C111.462 9.48 112.06 9.61867 112.571 9.896C113.091 10.1733 113.481 10.572 113.741 11.092L112.493 11.82C112.294 11.4993 112.042 11.261 111.739 11.105C111.444 10.9403 111.119 10.858 110.764 10.858C110.157 10.858 109.655 11.0573 109.256 11.456C108.857 11.846 108.658 12.3703 108.658 13.029C108.658 13.6877 108.853 14.2163 109.243 14.615C109.642 15.005 110.149 15.2 110.764 15.2C111.119 15.2 111.444 15.122 111.739 14.966C112.042 14.8013 112.294 14.5587 112.493 14.238L113.741 14.966C113.472 15.486 113.078 15.889 112.558 16.175C112.047 16.4523 111.453 16.591 110.777 16.591ZM117.864 16.591C117.162 16.591 116.529 16.4393 115.966 16.136C115.403 15.8327 114.961 15.4123 114.64 14.875C114.328 14.329 114.172 13.7137 114.172 13.029C114.172 12.3443 114.328 11.7333 114.64 11.196C114.961 10.6587 115.403 10.2383 115.966 9.935C116.529 9.63167 117.162 9.48 117.864 9.48C118.575 9.48 119.212 9.63167 119.775 9.935C120.338 10.2383 120.776 10.6587 121.088 11.196C121.409 11.7333 121.569 12.3443 121.569 13.029C121.569 13.7137 121.409 14.329 121.088 14.875C120.776 15.4123 120.338 15.8327 119.775 16.136C119.212 16.4393 118.575 16.591 117.864 16.591ZM117.864 15.2C118.462 15.2 118.956 15.0007 119.346 14.602C119.736 14.2033 119.931 13.679 119.931 13.029C119.931 12.379 119.736 11.8547 119.346 11.456C118.956 11.0573 118.462 10.858 117.864 10.858C117.266 10.858 116.772 11.0573 116.382 11.456C116.001 11.8547 115.81 12.379 115.81 13.029C115.81 13.679 116.001 14.2033 116.382 14.602C116.772 15.0007 117.266 15.2 117.864 15.2ZM129.544 9.558V16.5H127.997V15.616C127.737 15.928 127.412 16.1707 127.022 16.344C126.632 16.5087 126.212 16.591 125.761 16.591C124.834 16.591 124.101 16.3353 123.564 15.824C123.035 15.304 122.771 14.537 122.771 13.523V9.558H124.396V13.302C124.396 13.926 124.535 14.394 124.812 14.706C125.098 15.0093 125.501 15.161 126.021 15.161C126.602 15.161 127.061 14.9833 127.399 14.628C127.746 14.264 127.919 13.744 127.919 13.068V9.558H129.544ZM135.311 9.48C136.186 9.48 136.888 9.73567 137.417 10.247C137.945 10.7583 138.21 11.5167 138.21 12.522V16.5H136.585V12.73C136.585 12.1233 136.442 11.6683 136.156 11.365C135.87 11.053 135.462 10.897 134.934 10.897C134.336 10.897 133.863 11.079 133.517 11.443C133.17 11.7983 132.997 12.314 132.997 12.99V16.5H131.372V9.558H132.919V10.455C133.187 10.1343 133.525 9.89167 133.933 9.727C134.34 9.56233 134.799 9.48 135.311 9.48ZM144.144 16.123C143.953 16.279 143.719 16.396 143.442 16.474C143.173 16.552 142.887 16.591 142.584 16.591C141.821 16.591 141.232 16.3917 140.816 15.993C140.4 15.5943 140.192 15.0137 140.192 14.251V10.91H139.048V9.61H140.192V8.024H141.817V9.61H143.676V10.91H141.817V14.212C141.817 14.55 141.899 14.81 142.064 14.992C142.229 15.1653 142.467 15.252 142.779 15.252C143.143 15.252 143.446 15.1567 143.689 14.966L144.144 16.123ZM151.659 16.591C150.939 16.591 150.294 16.4393 149.722 16.136C149.15 15.8327 148.703 15.4123 148.383 14.875C148.062 14.329 147.902 13.7137 147.902 13.029C147.902 12.3443 148.062 11.7333 148.383 11.196C148.703 10.6587 149.145 10.2383 149.709 9.935C150.281 9.63167 150.931 9.48 151.659 9.48C152.343 9.48 152.941 9.61867 153.453 9.896C153.973 10.1733 154.363 10.572 154.623 11.092L153.375 11.82C153.175 11.4993 152.924 11.261 152.621 11.105C152.326 10.9403 152.001 10.858 151.646 10.858C151.039 10.858 150.536 11.0573 150.138 11.456C149.739 11.846 149.54 12.3703 149.54 13.029C149.54 13.6877 149.735 14.2163 150.125 14.615C150.523 15.005 151.03 15.2 151.646 15.2C152.001 15.2 152.326 15.122 152.621 14.966C152.924 14.8013 153.175 14.5587 153.375 14.238L154.623 14.966C154.354 15.486 153.96 15.889 153.44 16.175C152.928 16.4523 152.335 16.591 151.659 16.591ZM158.746 16.591C158.044 16.591 157.411 16.4393 156.848 16.136C156.284 15.8327 155.842 15.4123 155.522 14.875C155.21 14.329 155.054 13.7137 155.054 13.029C155.054 12.3443 155.21 11.7333 155.522 11.196C155.842 10.6587 156.284 10.2383 156.848 9.935C157.411 9.63167 158.044 9.48 158.746 9.48C159.456 9.48 160.093 9.63167 160.657 9.935C161.22 10.2383 161.658 10.6587 161.97 11.196C162.29 11.7333 162.451 12.3443 162.451 13.029C162.451 13.7137 162.29 14.329 161.97 14.875C161.658 15.4123 161.22 15.8327 160.657 16.136C160.093 16.4393 159.456 16.591 158.746 16.591ZM158.746 15.2C159.344 15.2 159.838 15.0007 160.228 14.602C160.618 14.2033 160.813 13.679 160.813 13.029C160.813 12.379 160.618 11.8547 160.228 11.456C159.838 11.0573 159.344 10.858 158.746 10.858C158.148 10.858 157.654 11.0573 157.264 11.456C156.882 11.8547 156.692 12.379 156.692 13.029C156.692 13.679 156.882 14.2033 157.264 14.602C157.654 15.0007 158.148 15.2 158.746 15.2ZM163.705 6.854H165.33V16.5H163.705V6.854ZM170.282 16.591C169.58 16.591 168.948 16.4393 168.384 16.136C167.821 15.8327 167.379 15.4123 167.058 14.875C166.746 14.329 166.59 13.7137 166.59 13.029C166.59 12.3443 166.746 11.7333 167.058 11.196C167.379 10.6587 167.821 10.2383 168.384 9.935C168.948 9.63167 169.58 9.48 170.282 9.48C170.993 9.48 171.63 9.63167 172.193 9.935C172.757 10.2383 173.194 10.6587 173.506 11.196C173.827 11.7333 173.987 12.3443 173.987 13.029C173.987 13.7137 173.827 14.329 173.506 14.875C173.194 15.4123 172.757 15.8327 172.193 16.136C171.63 16.4393 170.993 16.591 170.282 16.591ZM170.282 15.2C170.88 15.2 171.374 15.0007 171.764 14.602C172.154 14.2033 172.349 13.679 172.349 13.029C172.349 12.379 172.154 11.8547 171.764 11.456C171.374 11.0573 170.88 10.858 170.282 10.858C169.684 10.858 169.19 11.0573 168.8 11.456C168.419 11.8547 168.228 12.379 168.228 13.029C168.228 13.679 168.419 14.2033 168.8 14.602C169.19 15.0007 169.684 15.2 170.282 15.2ZM176.788 10.572C177.256 9.844 178.08 9.48 179.258 9.48V11.027C179.12 11.001 178.994 10.988 178.881 10.988C178.249 10.988 177.755 11.1743 177.399 11.547C177.044 11.911 176.866 12.4397 176.866 13.133V16.5H175.241V9.558H176.788V10.572Z" fill="#1F3F51"/>
<path d="M248.176 16.5L246.317 13.835C246.239 13.8437 246.122 13.848 245.966 13.848H243.912V16.5H242.222V7.4H245.966C246.755 7.4 247.439 7.53 248.02 7.79C248.609 8.05 249.06 8.42267 249.372 8.908C249.684 9.39333 249.84 9.96967 249.84 10.637C249.84 11.3217 249.671 11.911 249.333 12.405C249.004 12.899 248.527 13.2673 247.903 13.51L249.996 16.5H248.176ZM248.137 10.637C248.137 10.0563 247.946 9.61 247.565 9.298C247.184 8.986 246.625 8.83 245.888 8.83H243.912V12.457H245.888C246.625 12.457 247.184 12.301 247.565 11.989C247.946 11.6683 248.137 11.2177 248.137 10.637ZM253.863 9.48C254.886 9.48 255.666 9.727 256.203 10.221C256.749 10.7063 257.022 11.443 257.022 12.431V16.5H255.488V15.655C255.289 15.9583 255.003 16.1923 254.63 16.357C254.266 16.513 253.824 16.591 253.304 16.591C252.784 16.591 252.329 16.5043 251.939 16.331C251.549 16.149 251.246 15.902 251.029 15.59C250.821 15.2693 250.717 14.9097 250.717 14.511C250.717 13.887 250.947 13.3887 251.406 13.016C251.874 12.6347 252.607 12.444 253.603 12.444H255.397V12.34C255.397 11.8547 255.25 11.482 254.955 11.222C254.669 10.962 254.24 10.832 253.668 10.832C253.278 10.832 252.893 10.8927 252.511 11.014C252.139 11.1353 251.822 11.3043 251.562 11.521L250.925 10.338C251.289 10.0607 251.727 9.84833 252.238 9.701C252.75 9.55367 253.291 9.48 253.863 9.48ZM253.642 15.408C254.05 15.408 254.409 15.317 254.721 15.135C255.042 14.9443 255.267 14.6757 255.397 14.329V13.523H253.72C252.784 13.523 252.316 13.8307 252.316 14.446C252.316 14.7407 252.433 14.9747 252.667 15.148C252.901 15.3213 253.226 15.408 253.642 15.408ZM262.747 9.48C263.622 9.48 264.324 9.73567 264.853 10.247C265.381 10.7583 265.646 11.5167 265.646 12.522V16.5H264.021V12.73C264.021 12.1233 263.878 11.6683 263.592 11.365C263.306 11.053 262.898 10.897 262.37 10.897C261.772 10.897 261.299 11.079 260.953 11.443C260.606 11.7983 260.433 12.314 260.433 12.99V16.5H258.808V9.558H260.355V10.455C260.623 10.1343 260.961 9.89167 261.369 9.727C261.776 9.56233 262.235 9.48 262.747 9.48ZM274.27 6.854V16.5H272.71V15.603C272.441 15.9323 272.107 16.1793 271.709 16.344C271.319 16.5087 270.885 16.591 270.409 16.591C269.741 16.591 269.139 16.4437 268.602 16.149C268.073 15.8543 267.657 15.4383 267.354 14.901C267.05 14.355 266.899 13.731 266.899 13.029C266.899 12.327 267.05 11.7073 267.354 11.17C267.657 10.6327 268.073 10.2167 268.602 9.922C269.139 9.62733 269.741 9.48 270.409 9.48C270.868 9.48 271.288 9.558 271.67 9.714C272.051 9.87 272.376 10.104 272.645 10.416V6.854H274.27ZM270.604 15.2C270.994 15.2 271.345 15.1133 271.657 14.94C271.969 14.758 272.216 14.5023 272.398 14.173C272.58 13.8437 272.671 13.4623 272.671 13.029C272.671 12.5957 272.58 12.2143 272.398 11.885C272.216 11.5557 271.969 11.3043 271.657 11.131C271.345 10.949 270.994 10.858 270.604 10.858C270.214 10.858 269.863 10.949 269.551 11.131C269.239 11.3043 268.992 11.5557 268.81 11.885C268.628 12.2143 268.537 12.5957 268.537 13.029C268.537 13.4623 268.628 13.8437 268.81 14.173C268.992 14.5023 269.239 14.758 269.551 14.94C269.863 15.1133 270.214 15.2 270.604 15.2ZM279.215 16.591C278.513 16.591 277.881 16.4393 277.317 16.136C276.754 15.8327 276.312 15.4123 275.991 14.875C275.679 14.329 275.523 13.7137 275.523 13.029C275.523 12.3443 275.679 11.7333 275.991 11.196C276.312 10.6587 276.754 10.2383 277.317 9.935C277.881 9.63167 278.513 9.48 279.215 9.48C279.926 9.48 280.563 9.63167 281.126 9.935C281.69 10.2383 282.127 10.6587 282.439 11.196C282.76 11.7333 282.92 12.3443 282.92 13.029C282.92 13.7137 282.76 14.329 282.439 14.875C282.127 15.4123 281.69 15.8327 281.126 16.136C280.563 16.4393 279.926 16.591 279.215 16.591ZM279.215 15.2C279.813 15.2 280.307 15.0007 280.697 14.602C281.087 14.2033 281.282 13.679 281.282 13.029C281.282 12.379 281.087 11.8547 280.697 11.456C280.307 11.0573 279.813 10.858 279.215 10.858C278.617 10.858 278.123 11.0573 277.733 11.456C277.352 11.8547 277.161 12.379 277.161 13.029C277.161 13.679 277.352 14.2033 277.733 14.602C278.123 15.0007 278.617 15.2 279.215 15.2ZM292.936 9.48C293.812 9.48 294.505 9.73567 295.016 10.247C295.528 10.7497 295.783 11.508 295.783 12.522V16.5H294.158V12.73C294.158 12.1233 294.024 11.6683 293.755 11.365C293.487 11.053 293.101 10.897 292.598 10.897C292.052 10.897 291.615 11.079 291.285 11.443C290.956 11.7983 290.791 12.3097 290.791 12.977V16.5H289.166V12.73C289.166 12.1233 289.032 11.6683 288.763 11.365C288.495 11.053 288.109 10.897 287.606 10.897C287.052 10.897 286.61 11.0747 286.28 11.43C285.96 11.7853 285.799 12.301 285.799 12.977V16.5H284.174V9.558H285.721V10.442C285.981 10.13 286.306 9.89167 286.696 9.727C287.086 9.56233 287.52 9.48 287.996 9.48C288.516 9.48 288.976 9.57967 289.374 9.779C289.782 9.96967 290.102 10.2557 290.336 10.637C290.622 10.273 290.991 9.99133 291.441 9.792C291.892 9.584 292.39 9.48 292.936 9.48Z" fill="#7199A8"/>
<path d="M314.895 9H305.105C304.495 9 304 9.49453 304 10.1046V19.8954C304 20.5055 304.495 21 305.105 21H314.895C315.505 21 316 20.5055 316 19.8954V10.1046C316 9.49453 315.505 9 314.895 9Z" stroke="#729FB1" stroke-linecap="round" stroke-linejoin="round"/>
<path d="M316 15H320V15C321.103 14.9968 321.997 14.1032 322 13V5V4.99999C321.997 3.89676 321.103 3.00322 320 3H312V3C310.897 3.00323 310.003 3.89677 310 5V9" stroke="#729FB1" stroke-linecap="round" stroke-linejoin="round"/>
<path d="M313.335 5.99952V5.99952C313.335 6.1837 313.186 6.33302 313.001 6.33302C312.817 6.33302 312.668 6.1837 312.668 5.99952C312.668 5.81533 312.817 5.66602 313.001 5.66602" stroke="#729FB1" stroke-linecap="round" stroke-linejoin="round"/>
<path d="M313 5.66602V5.66602C313.184 5.66602 313.333 5.81533 313.333 5.99952V5.99952" stroke="#729FB1" stroke-linecap="round" stroke-linejoin="round"/>
<path d="M319.335 5.99952V5.99952C319.335 6.1837 319.186 6.33302 319.001 6.33302C318.817 6.33302 318.668 6.1837 318.668 5.99952C318.668 5.81533 318.817 5.66602 319.001 5.66602" stroke="#729FB1" stroke-linecap="round" stroke-linejoin="round"/>
<path d="M319 5.66602V5.66602C319.184 5.66602 319.333 5.81533 319.333 5.99952V5.99952" stroke="#729FB1" stroke-linecap="round" stroke-linejoin="round"/>
<path d="M319.335 11.9995C319.335 12.1837 319.186 12.333 319.001 12.333C318.817 12.333 318.668 12.1837 318.668 11.9995C318.668 11.8153 318.817 11.666 319.001 11.666" stroke="#729FB1" stroke-linecap="round" stroke-linejoin="round"/>
<path d="M319 11.666V11.666C319.184 11.666 319.333 11.8153 319.333 11.9995V11.9995" stroke="#729FB1" stroke-linecap="round" stroke-linejoin="round"/>
<path d="M313.335 11.9995C313.335 12.1837 313.186 12.333 313.001 12.333C312.817 12.333 312.668 12.1837 312.668 11.9995C312.668 11.8153 312.817 11.666 313.001 11.666" stroke="#729FB1" stroke-linecap="round" stroke-linejoin="round"/>
<path d="M313 11.666V11.666C313.184 11.666 313.333 11.8153 313.333 11.9995V11.9995" stroke="#729FB1" stroke-linecap="round" stroke-linejoin="round"/>
<path d="M307.335 11.9995C307.335 12.1837 307.186 12.333 307.001 12.333C306.817 12.333 306.668 12.1837 306.668 11.9995C306.668 11.8153 306.817 11.666 307.001 11.666" stroke="#729FB1" stroke-linecap="round" stroke-linejoin="round"/>
<path d="M307 11.666V11.666C307.184 11.666 307.333 11.8153 307.333 11.9995V11.9995" stroke="#729FB1" stroke-linecap="round" stroke-linejoin="round"/>
<path d="M310.335 14.9995C310.335 15.1837 310.186 15.333 310.001 15.333C309.817 15.333 309.668 15.1837 309.668 14.9995C309.668 14.8153 309.817 14.666 310.001 14.666" stroke="#729FB1" stroke-linecap="round" stroke-linejoin="round"/>
<path d="M310 14.666V14.666C310.184 14.666 310.333 14.8153 310.333 14.9995V14.9995" stroke="#729FB1" stroke-linecap="round" stroke-linejoin="round"/>
<path d="M313.335 17.9995C313.335 18.1837 313.186 18.333 313.001 18.333C312.817 18.333 312.668 18.1837 312.668 17.9995C312.668 17.8153 312.817 17.666 313.001 17.666" stroke="#729FB1" stroke-linecap="round" stroke-linejoin="round"/>
<path d="M313 17.666V17.666C313.184 17.666 313.333 17.8153 313.333 17.9995" stroke="#729FB1" stroke-linecap="round" stroke-linejoin="round"/>
<path d="M307.335 17.9995C307.335 18.1837 307.186 18.333 307.001 18.333C306.817 18.333 306.668 18.1837 306.668 17.9995C306.668 17.8153 306.817 17.666 307.001 17.666" stroke="#729FB1" stroke-linecap="round" stroke-linejoin="round"/>
<path d="M307 17.666V17.666C307.184 17.666 307.333 17.8153 307.333 17.9995" stroke="#729FB1" stroke-linecap="round" stroke-linejoin="round"/>
<rect x="90" y="32" width="28" height="28" rx="14" fill="white"/>
<rect x="90" y="32" width="28" height="28" rx="14" fill="url(#paint1_radial_667_119590)"/>
<rect x="93" y="35" width="22" height="22" rx="11" stroke="#F0F7F9" stroke-width="2"/>
<rect x="126" y="32" width="28" height="28" rx="14" fill="url(#paint2_linear_667_119590)"/>
<rect x="162" y="32" width="28" height="28" rx="14" fill="url(#paint3_linear_667_119590)"/>
<rect x="198" y="32" width="28" height="28" rx="14" fill="url(#paint4_linear_667_119590)"/>
<rect x="234" y="32" width="28" height="28" rx="14" fill="url(#paint5_linear_667_119590)"/>
<rect x="270" y="32" width="28" height="28" rx="14" fill="url(#paint6_linear_667_119590)"/>
<rect x="306" y="32" width="28" height="28" rx="14" fill="url(#paint7_linear_667_119590)"/>
<rect x="342" y="32" width="28" height="28" rx="14" fill="url(#paint8_linear_667_119590)"/>
<defs>
<filter id="filter0_d_667_119590" x="0" y="0" width="80" height="85" filterUnits="userSpaceOnUse" color-interpolation-filters="sRGB">
<feFlood flood-opacity="0" result="BackgroundImageFix"/>
<feColorMatrix in="SourceAlpha" type="matrix" values="0 0 0 0 0 0 0 0 0 0 0 0 0 0 0 0 0 0 127 0" result="hardAlpha"/>
<feMorphology radius="10" operator="erode" in="SourceAlpha" result="effect1_dropShadow_667_119590"/>
<feOffset dy="15"/>
<feGaussianBlur stdDeviation="10"/>
<feComposite in2="hardAlpha" operator="out"/>
<feColorMatrix type="matrix" values="0 0 0 0 0 0 0 0 0 0 0 0 0 0 0 0 0 0 0.4 0"/>
<feBlend mode="normal" in2="BackgroundImageFix" result="effect1_dropShadow_667_119590"/>
<feBlend mode="normal" in="SourceGraphic" in2="effect1_dropShadow_667_119590" result="shape"/>
</filter>
<radialGradient id="paint0_radial_667_119590" cx="0" cy="0" r="1" gradientUnits="userSpaceOnUse" gradientTransform="translate(10) rotate(45) scale(84.8528 160.278)">
<stop stop-color="#4900E3"/>
<stop offset="1" stop-color="#8D00E3"/>
</radialGradient>
<radialGradient id="paint1_radial_667_119590" cx="0" cy="0" r="1" gradientUnits="userSpaceOnUse" gradientTransform="translate(90 32) rotate(45) scale(39.598 74.7962)">
<stop stop-color="#4900E3"/>
<stop offset="1" stop-color="#8D00E3"/>
</radialGradient>
<linearGradient id="paint2_linear_667_119590" x1="126" y1="32" x2="154" y2="60" gradientUnits="userSpaceOnUse">
<stop stop-color="#45B3F5"/>
<stop offset="1" stop-color="#2E2CF4"/>
</linearGradient>
<linearGradient id="paint3_linear_667_119590" x1="162" y1="32" x2="190" y2="60" gradientUnits="userSpaceOnUse">
<stop stop-color="#4FF361"/>
<stop offset="1" stop-color="#4B7479"/>
</linearGradient>
<linearGradient id="paint4_linear_667_119590" x1="198" y1="32" x2="226" y2="60" gradientUnits="userSpaceOnUse">
<stop stop-color="#EEB85B"/>
<stop offset="1" stop-color="#E001CD"/>
</linearGradient>
<linearGradient id="paint5_linear_667_119590" x1="234" y1="32" x2="262" y2="60" gradientUnits="userSpaceOnUse">
<stop stop-color="#CFE745"/>
<stop offset="1" stop-color="#A743D0"/>
</linearGradient>
<linearGradient id="paint6_linear_667_119590" x1="270" y1="46" x2="288.136" y2="46" gradientUnits="userSpaceOnUse">
<stop stop-color="#C8871D"/>
<stop offset="1" stop-color="#E34F7A"/>
</linearGradient>
<linearGradient id="paint7_linear_667_119590" x1="306" y1="32" x2="334" y2="60" gradientUnits="userSpaceOnUse">
<stop stop-color="#14FAE8"/>
<stop offset="1" stop-color="#DB95CD"/>
</linearGradient>
<linearGradient id="paint8_linear_667_119590" x1="342" y1="32" x2="370" y2="60" gradientUnits="userSpaceOnUse">
<stop stop-color="#F534D2"/>
<stop offset="1" stop-color="#3B94F9"/>
</linearGradient>
</defs>
</svg>
