<svg width="26" height="26" viewBox="0 0 26 26" fill="none" xmlns="http://www.w3.org/2000/svg">
	<path d="M22.5225 10.3177C23.3784 11.1735 23.3784 12.5612 22.5225 13.417C21.6666 14.2729 20.279 14.2729 19.4232 13.417C18.5673 12.5612 18.5673 11.1735 19.4232 10.3177C20.279 9.46181 21.6666 9.46181 22.5225 10.3177Z" stroke="white" stroke-width="1.5" stroke-linecap="round" stroke-linejoin="round"/>
	<path d="M15.3858 6.40538C16.7036 7.72324 16.7036 9.85991 15.3858 11.1778C14.0679 12.4956 11.9313 12.4956 10.6134 11.1778C9.29554 9.85992 9.29554 7.72325 10.6134 6.40538C11.9312 5.08753 14.0679 5.08753 15.3858 6.40538" stroke="white" stroke-width="1.5" stroke-linecap="round" stroke-linejoin="round"/>
	<path d="M6.57329 10.3177C7.42916 11.1735 7.42916 12.5612 6.57329 13.417C5.71743 14.2729 4.3298 14.2729 3.47393 13.417C2.61806 12.5612 2.61806 11.1735 3.47393 10.3177C4.3298 9.46181 5.71743 9.46181 6.57329 10.3177Z" stroke="white" stroke-width="1.5" stroke-linecap="round" stroke-linejoin="round"/>
	<path d="M24.9159 20.5841V19.3968C24.9159 17.9007 23.7037 16.6885 22.2076 16.6885H21.3398" stroke="white" stroke-width="1.5" stroke-linecap="round" stroke-linejoin="round"/>
	<path d="M1.08203 20.5841V19.3968C1.08203 17.9007 2.29428 16.6885 3.79036 16.6885H4.65811" stroke="white" stroke-width="1.5" stroke-linecap="round" stroke-linejoin="round"/>
	<path d="M18.7838 20.5837V18.8493C18.7838 16.7552 17.0862 15.0576 14.9921 15.0576H11.0065C8.91243 15.0576 7.21484 16.7552 7.21484 18.8493V20.5837" stroke="white" stroke-width="1.5" stroke-linecap="round" stroke-linejoin="round"/>
</svg>
