<svg width="24" height="51" viewBox="0 0 24 51" fill="none" xmlns="http://www.w3.org/2000/svg">
<path d="M11.497 31.5C11.222 31.5 10.997 31.725 11 32C11 32.275 11.225 32.5 11.5 32.5C11.775 32.5 12 32.275 12 32C12 31.725 11.775 31.5 11.497 31.5Z" stroke="#1E5468" stroke-width="1.5" stroke-linecap="round" stroke-linejoin="round"/>
<path d="M11.497 25.5C11.222 25.5 10.997 25.725 11 26C11 26.275 11.225 26.5 11.5 26.5C11.775 26.5 12 26.275 12 26C12 25.725 11.775 25.5 11.497 25.5Z" stroke="#1E5468" stroke-width="1.5" stroke-linecap="round" stroke-linejoin="round"/>
<path d="M11.497 19.5C11.222 19.5 10.997 19.725 11 20C11 20.275 11.225 20.5 11.5 20.5C11.775 20.5 12 20.275 12 20C12 19.725 11.775 19.5 11.497 19.5Z" stroke="#1E5468" stroke-width="1.5" stroke-linecap="round" stroke-linejoin="round"/>
</svg>
