<svg width="96" height="21" viewBox="0 0 96 21" fill="none" xmlns="http://www.w3.org/2000/svg">
	<path d="M11.4852 8.115C12.2919 8.115 12.9079 8.313 13.3332 8.709C13.7659 9.105 13.9822 9.69533 13.9822 10.48V14H12.9812V13.23C12.8052 13.5013 12.5522 13.7103 12.2222 13.857C11.8996 13.9963 11.5146 14.066 11.0672 14.066C10.4146 14.066 9.89023 13.9083 9.49423 13.593C9.10556 13.2777 8.91123 12.8633 8.91123 12.35C8.91123 11.8367 9.09823 11.426 9.47223 11.118C9.84623 10.8027 10.4402 10.645 11.2542 10.645H12.9262V10.436C12.9262 9.98133 12.7942 9.633 12.5302 9.391C12.2662 9.149 11.8776 9.028 11.3642 9.028C11.0196 9.028 10.6822 9.08667 10.3522 9.204C10.0222 9.314 9.74356 9.46433 9.51623 9.655L9.07623 8.863C9.3769 8.621 9.73623 8.43767 10.1542 8.313C10.5722 8.181 11.0159 8.115 11.4852 8.115ZM11.2432 13.252C11.6466 13.252 11.9949 13.164 12.2882 12.988C12.5816 12.8047 12.7942 12.548 12.9262 12.218V11.404H11.2982C10.4036 11.404 9.95623 11.7047 9.95623 12.306C9.95623 12.5993 10.0699 12.8303 10.2972 12.999C10.5246 13.1677 10.8399 13.252 11.2432 13.252ZM18.7494 8.115C19.4901 8.115 20.0768 8.33133 20.5094 8.764C20.9494 9.18933 21.1694 9.81633 21.1694 10.645V14H20.1134V10.766C20.1134 10.2013 19.9778 9.776 19.7064 9.49C19.4351 9.204 19.0464 9.061 18.5404 9.061C17.9684 9.061 17.5174 9.22967 17.1874 9.567C16.8574 9.897 16.6924 10.3737 16.6924 10.997V14H15.6364V8.17H16.6484V9.05C16.8611 8.74933 17.1471 8.51833 17.5064 8.357C17.8731 8.19567 18.2874 8.115 18.7494 8.115ZM28.356 5.838V14H27.344V13.076C27.1093 13.3987 26.8123 13.6443 26.453 13.813C26.0936 13.9817 25.6976 14.066 25.265 14.066C24.7003 14.066 24.1943 13.9413 23.747 13.692C23.2996 13.4427 22.9476 13.0943 22.691 12.647C22.4416 12.1923 22.317 11.6717 22.317 11.085C22.317 10.4983 22.4416 9.98133 22.691 9.534C22.9476 9.08667 23.2996 8.73833 23.747 8.489C24.1943 8.23967 24.7003 8.115 25.265 8.115C25.683 8.115 26.068 8.19567 26.42 8.357C26.772 8.511 27.0653 8.742 27.3 9.05V5.838H28.356ZM25.353 13.142C25.7196 13.142 26.0533 13.0577 26.354 12.889C26.6546 12.713 26.8893 12.471 27.058 12.163C27.2266 11.8477 27.311 11.4883 27.311 11.085C27.311 10.6817 27.2266 10.326 27.058 10.018C26.8893 9.70267 26.6546 9.46067 26.354 9.292C26.0533 9.12333 25.7196 9.039 25.353 9.039C24.979 9.039 24.6416 9.12333 24.341 9.292C24.0476 9.46067 23.813 9.70267 23.637 10.018C23.4683 10.326 23.384 10.6817 23.384 11.085C23.384 11.4883 23.4683 11.8477 23.637 12.163C23.813 12.471 24.0476 12.713 24.341 12.889C24.6416 13.0577 24.979 13.142 25.353 13.142ZM34.6221 6.3V14H33.5331V7.257H31.7951V6.3H34.6221ZM39.1524 14.088C38.5437 14.088 38.0011 13.934 37.5244 13.626C37.0551 13.3107 36.6847 12.856 36.4134 12.262C36.1421 11.668 36.0064 10.964 36.0064 10.15C36.0064 9.336 36.1421 8.632 36.4134 8.038C36.6847 7.444 37.0551 6.993 37.5244 6.685C38.0011 6.36967 38.5437 6.212 39.1524 6.212C39.7537 6.212 40.2891 6.36967 40.7584 6.685C41.2351 6.993 41.6091 7.444 41.8804 8.038C42.1517 8.632 42.2874 9.336 42.2874 10.15C42.2874 10.964 42.1517 11.668 41.8804 12.262C41.6091 12.856 41.2351 13.3107 40.7584 13.626C40.2891 13.934 39.7537 14.088 39.1524 14.088ZM39.1524 13.109C39.7684 13.109 40.2597 12.856 40.6264 12.35C41.0004 11.844 41.1874 11.1107 41.1874 10.15C41.1874 9.18933 41.0004 8.456 40.6264 7.95C40.2597 7.444 39.7684 7.191 39.1524 7.191C38.5291 7.191 38.0304 7.444 37.6564 7.95C37.2897 8.456 37.1064 9.18933 37.1064 10.15C37.1064 11.1107 37.2897 11.844 37.6564 12.35C38.0304 12.856 38.5291 13.109 39.1524 13.109ZM46.1893 14.088C45.5807 14.088 45.038 13.934 44.5613 13.626C44.092 13.3107 43.7217 12.856 43.4503 12.262C43.179 11.668 43.0433 10.964 43.0433 10.15C43.0433 9.336 43.179 8.632 43.4503 8.038C43.7217 7.444 44.092 6.993 44.5613 6.685C45.038 6.36967 45.5807 6.212 46.1893 6.212C46.7907 6.212 47.326 6.36967 47.7953 6.685C48.272 6.993 48.646 7.444 48.9173 8.038C49.1887 8.632 49.3243 9.336 49.3243 10.15C49.3243 10.964 49.1887 11.668 48.9173 12.262C48.646 12.856 48.272 13.3107 47.7953 13.626C47.326 13.934 46.7907 14.088 46.1893 14.088ZM46.1893 13.109C46.8053 13.109 47.2967 12.856 47.6633 12.35C48.0373 11.844 48.2243 11.1107 48.2243 10.15C48.2243 9.18933 48.0373 8.456 47.6633 7.95C47.2967 7.444 46.8053 7.191 46.1893 7.191C45.566 7.191 45.0673 7.444 44.6933 7.95C44.3267 8.456 44.1433 9.18933 44.1433 10.15C44.1433 11.1107 44.3267 11.844 44.6933 12.35C45.0673 12.856 45.566 13.109 46.1893 13.109ZM60.5003 8.115C61.2337 8.115 61.813 8.32767 62.2383 8.753C62.671 9.17833 62.8873 9.809 62.8873 10.645V14H61.8313V10.766C61.8313 10.2013 61.6993 9.776 61.4353 9.49C61.1787 9.204 60.8083 9.061 60.3243 9.061C59.789 9.061 59.3637 9.22967 59.0483 9.567C58.733 9.897 58.5753 10.3737 58.5753 10.997V14H57.5193V10.766C57.5193 10.2013 57.3873 9.776 57.1233 9.49C56.8667 9.204 56.4963 9.061 56.0123 9.061C55.477 9.061 55.0517 9.22967 54.7363 9.567C54.421 9.897 54.2633 10.3737 54.2633 10.997V14H53.2073V8.17H54.2193V9.039C54.432 8.73833 54.7107 8.511 55.0553 8.357C55.4 8.19567 55.7923 8.115 56.2323 8.115C56.687 8.115 57.0903 8.20667 57.4423 8.39C57.7943 8.57333 58.0657 8.841 58.2563 9.193C58.4763 8.85567 58.7807 8.59167 59.1693 8.401C59.5653 8.21033 60.009 8.115 60.5003 8.115ZM67.0596 14.066C66.4803 14.066 65.9596 13.9377 65.4976 13.681C65.0356 13.4243 64.6726 13.0723 64.4086 12.625C64.152 12.1703 64.0236 11.657 64.0236 11.085C64.0236 10.513 64.152 10.0033 64.4086 9.556C64.6726 9.10133 65.0356 8.74933 65.4976 8.5C65.9596 8.24333 66.4803 8.115 67.0596 8.115C67.639 8.115 68.156 8.24333 68.6106 8.5C69.0726 8.74933 69.432 9.10133 69.6886 9.556C69.9526 10.0033 70.0846 10.513 70.0846 11.085C70.0846 11.657 69.9526 12.1703 69.6886 12.625C69.432 13.0723 69.0726 13.4243 68.6106 13.681C68.156 13.9377 67.639 14.066 67.0596 14.066ZM67.0596 13.142C67.4336 13.142 67.7673 13.0577 68.0606 12.889C68.3613 12.713 68.596 12.471 68.7646 12.163C68.9333 11.8477 69.0176 11.4883 69.0176 11.085C69.0176 10.6817 68.9333 10.326 68.7646 10.018C68.596 9.70267 68.3613 9.46067 68.0606 9.292C67.7673 9.12333 67.4336 9.039 67.0596 9.039C66.6856 9.039 66.3483 9.12333 66.0476 9.292C65.7543 9.46067 65.5196 9.70267 65.3436 10.018C65.175 10.326 65.0906 10.6817 65.0906 11.085C65.0906 11.4883 65.175 11.8477 65.3436 12.163C65.5196 12.471 65.7543 12.713 66.0476 12.889C66.3483 13.0577 66.6856 13.142 67.0596 13.142ZM72.257 9.149C72.4404 8.81167 72.7117 8.555 73.071 8.379C73.4304 8.203 73.8667 8.115 74.38 8.115V9.138C74.3214 9.13067 74.2407 9.127 74.138 9.127C73.566 9.127 73.115 9.29933 72.785 9.644C72.4624 9.98133 72.301 10.4653 72.301 11.096V14H71.245V8.17H72.257V9.149ZM80.5969 11.118C80.5969 11.1987 80.5895 11.305 80.5749 11.437H75.8449C75.9109 11.9503 76.1345 12.3647 76.5159 12.68C76.9045 12.988 77.3849 13.142 77.9569 13.142C78.6535 13.142 79.2145 12.9073 79.6399 12.438L80.2229 13.12C79.9589 13.428 79.6289 13.6627 79.2329 13.824C78.8442 13.9853 78.4079 14.066 77.9239 14.066C77.3079 14.066 76.7615 13.9413 76.2849 13.692C75.8082 13.4353 75.4379 13.0797 75.1739 12.625C74.9172 12.1703 74.7889 11.657 74.7889 11.085C74.7889 10.5203 74.9135 10.0107 75.1629 9.556C75.4195 9.10133 75.7679 8.74933 76.2079 8.5C76.6552 8.24333 77.1575 8.115 77.7149 8.115C78.2722 8.115 78.7672 8.24333 79.1999 8.5C79.6399 8.74933 79.9809 9.10133 80.2229 9.556C80.4722 10.0107 80.5969 10.5313 80.5969 11.118ZM77.7149 9.006C77.2089 9.006 76.7835 9.16 76.4389 9.468C76.1015 9.776 75.9035 10.1793 75.8449 10.678H79.5849C79.5262 10.1867 79.3245 9.787 78.9799 9.479C78.6425 9.16367 78.2209 9.006 77.7149 9.006ZM82.0162 14.066C81.8109 14.066 81.6349 13.9963 81.4882 13.857C81.3415 13.7103 81.2682 13.527 81.2682 13.307C81.2682 13.0943 81.3415 12.9183 81.4882 12.779C81.6349 12.6323 81.8109 12.559 82.0162 12.559C82.2215 12.559 82.3939 12.6287 82.5332 12.768C82.6725 12.9073 82.7422 13.087 82.7422 13.307C82.7422 13.527 82.6689 13.7103 82.5222 13.857C82.3829 13.9963 82.2142 14.066 82.0162 14.066ZM84.2084 14.066C84.0031 14.066 83.8271 13.9963 83.6804 13.857C83.5337 13.7103 83.4604 13.527 83.4604 13.307C83.4604 13.0943 83.5337 12.9183 83.6804 12.779C83.8271 12.6323 84.0031 12.559 84.2084 12.559C84.4137 12.559 84.5861 12.6287 84.7254 12.768C84.8647 12.9073 84.9344 13.087 84.9344 13.307C84.9344 13.527 84.8611 13.7103 84.7144 13.857C84.5751 13.9963 84.4064 14.066 84.2084 14.066ZM86.4006 14.066C86.1953 14.066 86.0193 13.9963 85.8726 13.857C85.7259 13.7103 85.6526 13.527 85.6526 13.307C85.6526 13.0943 85.7259 12.9183 85.8726 12.779C86.0193 12.6323 86.1953 12.559 86.4006 12.559C86.6059 12.559 86.7783 12.6287 86.9176 12.768C87.0569 12.9073 87.1266 13.087 87.1266 13.307C87.1266 13.527 87.0533 13.7103 86.9066 13.857C86.7673 13.9963 86.5986 14.066 86.4006 14.066Z" fill="#3DC1F2"/>
	<path d="M8.36123 15.1H87.6436V15.65H8.36123V15.1Z" fill="#3DC1F2"/>
</svg>
