<svg width="26" height="26" viewBox="0 0 26 26" fill="none" xmlns="http://www.w3.org/2000/svg">
<path d="M9.95703 18.6865V19.0515C9.95703 20.3165 10.983 21.3425 12.249 21.3425C13.515 21.3425 14.541 20.3165 14.541 19.0505V18.6855" stroke="#1E5468" stroke-width="1.5" stroke-linecap="round" stroke-linejoin="round"/>
<path d="M6.813 10.531C6.813 8.028 8.842 6 11.344 6H13.157C15.66 6 17.688 8.029 17.688 10.531V13.328C17.688 13.858 17.899 14.367 18.274 14.742L18.915 15.383C19.29 15.758 19.501 16.267 19.501 16.797C19.501 17.841 18.655 18.687 17.611 18.687H6.89C5.846 18.687 5 17.841 5 16.797C5 16.267 5.211 15.758 5.586 15.383L6.227 14.742C6.602 14.367 6.813 13.858 6.813 13.328V10.531V10.531Z" stroke="#1E5468" stroke-width="1.5" stroke-linecap="round" stroke-linejoin="round"/>
<circle cx="19" cy="7" r="7" fill="#62D260"/>
<path d="M21.8598 9.79V11H16.1838V10.043L19.2418 7.139C19.5865 6.809 19.8175 6.523 19.9348 6.281C20.0595 6.03167 20.1218 5.786 20.1218 5.544C20.1218 5.18467 20.0008 4.90967 19.7588 4.719C19.5168 4.52833 19.1612 4.433 18.6918 4.433C17.9072 4.433 17.3058 4.70067 16.8878 5.236L15.8868 4.466C16.1875 4.06267 16.5908 3.751 17.0968 3.531C17.6102 3.30367 18.1822 3.19 18.8128 3.19C19.6488 3.19 20.3162 3.388 20.8148 3.784C21.3135 4.18 21.5628 4.719 21.5628 5.401C21.5628 5.819 21.4748 6.21133 21.2988 6.578C21.1228 6.94467 20.7855 7.36267 20.2868 7.832L18.2298 9.79H21.8598Z" fill="white"/>
</svg>
