<svg width="40" height="21" viewBox="0 0 40 21" fill="none" xmlns="http://www.w3.org/2000/svg">
<rect width="40" height="21" rx="6" fill="#1F3F51"/>
<path d="M12.415 14.088C11.3884 14.088 10.589 13.7947 10.017 13.208C9.44502 12.6213 9.15902 11.778 9.15902 10.678V6.3H10.259V10.634C10.259 12.284 10.9814 13.109 12.426 13.109C13.13 13.109 13.669 12.9073 14.043 12.504C14.417 12.0933 14.604 11.47 14.604 10.634V6.3H15.671V10.678C15.671 11.7853 15.385 12.6323 14.813 13.219C14.241 13.7983 13.4417 14.088 12.415 14.088ZM24.2482 6.3V14H23.3462L18.7262 8.258V14H17.6262V6.3H18.5282L23.1482 12.042V6.3H24.2482ZM28.497 14.088C27.9176 14.088 27.3566 14 26.814 13.824C26.2786 13.6407 25.857 13.406 25.5489 13.12L25.9559 12.262C26.2493 12.526 26.6233 12.7423 27.078 12.911C27.54 13.0723 28.013 13.153 28.497 13.153C29.135 13.153 29.6116 13.0467 29.927 12.834C30.2423 12.614 30.4 12.3243 30.4 11.965C30.4 11.701 30.312 11.4883 30.136 11.327C29.9673 11.1583 29.7546 11.03 29.498 10.942C29.2486 10.854 28.893 10.755 28.431 10.645C27.8516 10.5057 27.3823 10.3663 27.023 10.227C26.671 10.0877 26.3666 9.875 26.11 9.589C25.8606 9.29567 25.736 8.90333 25.736 8.412C25.736 8.00133 25.8423 7.631 26.055 7.301C26.275 6.971 26.605 6.707 27.0449 6.509C27.485 6.311 28.0313 6.212 28.684 6.212C29.1386 6.212 29.586 6.27067 30.026 6.388C30.466 6.50533 30.8436 6.674 31.1589 6.894L30.796 7.774C30.4733 7.56867 30.1286 7.41467 29.762 7.312C29.3953 7.202 29.036 7.147 28.684 7.147C28.0606 7.147 27.5913 7.26067 27.276 7.488C26.968 7.71533 26.814 8.00867 26.814 8.368C26.814 8.632 26.902 8.84833 27.078 9.017C27.254 9.17833 27.4703 9.30667 27.727 9.402C27.991 9.49 28.3466 9.58533 28.794 9.688C29.3733 9.82733 29.839 9.96667 30.191 10.106C30.543 10.2453 30.8436 10.458 31.093 10.744C31.3496 11.03 31.478 11.415 31.478 11.899C31.478 12.3023 31.368 12.6727 31.148 13.01C30.928 13.34 30.5943 13.604 30.147 13.802C29.6996 13.9927 29.1496 14.088 28.497 14.088Z" fill="#3DC1F2"/>
</svg>
