<svg width="24" height="24" viewBox="0 0 24 24" fill="none" xmlns="http://www.w3.org/2000/svg">
<path d="M13.8954 9H4.10456C3.49453 9 3 9.49453 3 10.1046V19.8954C3 20.5055 3.49453 21 4.10456 21H13.8954C14.5055 21 15 20.5055 15 19.8954V10.1046C15 9.49453 14.5055 9 13.8954 9Z" stroke="#729FB1" stroke-linecap="round" stroke-linejoin="round"/>
<path d="M15 15H19V15C20.1032 14.9968 20.9968 14.1032 21 13V5V4.99999C20.9968 3.89676 20.1032 3.00322 19 3H11V3C9.89677 3.00323 9.00323 3.89677 9 5V9" stroke="#729FB1" stroke-linecap="round" stroke-linejoin="round"/>
<path d="M12.335 5.99952V5.99952C12.335 6.1837 12.1857 6.33302 12.0015 6.33302C11.8173 6.33302 11.668 6.1837 11.668 5.99952C11.668 5.81533 11.8173 5.66602 12.0015 5.66602" stroke="#729FB1" stroke-linecap="round" stroke-linejoin="round"/>
<path d="M12 5.66602V5.66602C12.1842 5.66602 12.3335 5.81533 12.3335 5.99952V5.99952" stroke="#729FB1" stroke-linecap="round" stroke-linejoin="round"/>
<path d="M18.335 5.99952V5.99952C18.335 6.1837 18.1857 6.33302 18.0015 6.33302C17.8173 6.33302 17.668 6.1837 17.668 5.99952C17.668 5.81533 17.8173 5.66602 18.0015 5.66602" stroke="#729FB1" stroke-linecap="round" stroke-linejoin="round"/>
<path d="M18 5.66602V5.66602C18.1842 5.66602 18.3335 5.81533 18.3335 5.99952V5.99952" stroke="#729FB1" stroke-linecap="round" stroke-linejoin="round"/>
<path d="M18.335 11.9995C18.335 12.1837 18.1857 12.333 18.0015 12.333C17.8173 12.333 17.668 12.1837 17.668 11.9995C17.668 11.8153 17.8173 11.666 18.0015 11.666" stroke="#729FB1" stroke-linecap="round" stroke-linejoin="round"/>
<path d="M18 11.666V11.666C18.1842 11.666 18.3335 11.8153 18.3335 11.9995V11.9995" stroke="#729FB1" stroke-linecap="round" stroke-linejoin="round"/>
<path d="M12.335 11.9995C12.335 12.1837 12.1857 12.333 12.0015 12.333C11.8173 12.333 11.668 12.1837 11.668 11.9995C11.668 11.8153 11.8173 11.666 12.0015 11.666" stroke="#729FB1" stroke-linecap="round" stroke-linejoin="round"/>
<path d="M12 11.666V11.666C12.1842 11.666 12.3335 11.8153 12.3335 11.9995V11.9995" stroke="#729FB1" stroke-linecap="round" stroke-linejoin="round"/>
<path d="M6.33497 11.9995C6.33497 12.1837 6.18566 12.333 6.00147 12.333C5.81728 12.333 5.66797 12.1837 5.66797 11.9995C5.66797 11.8153 5.81728 11.666 6.00147 11.666" stroke="#729FB1" stroke-linecap="round" stroke-linejoin="round"/>
<path d="M6 11.666V11.666C6.18419 11.666 6.3335 11.8153 6.3335 11.9995V11.9995" stroke="#729FB1" stroke-linecap="round" stroke-linejoin="round"/>
<path d="M9.33497 14.9995C9.33497 15.1837 9.18566 15.333 9.00147 15.333C8.81728 15.333 8.66797 15.1837 8.66797 14.9995C8.66797 14.8153 8.81728 14.666 9.00147 14.666" stroke="#729FB1" stroke-linecap="round" stroke-linejoin="round"/>
<path d="M9 14.666V14.666C9.18419 14.666 9.3335 14.8153 9.3335 14.9995V14.9995" stroke="#729FB1" stroke-linecap="round" stroke-linejoin="round"/>
<path d="M12.335 17.9995C12.335 18.1837 12.1857 18.333 12.0015 18.333C11.8173 18.333 11.668 18.1837 11.668 17.9995C11.668 17.8153 11.8173 17.666 12.0015 17.666" stroke="#729FB1" stroke-linecap="round" stroke-linejoin="round"/>
<path d="M12 17.666V17.666C12.1842 17.666 12.3335 17.8153 12.3335 17.9995" stroke="#729FB1" stroke-linecap="round" stroke-linejoin="round"/>
<path d="M6.33497 17.9995C6.33497 18.1837 6.18566 18.333 6.00147 18.333C5.81728 18.333 5.66797 18.1837 5.66797 17.9995C5.66797 17.8153 5.81728 17.666 6.00147 17.666" stroke="#729FB1" stroke-linecap="round" stroke-linejoin="round"/>
<path d="M6 17.666V17.666C6.18419 17.666 6.3335 17.8153 6.3335 17.9995" stroke="#729FB1" stroke-linecap="round" stroke-linejoin="round"/>
</svg>
