<svg width="163" height="50" viewBox="0 0 163 50" fill="none" xmlns="http://www.w3.org/2000/svg">
<g clip-path="url(#clip0_1440_79834)">
<path d="M0.5 20C0.5 10.5719 0.5 5.85786 3.42893 2.92893C6.35786 0 11.0719 0 20.5 0H143C152.428 0 157.142 0 160.071 2.92893C163 5.85786 163 10.5719 163 20V30C163 39.4281 163 44.1421 160.071 47.0711C157.142 50 152.428 50 143 50H20.5C11.0719 50 6.35786 50 3.42893 47.0711C0.5 44.1421 0.5 39.4281 0.5 30V20Z" fill="#65AFD6"/>
<path d="M69.4178 30.13C68.7158 30.13 68.0355 30.0303 67.3768 29.831C66.7268 29.6317 66.2111 29.3673 65.8298 29.038L66.4148 27.725C66.7875 28.0197 67.2425 28.2623 67.7798 28.453C68.3258 28.635 68.8718 28.726 69.4178 28.726C70.0938 28.726 70.5965 28.6177 70.9258 28.401C71.2638 28.1843 71.4328 27.8983 71.4328 27.543C71.4328 27.283 71.3375 27.0707 71.1468 26.906C70.9648 26.7327 70.7308 26.5983 70.4448 26.503C70.1588 26.4077 69.7688 26.2993 69.2748 26.178C68.5815 26.0133 68.0181 25.8487 67.5848 25.684C67.1601 25.5193 66.7918 25.2637 66.4798 24.917C66.1765 24.5617 66.0248 24.085 66.0248 23.487C66.0248 22.9843 66.1591 22.5293 66.4278 22.122C66.7051 21.706 67.1168 21.3767 67.6628 21.134C68.2175 20.8913 68.8935 20.77 69.6908 20.77C70.2455 20.77 70.7915 20.8393 71.3288 20.978C71.8661 21.1167 72.3298 21.316 72.7198 21.576L72.1868 22.889C71.7881 22.655 71.3721 22.4773 70.9388 22.356C70.5055 22.2347 70.0851 22.174 69.6778 22.174C69.0105 22.174 68.5121 22.2867 68.1828 22.512C67.8621 22.7373 67.7018 23.0363 67.7018 23.409C67.7018 23.669 67.7928 23.8813 67.9748 24.046C68.1655 24.2107 68.4038 24.3407 68.6898 24.436C68.9758 24.5313 69.3658 24.6397 69.8598 24.761C70.5358 24.917 71.0905 25.0817 71.5238 25.255C71.9571 25.4197 72.3255 25.6753 72.6288 26.022C72.9408 26.3687 73.0968 26.8367 73.0968 27.426C73.0968 27.9287 72.9581 28.3837 72.6808 28.791C72.4121 29.1983 72.0005 29.5233 71.4458 29.766C70.8911 30.0087 70.2151 30.13 69.4178 30.13ZM80.8426 26.568C80.8426 26.6807 80.8339 26.841 80.8166 27.049H75.3696C75.4649 27.5603 75.7119 27.9677 76.1106 28.271C76.5179 28.5657 77.0206 28.713 77.6186 28.713C78.3812 28.713 79.0096 28.4617 79.5036 27.959L80.3746 28.96C80.0626 29.3327 79.6682 29.6143 79.1916 29.805C78.7149 29.9957 78.1776 30.091 77.5796 30.091C76.8169 30.091 76.1452 29.9393 75.5646 29.636C74.9839 29.3327 74.5332 28.9123 74.2126 28.375C73.9006 27.829 73.7446 27.2137 73.7446 26.529C73.7446 25.853 73.8962 25.2463 74.1996 24.709C74.5116 24.163 74.9406 23.7383 75.4866 23.435C76.0326 23.1317 76.6479 22.98 77.3326 22.98C78.0086 22.98 78.6109 23.1317 79.1396 23.435C79.6769 23.7297 80.0929 24.15 80.3876 24.696C80.6909 25.2333 80.8426 25.8573 80.8426 26.568ZM77.3326 24.28C76.8126 24.28 76.3706 24.436 76.0066 24.748C75.6512 25.0513 75.4346 25.4587 75.3566 25.97H79.2956C79.2262 25.4673 79.0139 25.06 78.6586 24.748C78.3032 24.436 77.8612 24.28 77.3326 24.28ZM86.0425 22.98C86.9178 22.98 87.6198 23.2357 88.1485 23.747C88.6772 24.2583 88.9415 25.0167 88.9415 26.022V30H87.3165V26.23C87.3165 25.6233 87.1735 25.1683 86.8875 24.865C86.6015 24.553 86.1942 24.397 85.6655 24.397C85.0675 24.397 84.5952 24.579 84.2485 24.943C83.9018 25.2983 83.7285 25.814 83.7285 26.49V30H82.1035V23.058H83.6505V23.955C83.9192 23.6343 84.2572 23.3917 84.6645 23.227C85.0718 23.0623 85.5312 22.98 86.0425 22.98ZM97.5654 20.354V30H96.0054V29.103C95.7367 29.4323 95.4031 29.6793 95.0044 29.844C94.6144 30.0087 94.1811 30.091 93.7044 30.091C93.0371 30.091 92.4347 29.9437 91.8974 29.649C91.3687 29.3543 90.9527 28.9383 90.6494 28.401C90.3461 27.855 90.1944 27.231 90.1944 26.529C90.1944 25.827 90.3461 25.2073 90.6494 24.67C90.9527 24.1327 91.3687 23.7167 91.8974 23.422C92.4347 23.1273 93.0371 22.98 93.7044 22.98C94.1637 22.98 94.5841 23.058 94.9654 23.214C95.3467 23.37 95.6717 23.604 95.9404 23.916V20.354H97.5654ZM93.8994 28.7C94.2894 28.7 94.6404 28.6133 94.9524 28.44C95.2644 28.258 95.5114 28.0023 95.6934 27.673C95.8754 27.3437 95.9664 26.9623 95.9664 26.529C95.9664 26.0957 95.8754 25.7143 95.6934 25.385C95.5114 25.0557 95.2644 24.8043 94.9524 24.631C94.6404 24.449 94.2894 24.358 93.8994 24.358C93.5094 24.358 93.1584 24.449 92.8464 24.631C92.5344 24.8043 92.2874 25.0557 92.1054 25.385C91.9234 25.7143 91.8324 26.0957 91.8324 26.529C91.8324 26.9623 91.9234 27.3437 92.1054 27.673C92.2874 28.0023 92.5344 28.258 92.8464 28.44C93.1584 28.6133 93.5094 28.7 93.8994 28.7Z" fill="white"/>
</g>
<defs>
<clipPath id="clip0_1440_79834">
<path d="M0.5 20C0.5 10.5719 0.5 5.85786 3.42893 2.92893C6.35786 0 11.0719 0 20.5 0H143C152.428 0 157.142 0 160.071 2.92893C163 5.85786 163 10.5719 163 20V30C163 39.4281 163 44.1421 160.071 47.0711C157.142 50 152.428 50 143 50H20.5C11.0719 50 6.35786 50 3.42893 47.0711C0.5 44.1421 0.5 39.4281 0.5 30V20Z" fill="white"/>
</clipPath>
</defs>
</svg>