<svg width="315" height="21" viewBox="0 0 315 21" fill="none" xmlns="http://www.w3.org/2000/svg">
<rect width="59" height="21" rx="6" fill="#65AFD6"/>
<path d="M14.4747 8.17V14H13.4737V13.12C13.2611 13.4207 12.9787 13.6553 12.6267 13.824C12.2821 13.9853 11.9044 14.066 11.4937 14.066C10.7164 14.066 10.1041 13.8533 9.65675 13.428C9.20941 12.9953 8.98575 12.361 8.98575 11.525V8.17H10.0417V11.404C10.0417 11.9687 10.1774 12.3977 10.4487 12.691C10.7201 12.977 11.1087 13.12 11.6147 13.12C12.1721 13.12 12.6121 12.9513 12.9347 12.614C13.2574 12.2767 13.4187 11.8 13.4187 11.184V8.17H14.4747ZM16.1851 5.838H17.2411V14H16.1851V5.838ZM22.375 13.659C22.221 13.791 22.0303 13.8937 21.803 13.967C21.5757 14.033 21.341 14.066 21.099 14.066C20.5123 14.066 20.0577 13.9083 19.735 13.593C19.4123 13.2777 19.251 12.8267 19.251 12.24V9.039H18.261V8.17H19.251V6.894H20.307V8.17H21.979V9.039H20.307V12.196C20.307 12.5113 20.384 12.7533 20.538 12.922C20.6993 13.0907 20.9267 13.175 21.22 13.175C21.5427 13.175 21.8177 13.0833 22.045 12.9L22.375 13.659ZM24.3637 9.149C24.547 8.81167 24.8183 8.555 25.1777 8.379C25.537 8.203 25.9734 8.115 26.4867 8.115V9.138C26.428 9.13067 26.3474 9.127 26.2447 9.127C25.6727 9.127 25.2217 9.29933 24.8917 9.644C24.569 9.98133 24.4077 10.4653 24.4077 11.096V14H23.3517V8.17H24.3637V9.149ZM29.6005 8.115C30.4071 8.115 31.0231 8.313 31.4485 8.709C31.8811 9.105 32.0975 9.69533 32.0975 10.48V14H31.0965V13.23C30.9205 13.5013 30.6675 13.7103 30.3375 13.857C30.0148 13.9963 29.6298 14.066 29.1825 14.066C28.5298 14.066 28.0055 13.9083 27.6095 13.593C27.2208 13.2777 27.0265 12.8633 27.0265 12.35C27.0265 11.8367 27.2135 11.426 27.5875 11.118C27.9615 10.8027 28.5555 10.645 29.3695 10.645H31.0415V10.436C31.0415 9.98133 30.9095 9.633 30.6455 9.391C30.3815 9.149 29.9928 9.028 29.4795 9.028C29.1348 9.028 28.7975 9.08667 28.4675 9.204C28.1375 9.314 27.8588 9.46433 27.6315 9.655L27.1915 8.863C27.4921 8.621 27.8515 8.43767 28.2695 8.313C28.6875 8.181 29.1311 8.115 29.6005 8.115ZM29.3585 13.252C29.7618 13.252 30.1101 13.164 30.4035 12.988C30.6968 12.8047 30.9095 12.548 31.0415 12.218V11.404H29.4135C28.5188 11.404 28.0715 11.7047 28.0715 12.306C28.0715 12.5993 28.1851 12.8303 28.4125 12.999C28.6398 13.1677 28.9551 13.252 29.3585 13.252ZM36.8647 8.115C37.6053 8.115 38.192 8.33133 38.6247 8.764C39.0647 9.18933 39.2847 9.81633 39.2847 10.645V14H38.2287V10.766C38.2287 10.2013 38.093 9.776 37.8217 9.49C37.5503 9.204 37.1617 9.061 36.6557 9.061C36.0837 9.061 35.6327 9.22967 35.3027 9.567C34.9727 9.897 34.8077 10.3737 34.8077 10.997V14H33.7517V8.17H34.7637V9.05C34.9763 8.74933 35.2623 8.51833 35.6217 8.357C35.9883 8.19567 36.4027 8.115 36.8647 8.115ZM46.2402 11.118C46.2402 11.1987 46.2329 11.305 46.2182 11.437H41.4882C41.5542 11.9503 41.7779 12.3647 42.1592 12.68C42.5479 12.988 43.0282 13.142 43.6002 13.142C44.2969 13.142 44.8579 12.9073 45.2832 12.438L45.8662 13.12C45.6022 13.428 45.2722 13.6627 44.8762 13.824C44.4875 13.9853 44.0512 14.066 43.5672 14.066C42.9512 14.066 42.4049 13.9413 41.9282 13.692C41.4515 13.4353 41.0812 13.0797 40.8172 12.625C40.5605 12.1703 40.4322 11.657 40.4322 11.085C40.4322 10.5203 40.5569 10.0107 40.8062 9.556C41.0629 9.10133 41.4112 8.74933 41.8512 8.5C42.2985 8.24333 42.8009 8.115 43.3582 8.115C43.9155 8.115 44.4105 8.24333 44.8432 8.5C45.2832 8.74933 45.6242 9.10133 45.8662 9.556C46.1155 10.0107 46.2402 10.5313 46.2402 11.118ZM43.3582 9.006C42.8522 9.006 42.4269 9.16 42.0822 9.468C41.7449 9.776 41.5469 10.1793 41.4882 10.678H45.2282C45.1695 10.1867 44.9679 9.787 44.6232 9.479C44.2859 9.16367 43.8642 9.006 43.3582 9.006ZM50.6846 13.659C50.5306 13.791 50.3399 13.8937 50.1126 13.967C49.8852 14.033 49.6506 14.066 49.4086 14.066C48.8219 14.066 48.3672 13.9083 48.0446 13.593C47.7219 13.2777 47.5606 12.8267 47.5606 12.24V9.039H46.5706V8.17H47.5606V6.894H48.6166V8.17H50.2886V9.039H48.6166V12.196C48.6166 12.5113 48.6936 12.7533 48.8476 12.922C49.0089 13.0907 49.2362 13.175 49.5296 13.175C49.8522 13.175 50.1272 13.0833 50.3546 12.9L50.6846 13.659Z" fill="white"/>
<rect x="69" width="126" height="21" rx="6" fill="#65AFD6"/>
<path d="M83.6209 8.17V14H82.6199V13.12C82.4073 13.4207 82.1249 13.6553 81.7729 13.824C81.4283 13.9853 81.0506 14.066 80.6399 14.066C79.8626 14.066 79.2503 13.8533 78.8029 13.428C78.3556 12.9953 78.1319 12.361 78.1319 11.525V8.17H79.1879V11.404C79.1879 11.9687 79.3236 12.3977 79.5949 12.691C79.8663 12.977 80.2549 13.12 80.7609 13.12C81.3183 13.12 81.7583 12.9513 82.0809 12.614C82.4036 12.2767 82.5649 11.8 82.5649 11.184V8.17H83.6209ZM85.3313 5.838H86.3873V14H85.3313V5.838ZM91.5212 13.659C91.3672 13.791 91.1765 13.8937 90.9492 13.967C90.7219 14.033 90.4872 14.066 90.2452 14.066C89.6585 14.066 89.2039 13.9083 88.8812 13.593C88.5585 13.2777 88.3972 12.8267 88.3972 12.24V9.039H87.4072V8.17H88.3972V6.894H89.4532V8.17H91.1252V9.039H89.4532V12.196C89.4532 12.5113 89.5302 12.7533 89.6842 12.922C89.8455 13.0907 90.0729 13.175 90.3662 13.175C90.6889 13.175 90.9639 13.0833 91.1912 12.9L91.5212 13.659ZM93.5099 9.149C93.6932 8.81167 93.9645 8.555 94.3239 8.379C94.6832 8.203 95.1195 8.115 95.6329 8.115V9.138C95.5742 9.13067 95.4935 9.127 95.3909 9.127C94.8189 9.127 94.3679 9.29933 94.0379 9.644C93.7152 9.98133 93.5539 10.4653 93.5539 11.096V14H92.4979V8.17H93.5099V9.149ZM98.7467 8.115C99.5533 8.115 100.169 8.313 100.595 8.709C101.027 9.105 101.244 9.69533 101.244 10.48V14H100.243V13.23C100.067 13.5013 99.8137 13.7103 99.4837 13.857C99.161 13.9963 98.776 14.066 98.3287 14.066C97.676 14.066 97.1517 13.9083 96.7557 13.593C96.367 13.2777 96.1727 12.8633 96.1727 12.35C96.1727 11.8367 96.3597 11.426 96.7337 11.118C97.1077 10.8027 97.7017 10.645 98.5157 10.645H100.188V10.436C100.188 9.98133 100.056 9.633 99.7917 9.391C99.5277 9.149 99.139 9.028 98.6257 9.028C98.281 9.028 97.9437 9.08667 97.6137 9.204C97.2837 9.314 97.005 9.46433 96.7777 9.655L96.3377 8.863C96.6383 8.621 96.9977 8.43767 97.4157 8.313C97.8337 8.181 98.2773 8.115 98.7467 8.115ZM98.5047 13.252C98.908 13.252 99.2563 13.164 99.5497 12.988C99.843 12.8047 100.056 12.548 100.188 12.218V11.404H98.5597C97.665 11.404 97.2177 11.7047 97.2177 12.306C97.2177 12.5993 97.3313 12.8303 97.5587 12.999C97.786 13.1677 98.1013 13.252 98.5047 13.252ZM106.011 8.115C106.752 8.115 107.338 8.33133 107.771 8.764C108.211 9.18933 108.431 9.81633 108.431 10.645V14H107.375V10.766C107.375 10.2013 107.239 9.776 106.968 9.49C106.697 9.204 106.308 9.061 105.802 9.061C105.23 9.061 104.779 9.22967 104.449 9.567C104.119 9.897 103.954 10.3737 103.954 10.997V14H102.898V8.17H103.91V9.05C104.123 8.74933 104.409 8.51833 104.768 8.357C105.135 8.19567 105.549 8.115 106.011 8.115ZM115.386 11.118C115.386 11.1987 115.379 11.305 115.364 11.437H110.634C110.7 11.9503 110.924 12.3647 111.305 12.68C111.694 12.988 112.174 13.142 112.746 13.142C113.443 13.142 114.004 12.9073 114.429 12.438L115.012 13.12C114.748 13.428 114.418 13.6627 114.022 13.824C113.634 13.9853 113.197 14.066 112.713 14.066C112.097 14.066 111.551 13.9413 111.074 13.692C110.598 13.4353 110.227 13.0797 109.963 12.625C109.707 12.1703 109.578 11.657 109.578 11.085C109.578 10.5203 109.703 10.0107 109.952 9.556C110.209 9.10133 110.557 8.74933 110.997 8.5C111.445 8.24333 111.947 8.115 112.504 8.115C113.062 8.115 113.557 8.24333 113.989 8.5C114.429 8.74933 114.77 9.10133 115.012 9.556C115.262 10.0107 115.386 10.5313 115.386 11.118ZM112.504 9.006C111.998 9.006 111.573 9.16 111.228 9.468C110.891 9.776 110.693 10.1793 110.634 10.678H114.374C114.316 10.1867 114.114 9.787 113.769 9.479C113.432 9.16367 113.01 9.006 112.504 9.006ZM119.831 13.659C119.677 13.791 119.486 13.8937 119.259 13.967C119.031 14.033 118.797 14.066 118.555 14.066C117.968 14.066 117.513 13.9083 117.191 13.593C116.868 13.2777 116.707 12.8267 116.707 12.24V9.039H115.717V8.17H116.707V6.894H117.763V8.17H119.435V9.039H117.763V12.196C117.763 12.5113 117.84 12.7533 117.994 12.922C118.155 13.0907 118.382 13.175 118.676 13.175C118.998 13.175 119.273 13.0833 119.501 12.9L119.831 13.659ZM123.111 14.066C122.532 14.066 122.011 13.9377 121.549 13.681C121.087 13.4243 120.724 13.0723 120.46 12.625C120.203 12.1703 120.075 11.657 120.075 11.085C120.075 10.513 120.203 10.0033 120.46 9.556C120.724 9.10133 121.087 8.74933 121.549 8.5C122.011 8.24333 122.532 8.115 123.111 8.115C123.69 8.115 124.207 8.24333 124.662 8.5C125.124 8.74933 125.483 9.10133 125.74 9.556C126.004 10.0033 126.136 10.513 126.136 11.085C126.136 11.657 126.004 12.1703 125.74 12.625C125.483 13.0723 125.124 13.4243 124.662 13.681C124.207 13.9377 123.69 14.066 123.111 14.066ZM123.111 13.142C123.485 13.142 123.819 13.0577 124.112 12.889C124.413 12.713 124.647 12.471 124.816 12.163C124.985 11.8477 125.069 11.4883 125.069 11.085C125.069 10.6817 124.985 10.326 124.816 10.018C124.647 9.70267 124.413 9.46067 124.112 9.292C123.819 9.12333 123.485 9.039 123.111 9.039C122.737 9.039 122.4 9.12333 122.099 9.292C121.806 9.46067 121.571 9.70267 121.395 10.018C121.226 10.326 121.142 10.6817 121.142 11.085C121.142 11.4883 121.226 11.8477 121.395 12.163C121.571 12.471 121.806 12.713 122.099 12.889C122.4 13.0577 122.737 13.142 123.111 13.142ZM128.309 9.149C128.492 8.81167 128.763 8.555 129.123 8.379C129.482 8.203 129.918 8.115 130.432 8.115V9.138C130.373 9.13067 130.292 9.127 130.19 9.127C129.618 9.127 129.167 9.29933 128.837 9.644C128.514 9.98133 128.353 10.4653 128.353 11.096V14H127.297V8.17H128.309V9.149ZM136.956 8.17V13.208C136.956 14.2273 136.703 14.979 136.197 15.463C135.691 15.9543 134.936 16.2 133.931 16.2C133.381 16.2 132.857 16.123 132.358 15.969C131.86 15.8223 131.456 15.6097 131.148 15.331L131.654 14.517C131.926 14.7517 132.259 14.935 132.655 15.067C133.059 15.2063 133.473 15.276 133.898 15.276C134.58 15.276 135.083 15.1147 135.405 14.792C135.735 14.4693 135.9 13.978 135.9 13.318V12.856C135.651 13.1567 135.343 13.384 134.976 13.538C134.617 13.6847 134.225 13.758 133.799 13.758C133.242 13.758 132.736 13.6407 132.281 13.406C131.834 13.164 131.482 12.8303 131.225 12.405C130.969 11.9723 130.84 11.481 130.84 10.931C130.84 10.381 130.969 9.89333 131.225 9.468C131.482 9.03533 131.834 8.70167 132.281 8.467C132.736 8.23233 133.242 8.115 133.799 8.115C134.239 8.115 134.646 8.19567 135.02 8.357C135.402 8.51833 135.713 8.75667 135.955 9.072V8.17H136.956ZM133.92 12.834C134.302 12.834 134.643 12.7533 134.943 12.592C135.251 12.4307 135.49 12.207 135.658 11.921C135.834 11.6277 135.922 11.2977 135.922 10.931C135.922 10.3663 135.735 9.91167 135.361 9.567C134.987 9.215 134.507 9.039 133.92 9.039C133.326 9.039 132.842 9.215 132.468 9.567C132.094 9.91167 131.907 10.3663 131.907 10.931C131.907 11.2977 131.992 11.6277 132.16 11.921C132.336 12.207 132.575 12.4307 132.875 12.592C133.183 12.7533 133.532 12.834 133.92 12.834ZM140.797 8.115C141.604 8.115 142.22 8.313 142.645 8.709C143.078 9.105 143.294 9.69533 143.294 10.48V14H142.293V13.23C142.117 13.5013 141.864 13.7103 141.534 13.857C141.211 13.9963 140.826 14.066 140.379 14.066C139.726 14.066 139.202 13.9083 138.806 13.593C138.417 13.2777 138.223 12.8633 138.223 12.35C138.223 11.8367 138.41 11.426 138.784 11.118C139.158 10.8027 139.752 10.645 140.566 10.645H142.238V10.436C142.238 9.98133 142.106 9.633 141.842 9.391C141.578 9.149 141.189 9.028 140.676 9.028C140.331 9.028 139.994 9.08667 139.664 9.204C139.334 9.314 139.055 9.46433 138.828 9.655L138.388 8.863C138.689 8.621 139.048 8.43767 139.466 8.313C139.884 8.181 140.328 8.115 140.797 8.115ZM140.555 13.252C140.958 13.252 141.307 13.164 141.6 12.988C141.893 12.8047 142.106 12.548 142.238 12.218V11.404H140.61C139.715 11.404 139.268 11.7047 139.268 12.306C139.268 12.5993 139.382 12.8303 139.609 12.999C139.836 13.1677 140.152 13.252 140.555 13.252ZM148.061 8.115C148.802 8.115 149.389 8.33133 149.821 8.764C150.261 9.18933 150.481 9.81633 150.481 10.645V14H149.425V10.766C149.425 10.2013 149.29 9.776 149.018 9.49C148.747 9.204 148.358 9.061 147.852 9.061C147.28 9.061 146.829 9.22967 146.499 9.567C146.169 9.897 146.004 10.3737 146.004 10.997V14H144.948V8.17H145.96V9.05C146.173 8.74933 146.459 8.51833 146.818 8.357C147.185 8.19567 147.599 8.115 148.061 8.115ZM152.136 8.17H153.192V14H152.136V8.17ZM152.664 7.048C152.458 7.048 152.286 6.982 152.147 6.85C152.015 6.718 151.949 6.55667 151.949 6.366C151.949 6.17533 152.015 6.014 152.147 5.882C152.286 5.74267 152.458 5.673 152.664 5.673C152.869 5.673 153.038 5.739 153.17 5.871C153.309 5.99567 153.379 6.15333 153.379 6.344C153.379 6.542 153.309 6.71067 153.17 6.85C153.038 6.982 152.869 7.048 152.664 7.048ZM159.231 13.131V14H154.347V13.318L157.79 9.039H154.413V8.17H159.143V8.863L155.7 13.131H159.231ZM162.467 8.115C163.274 8.115 163.89 8.313 164.315 8.709C164.748 9.105 164.964 9.69533 164.964 10.48V14H163.963V13.23C163.787 13.5013 163.534 13.7103 163.204 13.857C162.881 13.9963 162.496 14.066 162.049 14.066C161.396 14.066 160.872 13.9083 160.476 13.593C160.087 13.2777 159.893 12.8633 159.893 12.35C159.893 11.8367 160.08 11.426 160.454 11.118C160.828 10.8027 161.422 10.645 162.236 10.645H163.908V10.436C163.908 9.98133 163.776 9.633 163.512 9.391C163.248 9.149 162.859 9.028 162.346 9.028C162.001 9.028 161.664 9.08667 161.334 9.204C161.004 9.314 160.725 9.46433 160.498 9.655L160.058 8.863C160.359 8.621 160.718 8.43767 161.136 8.313C161.554 8.181 161.998 8.115 162.467 8.115ZM162.225 13.252C162.628 13.252 162.977 13.164 163.27 12.988C163.563 12.8047 163.776 12.548 163.908 12.218V11.404H162.28C161.385 11.404 160.938 11.7047 160.938 12.306C160.938 12.5993 161.052 12.8303 161.279 12.999C161.506 13.1677 161.822 13.252 162.225 13.252ZM169.896 13.659C169.742 13.791 169.552 13.8937 169.324 13.967C169.097 14.033 168.862 14.066 168.62 14.066C168.034 14.066 167.579 13.9083 167.256 13.593C166.934 13.2777 166.772 12.8267 166.772 12.24V9.039H165.782V8.17H166.772V6.894H167.828V8.17H169.5V9.039H167.828V12.196C167.828 12.5113 167.905 12.7533 168.059 12.922C168.221 13.0907 168.448 13.175 168.741 13.175C169.064 13.175 169.339 13.0833 169.566 12.9L169.896 13.659ZM170.873 8.17H171.929V14H170.873V8.17ZM171.401 7.048C171.196 7.048 171.023 6.982 170.884 6.85C170.752 6.718 170.686 6.55667 170.686 6.366C170.686 6.17533 170.752 6.014 170.884 5.882C171.023 5.74267 171.196 5.673 171.401 5.673C171.606 5.673 171.775 5.739 171.907 5.871C172.046 5.99567 172.116 6.15333 172.116 6.344C172.116 6.542 172.046 6.71067 171.907 6.85C171.775 6.982 171.606 7.048 171.401 7.048ZM176.142 14.066C175.563 14.066 175.042 13.9377 174.58 13.681C174.118 13.4243 173.755 13.0723 173.491 12.625C173.235 12.1703 173.106 11.657 173.106 11.085C173.106 10.513 173.235 10.0033 173.491 9.556C173.755 9.10133 174.118 8.74933 174.58 8.5C175.042 8.24333 175.563 8.115 176.142 8.115C176.722 8.115 177.239 8.24333 177.693 8.5C178.155 8.74933 178.515 9.10133 178.771 9.556C179.035 10.0033 179.167 10.513 179.167 11.085C179.167 11.657 179.035 12.1703 178.771 12.625C178.515 13.0723 178.155 13.4243 177.693 13.681C177.239 13.9377 176.722 14.066 176.142 14.066ZM176.142 13.142C176.516 13.142 176.85 13.0577 177.143 12.889C177.444 12.713 177.679 12.471 177.847 12.163C178.016 11.8477 178.1 11.4883 178.1 11.085C178.1 10.6817 178.016 10.326 177.847 10.018C177.679 9.70267 177.444 9.46067 177.143 9.292C176.85 9.12333 176.516 9.039 176.142 9.039C175.768 9.039 175.431 9.12333 175.13 9.292C174.837 9.46067 174.602 9.70267 174.426 10.018C174.258 10.326 174.173 10.6817 174.173 11.085C174.173 11.4883 174.258 11.8477 174.426 12.163C174.602 12.471 174.837 12.713 175.13 12.889C175.431 13.0577 175.768 13.142 176.142 13.142ZM183.441 8.115C184.181 8.115 184.768 8.33133 185.201 8.764C185.641 9.18933 185.861 9.81633 185.861 10.645V14H184.805V10.766C184.805 10.2013 184.669 9.776 184.398 9.49C184.126 9.204 183.738 9.061 183.232 9.061C182.66 9.061 182.209 9.22967 181.879 9.567C181.549 9.897 181.384 10.3737 181.384 10.997V14H180.328V8.17H181.34V9.05C181.552 8.74933 181.838 8.51833 182.198 8.357C182.564 8.19567 182.979 8.115 183.441 8.115Z" fill="white"/>
<rect x="205" width="60" height="21" rx="6" fill="#65AFD6"/>
<path d="M216.584 8.115C217.39 8.115 218.006 8.313 218.432 8.709C218.864 9.105 219.081 9.69533 219.081 10.48V14H218.08V13.23C217.904 13.5013 217.651 13.7103 217.321 13.857C216.998 13.9963 216.613 14.066 216.166 14.066C215.513 14.066 214.989 13.9083 214.593 13.593C214.204 13.2777 214.01 12.8633 214.01 12.35C214.01 11.8367 214.197 11.426 214.571 11.118C214.945 10.8027 215.539 10.645 216.353 10.645H218.025V10.436C218.025 9.98133 217.893 9.633 217.629 9.391C217.365 9.149 216.976 9.028 216.463 9.028C216.118 9.028 215.781 9.08667 215.451 9.204C215.121 9.314 214.842 9.46433 214.615 9.655L214.175 8.863C214.475 8.621 214.835 8.43767 215.253 8.313C215.671 8.181 216.114 8.115 216.584 8.115ZM216.342 13.252C216.745 13.252 217.093 13.164 217.387 12.988C217.68 12.8047 217.893 12.548 218.025 12.218V11.404H216.397C215.502 11.404 215.055 11.7047 215.055 12.306C215.055 12.5993 215.168 12.8303 215.396 12.999C215.623 13.1677 215.938 13.252 216.342 13.252ZM224.453 14L222.77 11.767L221.065 14H219.888L222.187 11.019L219.998 8.17H221.175L222.781 10.271L224.376 8.17H225.531L223.331 11.019L225.652 14H224.453ZM226.504 8.17H227.56V14H226.504V8.17ZM227.032 7.048C226.827 7.048 226.654 6.982 226.515 6.85C226.383 6.718 226.317 6.55667 226.317 6.366C226.317 6.17533 226.383 6.014 226.515 5.882C226.654 5.74267 226.827 5.673 227.032 5.673C227.237 5.673 227.406 5.739 227.538 5.871C227.677 5.99567 227.747 6.15333 227.747 6.344C227.747 6.542 227.677 6.71067 227.538 6.85C227.406 6.982 227.237 7.048 227.032 7.048ZM236.569 8.115C237.303 8.115 237.882 8.32767 238.307 8.753C238.74 9.17833 238.956 9.809 238.956 10.645V14H237.9V10.766C237.9 10.2013 237.768 9.776 237.504 9.49C237.248 9.204 236.877 9.061 236.393 9.061C235.858 9.061 235.433 9.22967 235.117 9.567C234.802 9.897 234.644 10.3737 234.644 10.997V14H233.588V10.766C233.588 10.2013 233.456 9.776 233.192 9.49C232.936 9.204 232.565 9.061 232.081 9.061C231.546 9.061 231.121 9.22967 230.805 9.567C230.49 9.897 230.332 10.3737 230.332 10.997V14H229.276V8.17H230.288V9.039C230.501 8.73833 230.78 8.511 231.124 8.357C231.469 8.19567 231.861 8.115 232.301 8.115C232.756 8.115 233.159 8.20667 233.511 8.39C233.863 8.57333 234.135 8.841 234.325 9.193C234.545 8.85567 234.85 8.59167 235.238 8.401C235.634 8.21033 236.078 8.115 236.569 8.115ZM240.599 8.17H241.655V14H240.599V8.17ZM241.127 7.048C240.922 7.048 240.75 6.982 240.61 6.85C240.478 6.718 240.412 6.55667 240.412 6.366C240.412 6.17533 240.478 6.014 240.61 5.882C240.75 5.74267 240.922 5.673 241.127 5.673C241.333 5.673 241.501 5.739 241.633 5.871C241.773 5.99567 241.842 6.15333 241.842 6.344C241.842 6.542 241.773 6.71067 241.633 6.85C241.501 6.982 241.333 7.048 241.127 7.048ZM245.869 14.066C245.289 14.066 244.769 13.9377 244.307 13.681C243.845 13.4243 243.482 13.0723 243.218 12.625C242.961 12.1703 242.833 11.657 242.833 11.085C242.833 10.513 242.961 10.0033 243.218 9.556C243.482 9.10133 243.845 8.74933 244.307 8.5C244.769 8.24333 245.289 8.115 245.869 8.115C246.448 8.115 246.965 8.24333 247.42 8.5C247.882 8.74933 248.241 9.10133 248.498 9.556C248.762 10.0033 248.894 10.513 248.894 11.085C248.894 11.657 248.762 12.1703 248.498 12.625C248.241 13.0723 247.882 13.4243 247.42 13.681C246.965 13.9377 246.448 14.066 245.869 14.066ZM245.869 13.142C246.243 13.142 246.576 13.0577 246.87 12.889C247.17 12.713 247.405 12.471 247.574 12.163C247.742 11.8477 247.827 11.4883 247.827 11.085C247.827 10.6817 247.742 10.326 247.574 10.018C247.405 9.70267 247.17 9.46067 246.87 9.292C246.576 9.12333 246.243 9.039 245.869 9.039C245.495 9.039 245.157 9.12333 244.857 9.292C244.563 9.46067 244.329 9.70267 244.153 10.018C243.984 10.326 243.9 10.6817 243.9 11.085C243.9 11.4883 243.984 11.8477 244.153 12.163C244.329 12.471 244.563 12.713 244.857 12.889C245.157 13.0577 245.495 13.142 245.869 13.142ZM253.167 8.115C253.908 8.115 254.494 8.33133 254.927 8.764C255.367 9.18933 255.587 9.81633 255.587 10.645V14H254.531V10.766C254.531 10.2013 254.395 9.776 254.124 9.49C253.853 9.204 253.464 9.061 252.958 9.061C252.386 9.061 251.935 9.22967 251.605 9.567C251.275 9.897 251.11 10.3737 251.11 10.997V14H250.054V8.17H251.066V9.05C251.279 8.74933 251.565 8.51833 251.924 8.357C252.291 8.19567 252.705 8.115 253.167 8.115Z" fill="white"/>
</svg>
