<svg width="335" height="50" viewBox="0 0 335 50" fill="none" xmlns="http://www.w3.org/2000/svg">
<path d="M0 20C0 10.5719 0 5.85786 2.92893 2.92893C5.85786 0 10.5719 0 20 0H315C324.428 0 329.142 0 332.071 2.92893C335 5.85786 335 10.5719 335 20V30C335 39.4281 335 44.1421 332.071 47.0711C329.142 50 324.428 50 315 50H20C10.5719 50 5.85786 50 2.92893 47.0711C0 44.1421 0 39.4281 0 30V20Z" fill="#1F3F51"/>
<path d="M150.301 25.268C150.804 25.4327 151.202 25.71 151.497 26.1C151.792 26.4813 151.939 26.958 151.939 27.53C151.939 28.3187 151.636 28.9297 151.029 29.363C150.422 29.7877 149.538 30 148.377 30H143.853V20.9H148.117C149.192 20.9 150.019 21.1123 150.6 21.537C151.181 21.953 151.471 22.5293 151.471 23.266C151.471 23.7167 151.367 24.1153 151.159 24.462C150.951 24.8087 150.665 25.0773 150.301 25.268ZM145.543 22.226V24.735H147.935C148.524 24.735 148.975 24.631 149.287 24.423C149.608 24.2063 149.768 23.8943 149.768 23.487C149.768 23.071 149.608 22.759 149.287 22.551C148.975 22.3343 148.524 22.226 147.935 22.226H145.543ZM148.273 28.674C149.582 28.674 150.236 28.2363 150.236 27.361C150.236 26.4857 149.582 26.048 148.273 26.048H145.543V28.674H148.273ZM155.939 22.98C156.961 22.98 157.741 23.227 158.279 23.721C158.825 24.2063 159.098 24.943 159.098 25.931V30H157.564V29.155C157.364 29.4583 157.078 29.6923 156.706 29.857C156.342 30.013 155.9 30.091 155.38 30.091C154.86 30.091 154.405 30.0043 154.015 29.831C153.625 29.649 153.321 29.402 153.105 29.09C152.897 28.7693 152.793 28.4097 152.793 28.011C152.793 27.387 153.022 26.8887 153.482 26.516C153.95 26.1347 154.682 25.944 155.679 25.944H157.473V25.84C157.473 25.3547 157.325 24.982 157.031 24.722C156.745 24.462 156.316 24.332 155.744 24.332C155.354 24.332 154.968 24.3927 154.587 24.514C154.214 24.6353 153.898 24.8043 153.638 25.021L153.001 23.838C153.365 23.5607 153.802 23.3483 154.314 23.201C154.825 23.0537 155.367 22.98 155.939 22.98ZM155.718 28.908C156.125 28.908 156.485 28.817 156.797 28.635C157.117 28.4443 157.343 28.1757 157.473 27.829V27.023H155.796C154.86 27.023 154.392 27.3307 154.392 27.946C154.392 28.2407 154.509 28.4747 154.743 28.648C154.977 28.8213 155.302 28.908 155.718 28.908ZM164.131 30.091C163.412 30.091 162.766 29.9393 162.194 29.636C161.622 29.3327 161.176 28.9123 160.855 28.375C160.535 27.829 160.374 27.2137 160.374 26.529C160.374 25.8443 160.535 25.2333 160.855 24.696C161.176 24.1587 161.618 23.7383 162.181 23.435C162.753 23.1317 163.403 22.98 164.131 22.98C164.816 22.98 165.414 23.1187 165.925 23.396C166.445 23.6733 166.835 24.072 167.095 24.592L165.847 25.32C165.648 24.9993 165.397 24.761 165.093 24.605C164.799 24.4403 164.474 24.358 164.118 24.358C163.512 24.358 163.009 24.5573 162.61 24.956C162.212 25.346 162.012 25.8703 162.012 26.529C162.012 27.1877 162.207 27.7163 162.597 28.115C162.996 28.505 163.503 28.7 164.118 28.7C164.474 28.7 164.799 28.622 165.093 28.466C165.397 28.3013 165.648 28.0587 165.847 27.738L167.095 28.466C166.827 28.986 166.432 29.389 165.912 29.675C165.401 29.9523 164.807 30.091 164.131 30.091ZM170.971 27.023L169.762 28.167V30H168.137V20.354H169.762V26.178L173.129 23.058H175.079L172.18 25.97L175.352 30H173.376L170.971 27.023ZM182.695 23.058V30H181.148V29.116C180.888 29.428 180.563 29.6707 180.173 29.844C179.783 30.0087 179.363 30.091 178.912 30.091C177.985 30.091 177.253 29.8353 176.715 29.324C176.187 28.804 175.922 28.037 175.922 27.023V23.058H177.547V26.802C177.547 27.426 177.686 27.894 177.963 28.206C178.249 28.5093 178.652 28.661 179.172 28.661C179.753 28.661 180.212 28.4833 180.55 28.128C180.897 27.764 181.07 27.244 181.07 26.568V23.058H182.695ZM188.371 22.98C189.047 22.98 189.649 23.1273 190.178 23.422C190.715 23.7167 191.136 24.1327 191.439 24.67C191.742 25.2073 191.894 25.827 191.894 26.529C191.894 27.231 191.742 27.855 191.439 28.401C191.136 28.9383 190.715 29.3543 190.178 29.649C189.649 29.9437 189.047 30.091 188.371 30.091C187.435 30.091 186.694 29.779 186.148 29.155V32.522H184.523V23.058H186.07V23.968C186.339 23.6387 186.668 23.3917 187.058 23.227C187.457 23.0623 187.894 22.98 188.371 22.98ZM188.189 28.7C188.787 28.7 189.277 28.5007 189.658 28.102C190.048 27.7033 190.243 27.179 190.243 26.529C190.243 25.879 190.048 25.3547 189.658 24.956C189.277 24.5573 188.787 24.358 188.189 24.358C187.799 24.358 187.448 24.449 187.136 24.631C186.824 24.8043 186.577 25.0557 186.395 25.385C186.213 25.7143 186.122 26.0957 186.122 26.529C186.122 26.9623 186.213 27.3437 186.395 27.673C186.577 28.0023 186.824 28.258 187.136 28.44C187.448 28.6133 187.799 28.7 188.189 28.7Z" fill="#3DC1F2"/>
</svg>
