<svg width="375" height="812" viewBox="0 0 375 812" fill="none" xmlns="http://www.w3.org/2000/svg">
<g clip-path="url(#clip0_667_119662)">
<rect width="375" height="812" fill="#18181B"/>
<path d="M550.405 728.906C458.017 888.927 509.106 1063.5 349.085 971.115C189.067 878.729 45.6001 551.12 226.626 514.096C629.482 431.695 523.63 299.248 683.648 391.634C843.67 484.023 642.791 568.888 550.405 728.906V728.906Z" stroke="#3DC1F2" stroke-opacity="0.03" stroke-miterlimit="10"/>
<path d="M548.747 727.018C457.87 884.421 500.063 1060.97 342.656 970.091C185.254 879.215 54.6683 554.71 231.365 516.831C622.065 433.069 533.053 302.367 690.456 393.243C847.859 484.12 639.624 569.615 548.747 727.018Z" stroke="#3DC1F2" stroke-opacity="0.03" stroke-miterlimit="10"/>
<path d="M547.086 725.131C457.718 879.919 491.015 1058.43 336.227 969.063C181.442 879.698 63.7213 558.311 236.101 519.566C614.63 434.484 542.473 305.486 697.261 394.853C852.045 484.218 636.451 570.346 547.086 725.131V725.131Z" stroke="#3DC1F2" stroke-opacity="0.03" stroke-miterlimit="10"/>
<path d="M545.432 723.245C457.576 875.416 481.968 1055.89 329.798 968.039C177.63 880.185 72.7619 561.924 240.841 522.302C607.184 435.941 551.896 308.605 704.065 396.46C856.235 484.315 633.287 571.075 545.432 723.245Z" stroke="#3DC1F2" stroke-opacity="0.03" stroke-miterlimit="10"/>
<path d="M543.772 721.358C457.426 870.914 472.926 1053.36 323.37 967.012C173.819 880.668 81.7891 565.547 245.579 525.037C599.722 437.445 561.317 311.725 710.871 398.07C860.423 484.414 630.116 571.807 543.772 721.358Z" stroke="#3DC1F2" stroke-opacity="0.03" stroke-miterlimit="10"/>
<path d="M542.113 719.471C457.279 866.408 463.878 1050.82 316.942 965.989C170.006 881.155 90.8 569.188 250.317 527.773C592.245 439 570.739 314.844 717.674 399.677C864.612 484.511 626.947 572.534 542.113 719.471V719.471Z" stroke="#3DC1F2" stroke-opacity="0.03" stroke-miterlimit="10"/>
<path d="M540.451 717.584C457.129 861.903 454.833 1048.29 310.512 964.961C166.192 881.638 99.7937 572.843 255.053 530.509C584.753 440.608 580.158 317.964 724.478 401.287C868.797 484.61 623.774 573.266 540.451 717.584V717.584Z" stroke="#3DC1F2" stroke-opacity="0.03" stroke-miterlimit="10"/>
<path d="M538.792 715.697C456.979 857.401 445.785 1045.75 304.082 963.937C162.379 882.125 108.774 576.515 259.791 533.244C577.246 442.283 589.58 321.083 731.281 402.894C872.986 484.707 620.603 573.996 538.792 715.697V715.697Z" stroke="#3DC1F2" stroke-opacity="0.03" stroke-miterlimit="10"/>
<path d="M537.132 713.81C456.831 852.896 436.738 1043.21 297.654 962.91C158.568 882.608 117.738 580.207 264.529 535.98C569.726 444.024 599.001 324.203 738.088 404.504C877.173 484.806 617.434 574.724 537.132 713.81Z" stroke="#3DC1F2" stroke-opacity="0.03" stroke-miterlimit="10"/>
<path d="M535.475 711.923C456.683 848.394 427.696 1040.68 291.226 961.886C154.757 883.095 126.688 583.921 269.269 538.715C562.196 445.838 608.423 327.326 744.89 406.116C881.361 484.907 614.264 575.455 535.475 711.923V711.923Z" stroke="#3DC1F2" stroke-opacity="0.03" stroke-miterlimit="10"/>
<path d="M533.817 710.037C456.537 843.89 418.647 1038.14 284.795 960.857C150.943 883.577 135.617 587.659 274.004 541.45C554.65 447.734 617.841 330.445 751.694 407.724C885.547 485.004 611.097 576.184 533.817 710.037Z" stroke="#3DC1F2" stroke-opacity="0.03" stroke-miterlimit="10"/>
<path d="M532.158 708.151C456.389 839.385 409.603 1035.6 278.365 959.834C147.13 884.065 144.531 591.431 278.742 544.186C547.096 449.724 627.263 333.565 758.501 409.335C889.735 485.103 607.926 576.916 532.158 708.151V708.151Z" stroke="#3DC1F2" stroke-opacity="0.03" stroke-miterlimit="10"/>
<path d="M530.499 706.263C456.24 834.883 400.557 1033.06 271.939 958.805C143.32 884.547 153.432 595.228 283.482 546.922C539.539 451.803 636.686 336.683 765.304 410.941C893.924 485.2 604.758 577.643 530.499 706.263Z" stroke="#3DC1F2" stroke-opacity="0.03" stroke-miterlimit="10"/>
<path d="M528.839 704.376C456.092 830.377 391.508 1030.53 265.508 957.782C139.506 885.035 162.315 599.065 288.219 549.657C531.975 453.996 646.107 339.803 772.11 412.551C898.112 485.298 601.586 578.374 528.839 704.376V704.376Z" stroke="#3DC1F2" stroke-opacity="0.03" stroke-miterlimit="10"/>
<path d="M527.181 702.488C455.943 825.875 382.467 1027.99 259.082 956.753C135.696 885.516 171.187 602.943 292.958 552.392C524.414 456.304 655.529 342.922 778.914 414.158C902.301 485.395 598.418 579.101 527.181 702.488V702.488Z" stroke="#3DC1F2" stroke-opacity="0.03" stroke-miterlimit="10"/>
<path d="M525.522 700.601C455.796 821.37 373.422 1025.45 252.654 955.726C131.885 886 180.045 606.87 297.696 555.128C516.861 458.74 664.951 346.042 785.721 415.768C906.489 485.494 595.247 579.832 525.522 700.601V700.601Z" stroke="#3DC1F2" stroke-opacity="0.03" stroke-miterlimit="10"/>
<path d="M523.86 698.714C455.646 816.864 364.375 1022.92 246.222 954.702C128.07 886.487 188.892 610.852 302.432 557.863C509.318 461.313 674.371 349.161 792.521 417.375C910.675 485.591 592.076 580.559 523.86 698.714V698.714Z" stroke="#3DC1F2" stroke-opacity="0.03" stroke-miterlimit="10"/>
<path d="M522.207 696.829C455.503 812.365 355.331 1020.38 239.796 953.674C124.261 886.97 197.743 614.888 307.173 560.599C501.802 464.038 683.794 352.28 799.33 418.985C914.866 485.689 588.912 581.293 522.207 696.829Z" stroke="#3DC1F2" stroke-opacity="0.03" stroke-miterlimit="10"/>
<path d="M520.547 694.941C455.354 807.859 346.282 1017.84 233.365 952.65C120.447 887.456 206.593 618.997 311.91 563.334C494.319 466.921 693.215 355.399 806.132 420.592C919.053 485.787 585.74 582.024 520.547 694.941V694.941Z" stroke="#3DC1F2" stroke-opacity="0.03" stroke-miterlimit="10"/>
<path d="M518.889 693.054C455.205 803.357 337.241 1015.3 226.939 951.622C116.637 887.939 215.454 623.189 316.649 566.07C486.881 469.982 702.637 358.517 812.94 422.201C923.243 485.884 582.572 582.751 518.889 693.054V693.054Z" stroke="#3DC1F2" stroke-opacity="0.03" stroke-miterlimit="10"/>
<path d="M517.228 691.167C455.056 798.852 328.191 1012.77 220.508 950.599C112.822 888.427 224.338 627.467 321.386 568.806C479.504 473.229 712.054 361.641 819.743 423.815C927.427 485.987 579.4 583.483 517.228 691.167Z" stroke="#3DC1F2" stroke-opacity="0.03" stroke-miterlimit="10"/>
<path d="M515.568 689.28C454.908 794.346 319.149 1010.23 214.079 949.571C109.011 888.909 233.263 631.845 326.123 571.541C472.212 476.667 721.479 364.763 826.545 425.422C931.615 486.085 576.23 584.21 515.568 689.28Z" stroke="#3DC1F2" stroke-opacity="0.03" stroke-miterlimit="10"/>
<path d="M513.907 687.393C454.757 789.844 310.099 1007.7 207.648 948.547C105.196 889.396 242.245 636.344 330.86 574.277C465.026 480.305 730.899 367.882 833.35 427.032C935.802 486.183 573.058 584.941 513.907 687.393V687.393Z" stroke="#3DC1F2" stroke-opacity="0.03" stroke-miterlimit="10"/>
<path d="M512.254 685.507C454.615 785.34 301.058 1005.16 201.222 947.518C101.387 889.879 251.316 640.97 335.6 577.012C457.977 484.145 740.321 371 840.154 428.639C939.992 486.28 569.895 585.67 512.254 685.507V685.507Z" stroke="#3DC1F2" stroke-opacity="0.03" stroke-miterlimit="10"/>
<path d="M510.594 683.621C454.465 780.839 292.009 1002.62 194.791 946.495C97.5729 890.366 260.507 645.744 340.337 579.748C451.095 488.183 749.742 374.12 846.961 430.249C944.179 486.378 566.723 586.402 510.594 683.621V683.621Z" stroke="#3DC1F2" stroke-opacity="0.03" stroke-miterlimit="10"/>
<path d="M508.935 681.733C454.317 776.333 282.965 1000.08 188.364 945.467C93.7623 890.848 269.868 650.674 345.076 582.483C444.418 492.41 759.164 377.238 853.764 431.856C948.368 486.476 563.555 587.129 508.935 681.733V681.733Z" stroke="#3DC1F2" stroke-opacity="0.03" stroke-miterlimit="10"/>
<path d="M507.274 679.846C454.169 771.827 273.918 997.55 181.933 944.443C89.9482 891.335 279.454 655.775 349.813 585.219C437.995 496.79 768.584 380.358 860.569 433.466C952.555 486.574 560.382 587.86 507.274 679.846Z" stroke="#3DC1F2" stroke-opacity="0.03" stroke-miterlimit="10"/>
<path d="M505.616 677.959C454.02 767.326 264.874 995.012 175.506 943.415C86.1379 891.819 289.343 661.045 354.552 587.955C431.872 501.288 778.006 383.477 867.373 435.073C956.744 486.672 557.212 588.592 505.616 677.959V677.959Z" stroke="#3DC1F2" stroke-opacity="0.03" stroke-miterlimit="10"/>
<path d="M503.957 676.071C453.872 762.82 255.827 992.477 169.076 942.391C82.3249 892.305 299.615 666.48 359.291 590.69C426.105 505.831 787.427 386.595 874.18 436.682C960.932 486.769 554.043 589.318 503.957 676.071V676.071Z" stroke="#3DC1F2" stroke-opacity="0.03" stroke-miterlimit="10"/>
<path d="M502.297 674.183C453.722 758.318 246.782 989.938 162.648 941.363C78.5135 892.788 310.37 672.046 364.028 593.425C420.744 510.323 796.851 389.716 880.986 438.291C965.12 486.866 550.872 590.049 502.297 674.183V674.183Z" stroke="#3DC1F2" stroke-opacity="0.03" stroke-miterlimit="10"/>
<path d="M500.642 672.298C453.579 753.814 237.736 987.403 156.218 940.339C74.7008 893.275 321.704 677.676 368.767 596.16C415.833 514.64 806.271 392.84 887.787 439.903C969.307 486.968 547.708 590.778 500.642 672.298V672.298Z" stroke="#3DC1F2" stroke-opacity="0.03" stroke-miterlimit="10"/>
<path d="M462.714 743.583C348.422 774.211 324.602 995.829 313.298 719.002C308.471 600.776 323.991 209.568 423.7 326.07C524.501 443.851 639.919 523.992 670.54 638.285C701.168 752.576 577.007 712.962 462.714 743.583Z" stroke="#3DC1F2" stroke-opacity="0.03" stroke-miterlimit="10"/>
<path d="M463.508 744.005C351.085 774.128 318.248 986.318 306.8 716.78C301.614 600.551 325.76 222.714 424.087 334.812C523.47 448.145 644.737 531.31 674.86 643.732C704.984 756.154 575.931 713.881 463.508 744.005Z" stroke="#3DC1F2" stroke-opacity="0.03" stroke-miterlimit="10"/>
<path d="M464.3 744.423C353.747 774.048 312.465 976.782 300.302 714.557C295.004 600.32 327.53 235.86 424.473 343.556C522.437 452.442 649.554 538.622 679.177 649.177C708.8 759.732 574.855 714.8 464.3 744.423V744.423Z" stroke="#3DC1F2" stroke-opacity="0.03" stroke-miterlimit="10"/>
<path d="M465.099 744.84C356.413 773.965 306.379 967.259 293.805 712.334C288.271 600.088 329.304 249.002 424.862 352.298C521.408 456.736 654.374 545.94 683.497 654.629C712.618 763.311 573.785 715.722 465.099 744.84V744.84Z" stroke="#3DC1F2" stroke-opacity="0.03" stroke-miterlimit="10"/>
<path d="M465.895 745.262C359.078 773.882 300.283 957.735 287.308 710.112C281.532 599.86 331.075 262.148 425.251 361.039C520.376 461.034 659.193 553.259 687.814 660.074C716.435 766.89 572.71 716.641 465.895 745.262Z" stroke="#3DC1F2" stroke-opacity="0.03" stroke-miterlimit="10"/>
<path d="M466.688 745.68C361.741 773.802 294.174 948.21 280.814 707.885C274.795 599.625 332.846 275.293 425.64 369.78C519.347 465.327 664.015 560.573 692.136 665.522C720.257 770.47 571.636 717.559 466.688 745.68V745.68Z" stroke="#3DC1F2" stroke-opacity="0.03" stroke-miterlimit="10"/>
<path d="M467.487 746.098C364.406 773.719 288.054 938.683 274.315 705.667C268.052 599.394 334.618 288.439 426.03 378.521C518.316 469.624 668.835 567.892 696.452 670.971C724.075 774.049 570.562 718.479 467.487 746.098V746.098Z" stroke="#3DC1F2" stroke-opacity="0.03" stroke-miterlimit="10"/>
<path d="M468.277 746.516C367.069 773.635 281.915 929.158 267.818 703.44C261.304 599.161 336.389 301.581 426.416 387.262C517.284 473.918 673.653 575.21 700.771 676.419C727.89 777.627 569.49 719.4 468.277 746.516V746.516Z" stroke="#3DC1F2" stroke-opacity="0.03" stroke-miterlimit="10"/>
<path d="M469.075 746.937C369.734 773.555 275.768 919.63 261.323 701.216C254.557 598.926 338.162 314.726 426.807 396.002C516.254 478.214 678.476 582.524 705.091 681.863C731.709 781.205 568.417 720.318 469.075 746.937V746.937Z" stroke="#3DC1F2" stroke-opacity="0.03" stroke-miterlimit="10"/>
<path d="M469.866 747.351C372.395 773.472 269.6 910.1 254.822 698.994C247.799 598.694 339.928 327.872 427.191 404.743C515.22 482.508 683.288 589.84 709.406 687.315C735.523 784.783 567.338 721.237 469.866 747.351V747.351Z" stroke="#3DC1F2" stroke-opacity="0.03" stroke-miterlimit="10"/>
<path d="M470.664 747.773C375.062 773.389 263.421 900.572 248.327 696.772C241.043 598.46 341.701 341.018 427.582 413.485C514.19 486.806 688.109 597.159 713.726 692.76C739.346 788.365 566.266 722.157 470.664 747.773Z" stroke="#3DC1F2" stroke-opacity="0.03" stroke-miterlimit="10"/>
<path d="M471.462 748.194C377.726 773.31 257.224 891.044 241.832 694.549C234.283 598.223 343.474 354.164 427.973 422.226C513.162 491.099 692.932 604.473 718.049 698.208C743.165 791.943 565.192 723.075 471.462 748.194Z" stroke="#3DC1F2" stroke-opacity="0.03" stroke-miterlimit="10"/>
<path d="M472.256 748.608C380.391 773.226 251.008 881.512 235.334 692.326C227.518 597.984 345.246 367.305 428.361 430.966C512.13 495.396 697.752 611.791 722.363 703.657C746.982 795.521 564.122 723.996 472.256 748.608Z" stroke="#3DC1F2" stroke-opacity="0.03" stroke-miterlimit="10"/>
<path d="M473.051 749.03C383.055 773.143 244.77 871.984 228.836 690.104C220.744 597.747 347.016 380.451 428.749 439.708C511.099 499.69 702.57 619.11 726.684 709.105C750.798 799.1 563.046 724.916 473.051 749.03Z" stroke="#3DC1F2" stroke-opacity="0.03" stroke-miterlimit="10"/>
<path d="M473.843 749.449C385.717 773.064 238.514 862.451 222.339 687.881C213.966 597.506 348.787 393.597 429.137 448.449C510.067 503.987 707.391 626.424 731.001 714.55C754.615 802.678 561.971 725.835 473.843 749.449V749.449Z" stroke="#3DC1F2" stroke-opacity="0.03" stroke-miterlimit="10"/>
<path d="M474.639 749.865C388.38 772.98 232.233 852.92 215.84 685.658C207.176 597.27 350.556 406.742 429.522 457.193C509.036 508.28 712.209 633.742 735.321 719.997C758.43 806.256 560.894 726.753 474.639 749.865V749.865Z" stroke="#3DC1F2" stroke-opacity="0.03" stroke-miterlimit="10"/>
<path d="M475.436 750.286C391.045 772.896 225.93 843.392 209.343 683.435C200.381 597.031 352.329 419.883 429.91 465.934C508.004 512.577 717.024 641.057 739.64 725.448C762.252 809.836 559.824 727.674 475.436 750.286Z" stroke="#3DC1F2" stroke-opacity="0.03" stroke-miterlimit="10"/>
<path d="M476.229 750.705C393.71 772.818 219.602 833.866 202.847 681.213C193.579 596.792 354.101 433.03 430.301 474.676C506.975 516.871 721.848 648.372 743.959 730.894C766.071 813.415 558.751 728.594 476.229 750.705V750.705Z" stroke="#3DC1F2" stroke-opacity="0.03" stroke-miterlimit="10"/>
<path d="M477.025 751.122C396.372 772.734 213.246 824.336 196.348 678.989C186.764 596.548 355.87 446.175 430.687 483.416C505.941 521.168 726.665 655.69 748.274 736.338C769.886 816.993 557.674 729.512 477.025 751.122Z" stroke="#3DC1F2" stroke-opacity="0.03" stroke-miterlimit="10"/>
<path d="M477.817 751.541C399.037 772.65 206.861 814.811 189.851 676.767C179.935 596.311 357.64 459.321 431.075 492.158C504.911 525.462 731.484 663.009 752.593 741.79C773.703 820.571 556.599 730.431 477.817 751.541V751.541Z" stroke="#3DC1F2" stroke-opacity="0.03" stroke-miterlimit="10"/>
<path d="M478.613 751.962C401.699 772.571 200.447 805.285 183.354 674.545C173.094 596.073 359.414 472.463 431.464 500.899C503.879 529.76 736.305 670.323 756.915 747.238C777.52 824.15 555.528 731.353 478.613 751.962V751.962Z" stroke="#3DC1F2" stroke-opacity="0.03" stroke-miterlimit="10"/>
<path d="M479.409 752.377C404.365 772.488 193.999 795.767 176.858 672.322C166.236 595.835 361.186 485.609 431.854 509.64C502.851 534.053 741.126 677.642 761.233 752.683C781.338 827.729 554.454 732.272 479.409 752.377V752.377Z" stroke="#3DC1F2" stroke-opacity="0.03" stroke-miterlimit="10"/>
<path d="M480.204 752.798C407.03 772.405 187.514 786.25 170.36 670.099C159.356 595.602 362.955 498.754 432.242 518.381C501.818 538.35 745.945 684.96 765.552 758.135C785.159 831.309 553.379 733.191 480.204 752.798V752.798Z" stroke="#3DC1F2" stroke-opacity="0.03" stroke-miterlimit="10"/>
<path d="M481 753.219C409.692 772.325 180.991 776.738 163.863 667.876C152.455 595.367 364.726 511.9 432.63 527.122C500.788 542.643 750.762 692.272 769.869 763.579C788.976 834.887 552.304 734.109 481 753.219Z" stroke="#3DC1F2" stroke-opacity="0.03" stroke-miterlimit="10"/>
<path d="M481.797 753.633C412.36 772.242 174.429 767.235 157.368 665.654C145.525 595.142 366.5 525.046 433.021 535.863C499.759 546.941 755.584 699.59 774.193 769.027C792.796 838.466 551.232 735.029 481.797 753.633Z" stroke="#3DC1F2" stroke-opacity="0.03" stroke-miterlimit="10"/>
<path d="M482.593 754.055C415.024 772.159 167.819 757.74 150.87 663.432C138.557 594.925 368.272 538.188 433.41 544.604C498.728 551.235 760.402 706.909 778.507 774.477C796.612 842.044 550.16 735.95 482.593 754.055V754.055Z" stroke="#3DC1F2" stroke-opacity="0.03" stroke-miterlimit="10"/>
<path d="M483.384 754.473C417.688 772.075 161.162 748.256 144.373 661.208C131.547 594.715 370.042 551.333 433.798 553.345C497.696 555.532 765.224 714.223 782.828 779.924C800.429 845.622 549.085 736.868 483.384 754.473Z" stroke="#3DC1F2" stroke-opacity="0.03" stroke-miterlimit="10"/>
<path d="M484.181 754.89C420.348 771.995 154.45 738.79 137.873 658.986C124.481 594.518 371.811 564.479 434.182 562.09C496.664 559.825 770.041 721.541 787.143 785.369C804.248 849.203 548.008 737.787 484.181 754.89V754.89Z" stroke="#3DC1F2" stroke-opacity="0.03" stroke-miterlimit="10"/>
<path d="M484.972 755.309C423.012 771.913 147.686 729.344 131.375 656.763C117.347 594.342 373.58 577.625 434.57 570.831C495.631 564.123 774.859 728.86 791.462 790.821C808.064 852.782 546.933 738.707 484.972 755.309Z" stroke="#3DC1F2" stroke-opacity="0.03" stroke-miterlimit="10"/>
<path d="M485.769 755.73C425.678 771.829 140.866 719.923 124.879 654.541C110.125 594.196 375.355 590.767 434.96 579.572C494.602 568.416 779.682 736.174 795.78 796.266C811.882 856.36 545.863 739.628 485.769 755.73Z" stroke="#3DC1F2" stroke-opacity="0.03" stroke-miterlimit="10"/>
<path d="M486.569 756.146C428.342 771.749 133.985 710.539 118.383 652.317C102.782 594.096 377.127 603.912 435.35 588.312C493.574 572.709 784.499 743.489 800.103 801.713C815.701 859.938 544.79 740.546 486.569 756.146Z" stroke="#3DC1F2" stroke-opacity="0.03" stroke-miterlimit="10"/>
<path d="M-176.025 420.127C8.75139 420.127 134.395 551.66 134.395 366.883C134.395 182.11 -77.5899 -105.94 -200.167 32.3204C-472.956 340.004 -534.732 182.11 -534.732 366.883C-534.732 551.66 -360.798 420.127 -176.025 420.127V420.127Z" stroke="#3DC1F2" stroke-opacity="0.03" stroke-miterlimit="10"/>
<path d="M-176.831 417.746C4.92279 417.746 136.723 542.56 136.723 360.802C136.723 179.051 -79.0139 -96.2927 -200.167 37.7911C-468.057 334.266 -536.742 191.829 -536.742 373.582C-536.742 555.335 -358.584 417.746 -176.831 417.746Z" stroke="#3DC1F2" stroke-opacity="0.03" stroke-miterlimit="10"/>
<path d="M-177.635 415.365C1.09986 415.365 139.047 533.456 139.047 354.722C139.047 175.992 -80.4227 -86.6507 -200.166 43.2626C-463.114 328.537 -538.751 201.549 -538.751 380.282C-538.751 559.012 -356.364 415.365 -177.635 415.365V415.365Z" stroke="#3DC1F2" stroke-opacity="0.03" stroke-miterlimit="10"/>
<path d="M-178.44 412.988C-2.72873 412.988 141.375 524.352 141.375 348.641C141.375 172.932 -81.8134 -77.0164 -200.167 48.7329C-458.129 322.815 -540.761 211.267 -540.761 386.976C-540.761 562.687 -354.151 412.988 -178.44 412.988Z" stroke="#3DC1F2" stroke-opacity="0.03" stroke-miterlimit="10"/>
<path d="M-179.244 410.608C-6.55166 410.608 143.699 515.253 143.699 342.561C143.699 169.874 -83.1888 -67.3864 -200.166 54.2047C-453.095 317.106 -542.769 220.986 -542.769 393.676C-542.769 566.364 -351.931 410.608 -179.244 410.608Z" stroke="#3DC1F2" stroke-opacity="0.03" stroke-miterlimit="10"/>
<path d="M-180.049 408.228C-10.3802 408.228 146.027 506.149 146.027 336.483C146.027 166.816 -84.5414 -57.7624 -200.166 59.6761C-448.01 311.408 -544.779 230.705 -544.779 400.371C-544.779 570.04 -349.717 408.228 -180.049 408.228V408.228Z" stroke="#3DC1F2" stroke-opacity="0.03" stroke-miterlimit="10"/>
<path d="M-180.853 405.847C-14.2079 405.847 148.352 497.05 148.352 330.402C148.352 163.756 -85.8741 -48.1447 -200.166 65.1465C-442.872 305.725 -546.788 240.424 -546.788 407.07C-546.788 573.715 -347.498 405.847 -180.853 405.847V405.847Z" stroke="#3DC1F2" stroke-opacity="0.03" stroke-miterlimit="10"/>
<path d="M-181.658 403.466C-18.0317 403.466 150.68 487.945 150.68 324.321C150.68 160.697 -87.1838 -38.5317 -200.166 70.6175C-437.668 300.061 -548.797 250.143 -548.797 413.765C-548.797 577.391 -345.279 403.466 -181.658 403.466V403.466Z" stroke="#3DC1F2" stroke-opacity="0.03" stroke-miterlimit="10"/>
<path d="M-182.462 401.085C-21.8594 401.085 153.004 478.841 153.004 318.241C153.004 157.638 -88.4688 -28.9224 -200.165 76.0884C-432.401 294.419 -550.806 259.862 -550.806 420.465C-550.806 581.067 -343.064 401.085 -182.462 401.085Z" stroke="#3DC1F2" stroke-opacity="0.03" stroke-miterlimit="10"/>
<path d="M-183.267 398.705C-25.6833 398.705 155.332 469.742 155.332 312.16C155.332 154.579 -89.7261 -19.316 -200.166 81.5594C-427.063 288.804 -552.811 269.581 -552.811 427.16C-552.811 584.743 -340.846 398.705 -183.267 398.705V398.705Z" stroke="#3DC1F2" stroke-opacity="0.03" stroke-miterlimit="10"/>
<path d="M-184.071 396.328C-29.5109 396.328 157.656 460.638 157.656 306.079C157.656 151.519 -90.954 -9.71202 -200.165 87.0304C-421.649 283.219 -554.82 279.299 -554.82 433.859C-554.82 588.419 -338.631 396.328 -184.071 396.328Z" stroke="#3DC1F2" stroke-opacity="0.03" stroke-miterlimit="10"/>
<path d="M-184.876 393.948C-33.3395 393.948 159.984 451.539 159.984 299.999C159.984 148.461 -92.1447 -0.107067 -200.165 92.5014C-416.149 277.671 -556.83 289.019 -556.83 440.559C-556.83 592.095 -336.412 393.948 -184.876 393.948V393.948Z" stroke="#3DC1F2" stroke-opacity="0.03" stroke-miterlimit="10"/>
<path d="M-185.68 391.567C-37.1625 391.567 162.309 442.435 162.309 293.919C162.309 145.402 -93.3059 9.49997 -200.165 97.973C-410.568 272.166 -558.838 298.738 -558.838 447.253C-558.838 595.771 -334.198 391.567 -185.68 391.567Z" stroke="#3DC1F2" stroke-opacity="0.03" stroke-miterlimit="10"/>
<path d="M-186.485 389.186C-40.991 389.186 164.637 433.33 164.637 287.838C164.637 142.343 -94.4252 19.1112 -200.165 103.443C-404.888 266.712 -560.848 308.456 -560.848 453.953C-560.848 599.447 -331.979 389.186 -186.485 389.186V389.186Z" stroke="#3DC1F2" stroke-opacity="0.03" stroke-miterlimit="10"/>
<path d="M-187.289 386.806C-44.814 386.806 166.961 424.231 166.961 281.758C166.961 139.284 -95.5007 28.733 -200.164 108.915C-399.107 261.318 -562.857 318.175 -562.857 460.648C-562.857 603.123 -329.764 386.806 -187.289 386.806V386.806Z" stroke="#3DC1F2" stroke-opacity="0.03" stroke-miterlimit="10"/>
<path d="M-188.097 384.425C-48.6456 384.425 169.281 415.127 169.281 275.676C169.281 136.225 -96.5325 38.3671 -200.168 114.385C-393.225 255.993 -564.87 327.894 -564.87 467.347C-564.87 606.799 -327.549 384.425 -188.097 384.425V384.425Z" stroke="#3DC1F2" stroke-opacity="0.03" stroke-miterlimit="10"/>
<path d="M-188.898 382.044C-52.4703 382.044 171.613 406.028 171.613 269.596C171.613 133.166 -97.505 48.0219 -200.164 119.857C-387.222 250.75 -566.875 337.614 -566.875 474.042C-566.875 610.475 -325.331 382.044 -188.898 382.044V382.044Z" stroke="#3DC1F2" stroke-opacity="0.03" stroke-miterlimit="10"/>
<path d="M-189.706 379.667C-56.297 379.667 173.934 396.923 173.934 263.515C173.934 130.106 -98.4368 57.703 -200.167 125.327C-381.106 245.601 -568.888 347.332 -568.888 480.741C-568.888 614.15 -323.115 379.667 -189.706 379.667Z" stroke="#3DC1F2" stroke-opacity="0.03" stroke-miterlimit="10"/>
<path d="M-190.511 377.287C-60.1257 377.287 176.262 387.819 176.262 257.435C176.262 127.048 -99.3037 67.4225 -200.168 130.798C-374.869 240.563 -570.898 357.05 -570.898 487.436C-570.898 617.826 -320.897 377.287 -190.511 377.287V377.287Z" stroke="#3DC1F2" stroke-opacity="0.03" stroke-miterlimit="10"/>
<path d="M-191.315 374.906C-63.9486 374.906 178.586 378.72 178.586 251.354C178.586 123.988 -100.103 77.1909 -200.167 136.269C-368.498 235.651 -572.906 366.768 -572.906 494.135C-572.906 621.502 -318.682 374.906 -191.315 374.906V374.906Z" stroke="#3DC1F2" stroke-opacity="0.03" stroke-miterlimit="10"/>
<path d="M-192.12 372.525C-67.7772 372.525 180.914 369.616 180.914 245.274C180.914 120.929 -100.841 87.0252 -200.167 141.74C-361.998 230.886 -574.911 376.487 -574.911 500.835C-574.911 625.178 -316.464 372.525 -192.12 372.525Z" stroke="#3DC1F2" stroke-opacity="0.03" stroke-miterlimit="10"/>
<path d="M-192.925 370.144C-71.6049 370.144 183.238 360.516 183.238 239.193C183.238 117.87 -101.512 96.9439 -200.167 147.211C-355.375 226.291 -576.92 386.21 -576.92 507.529C-576.92 628.854 -314.249 370.144 -192.925 370.144Z" stroke="#3DC1F2" stroke-opacity="0.03" stroke-miterlimit="10"/>
<path d="M-193.729 367.764C-75.4287 367.764 185.566 351.413 185.566 233.113C185.566 114.812 -102.108 106.973 -200.167 152.683C-348.632 221.888 -578.93 395.929 -578.93 514.23C-578.93 632.531 -312.03 367.764 -193.729 367.764V367.764Z" stroke="#3DC1F2" stroke-opacity="0.03" stroke-miterlimit="10"/>
<path d="M-194.534 365.388C-79.2564 365.388 187.891 342.313 187.891 227.032C187.891 111.753 -102.636 117.141 -200.167 158.153C-341.78 217.701 -580.939 405.647 -580.939 520.924C-580.939 636.206 -309.816 365.388 -194.534 365.388V365.388Z" stroke="#3DC1F2" stroke-opacity="0.03" stroke-miterlimit="10"/>
<path d="M-195.339 363.007C-83.0802 363.007 190.219 333.209 190.219 220.951C190.219 108.693 -103.098 127.487 -200.167 163.625C-334.843 213.761 -582.948 415.365 -582.948 527.623C-582.948 639.882 -307.597 363.007 -195.339 363.007V363.007Z" stroke="#3DC1F2" stroke-opacity="0.03" stroke-miterlimit="10"/>
<path d="M-196.143 360.627C-86.9079 360.627 192.543 324.107 192.543 214.871C192.543 105.634 -103.507 138.059 -200.166 169.096C-327.843 210.091 -584.957 425.084 -584.957 534.318C-584.957 643.558 -305.382 360.626 -196.143 360.627V360.627Z" stroke="#3DC1F2" stroke-opacity="0.03" stroke-miterlimit="10"/>
<path d="M-196.948 358.246C-90.7365 358.246 194.871 315.005 194.871 208.79C194.871 102.575 -103.883 148.912 -200.166 174.567C-320.839 206.719 -586.966 434.802 -586.966 541.018C-586.967 647.234 -303.164 358.246 -196.948 358.246Z" stroke="#3DC1F2" stroke-opacity="0.03" stroke-miterlimit="10"/>
<path d="M-197.752 355.865C-94.5594 355.865 197.195 305.903 197.195 202.71C197.195 99.5164 -104.263 160.11 -200.166 180.038C-313.881 203.666 -588.976 444.52 -588.976 547.713C-588.976 650.91 -300.944 355.865 -197.752 355.865V355.865Z" stroke="#3DC1F2" stroke-opacity="0.03" stroke-miterlimit="10"/>
<path d="M-198.557 353.484C-98.388 353.484 199.523 296.8 199.523 196.629C199.523 96.4571 -104.692 171.723 -200.166 185.509C-307.063 200.942 -590.985 454.238 -590.985 554.412C-590.985 654.585 -298.73 353.484 -198.557 353.484V353.484Z" stroke="#3DC1F2" stroke-opacity="0.03" stroke-miterlimit="10"/>
<path d="M-199.361 351.104C-102.211 351.104 201.848 287.699 201.848 190.549C201.848 93.3989 -105.249 183.821 -200.166 190.98C-300.492 198.546 -592.994 463.962 -592.994 561.112C-592.994 658.262 -296.511 351.104 -199.361 351.104V351.104Z" stroke="#3DC1F2" stroke-opacity="0.03" stroke-miterlimit="10"/>
<path d="M-200.166 348.727C-106.039 348.727 204.176 278.596 204.176 184.467C204.176 90.339 -106.039 196.451 -200.166 196.451C-294.297 196.451 -594.999 473.68 -594.999 567.806C-594.999 661.938 -294.297 348.727 -200.166 348.727V348.727Z" stroke="#3DC1F2" stroke-opacity="0.03" stroke-miterlimit="10"/>
<path d="M-119.469 351.522C-35.7989 267.856 168.039 358.036 -66.049 209.834C-166.023 146.54 -512.578 -35.623 -461.539 108.979C-409.938 255.166 -398.244 395.191 -314.574 478.856C-230.908 562.526 -203.134 435.192 -119.469 351.522Z" stroke="#3DC1F2" stroke-opacity="0.03" stroke-miterlimit="10"/>
<path d="M-119.501 352.422C-37.2019 270.122 162.979 347.78 -64.7237 203.096C-162.788 140.491 -502.077 -27.5167 -454.162 113.686C-405.703 256.42 -394.314 403.023 -312.015 485.322C-229.716 567.621 -201.799 434.721 -119.501 352.422Z" stroke="#3DC1F2" stroke-opacity="0.03" stroke-miterlimit="10"/>
<path d="M-119.533 353.317C-38.6007 272.388 157.613 338.004 -63.3988 196.357C-159.682 134.651 -491.577 -19.4107 -446.78 118.393C-401.464 257.675 -390.389 410.851 -309.457 491.783C-228.525 572.715 -200.465 434.249 -119.533 353.317V353.317Z" stroke="#3DC1F2" stroke-opacity="0.03" stroke-miterlimit="10"/>
<path d="M-119.573 354.217C-40.0071 274.655 152.407 327.971 -62.0769 189.619C-156.518 128.703 -481.084 -11.304 -439.406 123.1C-397.233 258.93 -386.463 418.684 -306.897 498.25C-227.336 577.81 -199.134 433.783 -119.573 354.217V354.217Z" stroke="#3DC1F2" stroke-opacity="0.03" stroke-miterlimit="10"/>
<path d="M-119.605 355.117C-41.4111 276.92 147.208 317.929 -60.7525 182.881C-153.346 122.753 -470.584 -3.19783 -432.03 127.806C-392.995 260.185 -382.534 426.516 -304.339 504.711C-226.145 582.905 -197.8 433.311 -119.605 355.117Z" stroke="#3DC1F2" stroke-opacity="0.03" stroke-miterlimit="10"/>
<path d="M-119.639 356.012C-42.8116 279.187 142.013 307.876 -59.4342 176.143C-150.18 116.801 -460.086 4.90876 -424.655 132.514C-388.762 261.44 -378.611 434.35 -301.783 511.177C-224.955 588.005 -196.467 432.84 -119.639 356.012V356.012Z" stroke="#3DC1F2" stroke-opacity="0.03" stroke-miterlimit="10"/>
<path d="M-119.678 356.912C-44.217 281.452 136.822 297.811 -58.1064 169.405C-147.009 110.844 -449.587 13.0144 -417.28 137.221C-384.525 262.694 -374.683 442.182 -299.222 517.638C-223.766 593.099 -195.134 432.368 -119.678 356.912V356.912Z" stroke="#3DC1F2" stroke-opacity="0.03" stroke-miterlimit="10"/>
<path d="M-119.711 357.808C-45.6208 283.719 131.642 287.735 -56.7866 162.668C-143.837 104.887 -439.092 21.1218 -409.904 141.928C-380.291 263.95 -370.754 450.015 -296.664 524.105C-222.575 598.195 -193.8 431.903 -119.711 357.808V357.808Z" stroke="#3DC1F2" stroke-opacity="0.03" stroke-miterlimit="10"/>
<path d="M-119.741 358.707C-47.0182 285.985 126.469 277.645 -55.4604 155.929C-140.664 98.9242 -428.59 29.2279 -402.525 146.635C-376.051 265.204 -366.828 457.848 -294.105 530.566C-221.382 603.289 -192.465 431.431 -119.741 358.707V358.707Z" stroke="#3DC1F2" stroke-opacity="0.03" stroke-miterlimit="10"/>
<path d="M-119.78 359.602C-48.4237 288.25 121.297 267.541 -54.1376 149.191C-137.489 92.9581 -418.092 37.3336 -395.151 151.341C-371.819 266.459 -362.901 465.675 -291.544 537.032C-220.192 608.384 -191.132 430.959 -119.78 359.602V359.602Z" stroke="#3DC1F2" stroke-opacity="0.03" stroke-miterlimit="10"/>
<path d="M-119.814 360.502C-49.829 290.517 116.135 257.424 -52.8145 142.453C-134.313 86.9886 -407.593 45.4398 -387.776 156.048C-367.582 267.714 -358.973 473.508 -288.988 543.494C-219.002 613.484 -189.8 430.488 -119.814 360.502Z" stroke="#3DC1F2" stroke-opacity="0.03" stroke-miterlimit="10"/>
<path d="M-119.85 361.402C-51.2312 292.783 110.981 247.292 -51.4931 135.715C-131.14 81.0143 -397.096 53.5463 -380.402 160.756C-363.351 268.969 -355.052 481.341 -286.433 549.96C-217.814 618.579 -188.469 430.016 -119.85 361.402Z" stroke="#3DC1F2" stroke-opacity="0.03" stroke-miterlimit="10"/>
<path d="M-119.885 362.298C-52.6328 295.049 105.836 237.143 -50.1664 128.976C-127.961 75.0361 -386.599 61.6528 -373.024 165.463C-359.11 270.224 -351.12 489.174 -283.868 556.422C-216.621 623.674 -187.132 429.55 -119.885 362.298Z" stroke="#3DC1F2" stroke-opacity="0.03" stroke-miterlimit="10"/>
<path d="M-119.921 363.198C-54.0397 297.315 100.701 226.977 -48.8449 122.239C-124.782 69.0517 -376.102 69.7593 -365.65 170.17C-354.879 271.479 -347.194 497.007 -281.314 562.888C-215.433 628.769 -185.801 429.079 -119.921 363.198Z" stroke="#3DC1F2" stroke-opacity="0.03" stroke-miterlimit="10"/>
<path d="M-119.952 364.093C-55.4373 299.582 95.5754 216.794 -47.5188 115.501C-121.599 63.0617 -365.6 77.8659 -358.272 174.877C-350.639 272.733 -343.269 504.84 -278.754 569.349C-214.24 633.864 -184.466 428.607 -119.952 364.093V364.093Z" stroke="#3DC1F2" stroke-opacity="0.03" stroke-miterlimit="10"/>
<path d="M-119.991 364.992C-56.8428 301.847 90.4607 206.59 -46.196 108.761C-118.41 57.0643 -355.102 85.9712 -350.893 179.583C-346.407 273.988 -339.341 512.672 -276.198 575.815C-213.05 638.958 -183.134 428.135 -119.991 364.992V364.992Z" stroke="#3DC1F2" stroke-opacity="0.03" stroke-miterlimit="10"/>
<path d="M-120.023 365.893C-58.2466 304.113 85.3619 196.367 -44.8714 102.024C-115.219 51.061 -344.607 94.0779 -343.516 184.291C-342.169 275.243 -335.412 520.5 -273.636 582.281C-211.859 644.058 -181.799 427.669 -120.023 365.893Z" stroke="#3DC1F2" stroke-opacity="0.03" stroke-miterlimit="10"/>
<path d="M-120.057 366.787C-59.6468 306.379 80.2763 186.122 -43.548 95.2852C-112.024 45.0479 -334.108 102.184 -336.141 188.997C-337.936 276.497 -331.489 528.332 -271.079 588.742C-210.669 649.152 -180.467 427.197 -120.057 366.787V366.787Z" stroke="#3DC1F2" stroke-opacity="0.03" stroke-miterlimit="10"/>
<path d="M-120.095 367.688C-61.0513 308.646 75.2006 175.855 -42.224 88.5478C-108.829 39.0272 -323.608 110.291 -328.765 193.705C-333.698 277.753 -327.56 536.166 -268.522 595.204C-209.478 654.248 -179.133 426.726 -120.095 367.688Z" stroke="#3DC1F2" stroke-opacity="0.03" stroke-miterlimit="10"/>
<path d="M-120.127 368.582C-62.4554 310.911 70.1444 165.563 -40.8998 81.8092C-105.619 32.9942 -313.108 118.397 -321.389 198.411C-329.464 279.007 -323.631 543.998 -265.959 601.67C-208.288 659.342 -177.799 426.254 -120.127 368.582V368.582Z" stroke="#3DC1F2" stroke-opacity="0.03" stroke-miterlimit="10"/>
<path d="M-120.161 369.483C-63.8561 313.178 65.1011 155.246 -39.5769 75.0714C-102.406 26.9502 -302.615 126.503 -314.014 203.119C-325.227 280.262 -319.709 551.831 -263.403 608.136C-207.098 664.437 -176.467 425.788 -120.161 369.483V369.483Z" stroke="#3DC1F2" stroke-opacity="0.03" stroke-miterlimit="10"/>
</g>
<defs>
<clipPath id="clip0_667_119662">
<rect width="375" height="812" fill="white"/>
</clipPath>
</defs>
</svg>
