<svg width="126" height="21" viewBox="0 0 126 21" fill="none" xmlns="http://www.w3.org/2000/svg">
<rect width="126" height="21" rx="6" fill="#65AFD6"/>
<path d="M14.6209 8.17V14H13.6199V13.12C13.4073 13.4207 13.1249 13.6553 12.7729 13.824C12.4283 13.9853 12.0506 14.066 11.6399 14.066C10.8626 14.066 10.2503 13.8533 9.80294 13.428C9.3556 12.9953 9.13194 12.361 9.13194 11.525V8.17H10.1879V11.404C10.1879 11.9687 10.3236 12.3977 10.5949 12.691C10.8663 12.977 11.2549 13.12 11.7609 13.12C12.3183 13.12 12.7583 12.9513 13.0809 12.614C13.4036 12.2767 13.5649 11.8 13.5649 11.184V8.17H14.6209ZM16.3313 5.838H17.3873V14H16.3313V5.838ZM22.5212 13.659C22.3672 13.791 22.1765 13.8937 21.9492 13.967C21.7219 14.033 21.4872 14.066 21.2452 14.066C20.6585 14.066 20.2039 13.9083 19.8812 13.593C19.5585 13.2777 19.3972 12.8267 19.3972 12.24V9.039H18.4072V8.17H19.3972V6.894H20.4532V8.17H22.1252V9.039H20.4532V12.196C20.4532 12.5113 20.5302 12.7533 20.6842 12.922C20.8455 13.0907 21.0729 13.175 21.3662 13.175C21.6889 13.175 21.9639 13.0833 22.1912 12.9L22.5212 13.659ZM24.5099 9.149C24.6932 8.81167 24.9645 8.555 25.3239 8.379C25.6832 8.203 26.1195 8.115 26.6329 8.115V9.138C26.5742 9.13067 26.4935 9.127 26.3909 9.127C25.8189 9.127 25.3679 9.29933 25.0379 9.644C24.7152 9.98133 24.5539 10.4653 24.5539 11.096V14H23.4979V8.17H24.5099V9.149ZM29.7467 8.115C30.5533 8.115 31.1693 8.313 31.5947 8.709C32.0273 9.105 32.2437 9.69533 32.2437 10.48V14H31.2427V13.23C31.0667 13.5013 30.8137 13.7103 30.4837 13.857C30.161 13.9963 29.776 14.066 29.3287 14.066C28.676 14.066 28.1517 13.9083 27.7557 13.593C27.367 13.2777 27.1727 12.8633 27.1727 12.35C27.1727 11.8367 27.3597 11.426 27.7337 11.118C28.1077 10.8027 28.7017 10.645 29.5157 10.645H31.1877V10.436C31.1877 9.98133 31.0557 9.633 30.7917 9.391C30.5277 9.149 30.139 9.028 29.6257 9.028C29.281 9.028 28.9437 9.08667 28.6137 9.204C28.2837 9.314 28.005 9.46433 27.7777 9.655L27.3377 8.863C27.6383 8.621 27.9977 8.43767 28.4157 8.313C28.8337 8.181 29.2773 8.115 29.7467 8.115ZM29.5047 13.252C29.908 13.252 30.2563 13.164 30.5497 12.988C30.843 12.8047 31.0557 12.548 31.1877 12.218V11.404H29.5597C28.665 11.404 28.2177 11.7047 28.2177 12.306C28.2177 12.5993 28.3313 12.8303 28.5587 12.999C28.786 13.1677 29.1013 13.252 29.5047 13.252ZM37.0109 8.115C37.7515 8.115 38.3382 8.33133 38.7709 8.764C39.2109 9.18933 39.4309 9.81633 39.4309 10.645V14H38.3749V10.766C38.3749 10.2013 38.2392 9.776 37.9679 9.49C37.6965 9.204 37.3079 9.061 36.8019 9.061C36.2299 9.061 35.7789 9.22967 35.4489 9.567C35.1189 9.897 34.9539 10.3737 34.9539 10.997V14H33.8979V8.17H34.9099V9.05C35.1225 8.74933 35.4085 8.51833 35.7679 8.357C36.1345 8.19567 36.5489 8.115 37.0109 8.115ZM46.3864 11.118C46.3864 11.1987 46.3791 11.305 46.3644 11.437H41.6344C41.7004 11.9503 41.9241 12.3647 42.3054 12.68C42.6941 12.988 43.1744 13.142 43.7464 13.142C44.4431 13.142 45.0041 12.9073 45.4294 12.438L46.0124 13.12C45.7484 13.428 45.4184 13.6627 45.0224 13.824C44.6337 13.9853 44.1974 14.066 43.7134 14.066C43.0974 14.066 42.5511 13.9413 42.0744 13.692C41.5977 13.4353 41.2274 13.0797 40.9634 12.625C40.7067 12.1703 40.5784 11.657 40.5784 11.085C40.5784 10.5203 40.7031 10.0107 40.9524 9.556C41.2091 9.10133 41.5574 8.74933 41.9974 8.5C42.4447 8.24333 42.9471 8.115 43.5044 8.115C44.0617 8.115 44.5567 8.24333 44.9894 8.5C45.4294 8.74933 45.7704 9.10133 46.0124 9.556C46.2617 10.0107 46.3864 10.5313 46.3864 11.118ZM43.5044 9.006C42.9984 9.006 42.5731 9.16 42.2284 9.468C41.8911 9.776 41.6931 10.1793 41.6344 10.678H45.3744C45.3157 10.1867 45.1141 9.787 44.7694 9.479C44.4321 9.16367 44.0104 9.006 43.5044 9.006ZM50.8308 13.659C50.6768 13.791 50.4861 13.8937 50.2588 13.967C50.0314 14.033 49.7968 14.066 49.5548 14.066C48.9681 14.066 48.5134 13.9083 48.1908 13.593C47.8681 13.2777 47.7068 12.8267 47.7068 12.24V9.039H46.7168V8.17H47.7068V6.894H48.7628V8.17H50.4348V9.039H48.7628V12.196C48.7628 12.5113 48.8398 12.7533 48.9938 12.922C49.1551 13.0907 49.3824 13.175 49.6758 13.175C49.9984 13.175 50.2734 13.0833 50.5008 12.9L50.8308 13.659ZM54.1111 14.066C53.5317 14.066 53.0111 13.9377 52.5491 13.681C52.0871 13.4243 51.7241 13.0723 51.4601 12.625C51.2034 12.1703 51.0751 11.657 51.0751 11.085C51.0751 10.513 51.2034 10.0033 51.4601 9.556C51.7241 9.10133 52.0871 8.74933 52.5491 8.5C53.0111 8.24333 53.5317 8.115 54.1111 8.115C54.6904 8.115 55.2074 8.24333 55.6621 8.5C56.1241 8.74933 56.4834 9.10133 56.7401 9.556C57.0041 10.0033 57.1361 10.513 57.1361 11.085C57.1361 11.657 57.0041 12.1703 56.7401 12.625C56.4834 13.0723 56.1241 13.4243 55.6621 13.681C55.2074 13.9377 54.6904 14.066 54.1111 14.066ZM54.1111 13.142C54.4851 13.142 54.8187 13.0577 55.1121 12.889C55.4127 12.713 55.6474 12.471 55.8161 12.163C55.9847 11.8477 56.0691 11.4883 56.0691 11.085C56.0691 10.6817 55.9847 10.326 55.8161 10.018C55.6474 9.70267 55.4127 9.46067 55.1121 9.292C54.8187 9.12333 54.4851 9.039 54.1111 9.039C53.7371 9.039 53.3997 9.12333 53.0991 9.292C52.8057 9.46067 52.5711 9.70267 52.3951 10.018C52.2264 10.326 52.1421 10.6817 52.1421 11.085C52.1421 11.4883 52.2264 11.8477 52.3951 12.163C52.5711 12.471 52.8057 12.713 53.0991 12.889C53.3997 13.0577 53.7371 13.142 54.1111 13.142ZM59.3085 9.149C59.4918 8.81167 59.7632 8.555 60.1225 8.379C60.4818 8.203 60.9182 8.115 61.4315 8.115V9.138C61.3728 9.13067 61.2922 9.127 61.1895 9.127C60.6175 9.127 60.1665 9.29933 59.8365 9.644C59.5138 9.98133 59.3525 10.4653 59.3525 11.096V14H58.2965V8.17H59.3085V9.149ZM67.9563 8.17V13.208C67.9563 14.2273 67.7033 14.979 67.1973 15.463C66.6913 15.9543 65.936 16.2 64.9313 16.2C64.3813 16.2 63.857 16.123 63.3583 15.969C62.8597 15.8223 62.4563 15.6097 62.1483 15.331L62.6543 14.517C62.9257 14.7517 63.2593 14.935 63.6553 15.067C64.0587 15.2063 64.473 15.276 64.8983 15.276C65.5803 15.276 66.0827 15.1147 66.4053 14.792C66.7353 14.4693 66.9003 13.978 66.9003 13.318V12.856C66.651 13.1567 66.343 13.384 65.9763 13.538C65.617 13.6847 65.2247 13.758 64.7993 13.758C64.242 13.758 63.736 13.6407 63.2813 13.406C62.834 13.164 62.482 12.8303 62.2253 12.405C61.9687 11.9723 61.8403 11.481 61.8403 10.931C61.8403 10.381 61.9687 9.89333 62.2253 9.468C62.482 9.03533 62.834 8.70167 63.2813 8.467C63.736 8.23233 64.242 8.115 64.7993 8.115C65.2393 8.115 65.6463 8.19567 66.0203 8.357C66.4017 8.51833 66.7133 8.75667 66.9553 9.072V8.17H67.9563ZM64.9203 12.834C65.3017 12.834 65.6427 12.7533 65.9433 12.592C66.2513 12.4307 66.4897 12.207 66.6583 11.921C66.8343 11.6277 66.9223 11.2977 66.9223 10.931C66.9223 10.3663 66.7353 9.91167 66.3613 9.567C65.9873 9.215 65.507 9.039 64.9203 9.039C64.3263 9.039 63.8423 9.215 63.4683 9.567C63.0943 9.91167 62.9073 10.3663 62.9073 10.931C62.9073 11.2977 62.9917 11.6277 63.1603 11.921C63.3363 12.207 63.5747 12.4307 63.8753 12.592C64.1833 12.7533 64.5317 12.834 64.9203 12.834ZM71.797 8.115C72.6037 8.115 73.2197 8.313 73.645 8.709C74.0777 9.105 74.294 9.69533 74.294 10.48V14H73.293V13.23C73.117 13.5013 72.864 13.7103 72.534 13.857C72.2114 13.9963 71.8264 14.066 71.379 14.066C70.7264 14.066 70.202 13.9083 69.806 13.593C69.4174 13.2777 69.223 12.8633 69.223 12.35C69.223 11.8367 69.41 11.426 69.784 11.118C70.158 10.8027 70.752 10.645 71.566 10.645H73.238V10.436C73.238 9.98133 73.106 9.633 72.842 9.391C72.578 9.149 72.1894 9.028 71.676 9.028C71.3314 9.028 70.994 9.08667 70.664 9.204C70.334 9.314 70.0554 9.46433 69.828 9.655L69.388 8.863C69.6887 8.621 70.048 8.43767 70.466 8.313C70.884 8.181 71.3277 8.115 71.797 8.115ZM71.555 13.252C71.9584 13.252 72.3067 13.164 72.6 12.988C72.8934 12.8047 73.106 12.548 73.238 12.218V11.404H71.61C70.7154 11.404 70.268 11.7047 70.268 12.306C70.268 12.5993 70.3817 12.8303 70.609 12.999C70.8364 13.1677 71.1517 13.252 71.555 13.252ZM79.0613 8.115C79.8019 8.115 80.3886 8.33133 80.8213 8.764C81.2613 9.18933 81.4813 9.81633 81.4813 10.645V14H80.4253V10.766C80.4253 10.2013 80.2896 9.776 80.0183 9.49C79.7469 9.204 79.3583 9.061 78.8523 9.061C78.2803 9.061 77.8293 9.22967 77.4993 9.567C77.1693 9.897 77.0043 10.3737 77.0043 10.997V14H75.9483V8.17H76.9603V9.05C77.1729 8.74933 77.4589 8.51833 77.8183 8.357C78.1849 8.19567 78.5993 8.115 79.0613 8.115ZM83.1356 8.17H84.1916V14H83.1356V8.17ZM83.6636 7.048C83.4582 7.048 83.2859 6.982 83.1466 6.85C83.0146 6.718 82.9486 6.55667 82.9486 6.366C82.9486 6.17533 83.0146 6.014 83.1466 5.882C83.2859 5.74267 83.4582 5.673 83.6636 5.673C83.8689 5.673 84.0376 5.739 84.1696 5.871C84.3089 5.99567 84.3786 6.15333 84.3786 6.344C84.3786 6.542 84.3089 6.71067 84.1696 6.85C84.0376 6.982 83.8689 7.048 83.6636 7.048ZM90.2308 13.131V14H85.3468V13.318L88.7898 9.039H85.4128V8.17H90.1428V8.863L86.6998 13.131H90.2308ZM93.4672 8.115C94.2738 8.115 94.8898 8.313 95.3152 8.709C95.7478 9.105 95.9642 9.69533 95.9642 10.48V14H94.9632V13.23C94.7872 13.5013 94.5342 13.7103 94.2042 13.857C93.8815 13.9963 93.4965 14.066 93.0492 14.066C92.3965 14.066 91.8722 13.9083 91.4762 13.593C91.0875 13.2777 90.8932 12.8633 90.8932 12.35C90.8932 11.8367 91.0802 11.426 91.4542 11.118C91.8282 10.8027 92.4222 10.645 93.2362 10.645H94.9082V10.436C94.9082 9.98133 94.7762 9.633 94.5122 9.391C94.2482 9.149 93.8595 9.028 93.3462 9.028C93.0015 9.028 92.6642 9.08667 92.3342 9.204C92.0042 9.314 91.7255 9.46433 91.4982 9.655L91.0582 8.863C91.3588 8.621 91.7182 8.43767 92.1362 8.313C92.5542 8.181 92.9978 8.115 93.4672 8.115ZM93.2252 13.252C93.6285 13.252 93.9768 13.164 94.2702 12.988C94.5635 12.8047 94.7762 12.548 94.9082 12.218V11.404H93.2802C92.3855 11.404 91.9382 11.7047 91.9382 12.306C91.9382 12.5993 92.0518 12.8303 92.2792 12.999C92.5065 13.1677 92.8218 13.252 93.2252 13.252ZM100.896 13.659C100.742 13.791 100.552 13.8937 100.324 13.967C100.097 14.033 99.8624 14.066 99.6204 14.066C99.0337 14.066 98.579 13.9083 98.2564 13.593C97.9337 13.2777 97.7724 12.8267 97.7724 12.24V9.039H96.7824V8.17H97.7724V6.894H98.8284V8.17H100.5V9.039H98.8284V12.196C98.8284 12.5113 98.9054 12.7533 99.0594 12.922C99.2207 13.0907 99.448 13.175 99.7414 13.175C100.064 13.175 100.339 13.0833 100.566 12.9L100.896 13.659ZM101.873 8.17H102.929V14H101.873V8.17ZM102.401 7.048C102.196 7.048 102.023 6.982 101.884 6.85C101.752 6.718 101.686 6.55667 101.686 6.366C101.686 6.17533 101.752 6.014 101.884 5.882C102.023 5.74267 102.196 5.673 102.401 5.673C102.606 5.673 102.775 5.739 102.907 5.871C103.046 5.99567 103.116 6.15333 103.116 6.344C103.116 6.542 103.046 6.71067 102.907 6.85C102.775 6.982 102.606 7.048 102.401 7.048ZM107.142 14.066C106.563 14.066 106.042 13.9377 105.58 13.681C105.118 13.4243 104.755 13.0723 104.491 12.625C104.235 12.1703 104.106 11.657 104.106 11.085C104.106 10.513 104.235 10.0033 104.491 9.556C104.755 9.10133 105.118 8.74933 105.58 8.5C106.042 8.24333 106.563 8.115 107.142 8.115C107.722 8.115 108.239 8.24333 108.693 8.5C109.155 8.74933 109.515 9.10133 109.771 9.556C110.035 10.0033 110.167 10.513 110.167 11.085C110.167 11.657 110.035 12.1703 109.771 12.625C109.515 13.0723 109.155 13.4243 108.693 13.681C108.239 13.9377 107.722 14.066 107.142 14.066ZM107.142 13.142C107.516 13.142 107.85 13.0577 108.143 12.889C108.444 12.713 108.679 12.471 108.847 12.163C109.016 11.8477 109.1 11.4883 109.1 11.085C109.1 10.6817 109.016 10.326 108.847 10.018C108.679 9.70267 108.444 9.46067 108.143 9.292C107.85 9.12333 107.516 9.039 107.142 9.039C106.768 9.039 106.431 9.12333 106.13 9.292C105.837 9.46067 105.602 9.70267 105.426 10.018C105.258 10.326 105.173 10.6817 105.173 11.085C105.173 11.4883 105.258 11.8477 105.426 12.163C105.602 12.471 105.837 12.713 106.13 12.889C106.431 13.0577 106.768 13.142 107.142 13.142ZM114.441 8.115C115.181 8.115 115.768 8.33133 116.201 8.764C116.641 9.18933 116.861 9.81633 116.861 10.645V14H115.805V10.766C115.805 10.2013 115.669 9.776 115.398 9.49C115.126 9.204 114.738 9.061 114.232 9.061C113.66 9.061 113.209 9.22967 112.879 9.567C112.549 9.897 112.384 10.3737 112.384 10.997V14H111.328V8.17H112.34V9.05C112.552 8.74933 112.838 8.51833 113.198 8.357C113.564 8.19567 113.979 8.115 114.441 8.115Z" fill="white"/>
</svg>
