<svg width="60" height="21" viewBox="0 0 60 21" fill="none" xmlns="http://www.w3.org/2000/svg">
<rect width="60" height="21" rx="6" fill="#1F3F51"/>
<path d="M11.5836 8.115C12.3902 8.115 13.0062 8.313 13.4316 8.709C13.8642 9.105 14.0806 9.69533 14.0806 10.48V14H13.0796V13.23C12.9036 13.5013 12.6506 13.7103 12.3206 13.857C11.9979 13.9963 11.6129 14.066 11.1656 14.066C10.5129 14.066 9.98857 13.9083 9.59257 13.593C9.2039 13.2777 9.00957 12.8633 9.00957 12.35C9.00957 11.8367 9.19657 11.426 9.57057 11.118C9.94457 10.8027 10.5386 10.645 11.3526 10.645H13.0246V10.436C13.0246 9.98133 12.8926 9.633 12.6286 9.391C12.3646 9.149 11.9759 9.028 11.4626 9.028C11.1179 9.028 10.7806 9.08667 10.4506 9.204C10.1206 9.314 9.8419 9.46433 9.61457 9.655L9.17457 8.863C9.47524 8.621 9.83457 8.43767 10.2526 8.313C10.6706 8.181 11.1142 8.115 11.5836 8.115ZM11.3416 13.252C11.7449 13.252 12.0932 13.164 12.3866 12.988C12.6799 12.8047 12.8926 12.548 13.0246 12.218V11.404H11.3966C10.5019 11.404 10.0546 11.7047 10.0546 12.306C10.0546 12.5993 10.1682 12.8303 10.3956 12.999C10.6229 13.1677 10.9382 13.252 11.3416 13.252ZM19.4528 14L17.7698 11.767L16.0648 14H14.8878L17.1868 11.019L14.9978 8.17H16.1748L17.7808 10.271L19.3758 8.17H20.5308L18.3308 11.019L20.6518 14H19.4528ZM21.5041 8.17H22.5601V14H21.5041V8.17ZM22.0321 7.048C21.8268 7.048 21.6545 6.982 21.5151 6.85C21.3831 6.718 21.3171 6.55667 21.3171 6.366C21.3171 6.17533 21.3831 6.014 21.5151 5.882C21.6545 5.74267 21.8268 5.673 22.0321 5.673C22.2375 5.673 22.4061 5.739 22.5381 5.871C22.6775 5.99567 22.7471 6.15333 22.7471 6.344C22.7471 6.542 22.6775 6.71067 22.5381 6.85C22.4061 6.982 22.2375 7.048 22.0321 7.048ZM31.5694 8.115C32.3027 8.115 32.8821 8.32767 33.3074 8.753C33.7401 9.17833 33.9564 9.809 33.9564 10.645V14H32.9004V10.766C32.9004 10.2013 32.7684 9.776 32.5044 9.49C32.2477 9.204 31.8774 9.061 31.3934 9.061C30.8581 9.061 30.4327 9.22967 30.1174 9.567C29.8021 9.897 29.6444 10.3737 29.6444 10.997V14H28.5884V10.766C28.5884 10.2013 28.4564 9.776 28.1924 9.49C27.9357 9.204 27.5654 9.061 27.0814 9.061C26.5461 9.061 26.1207 9.22967 25.8054 9.567C25.4901 9.897 25.3324 10.3737 25.3324 10.997V14H24.2764V8.17H25.2884V9.039C25.5011 8.73833 25.7797 8.511 26.1244 8.357C26.4691 8.19567 26.8614 8.115 27.3014 8.115C27.7561 8.115 28.1594 8.20667 28.5114 8.39C28.8634 8.57333 29.1347 8.841 29.3254 9.193C29.5454 8.85567 29.8497 8.59167 30.2384 8.401C30.6344 8.21033 31.0781 8.115 31.5694 8.115ZM35.5994 8.17H36.6554V14H35.5994V8.17ZM36.1274 7.048C35.9221 7.048 35.7498 6.982 35.6104 6.85C35.4784 6.718 35.4124 6.55667 35.4124 6.366C35.4124 6.17533 35.4784 6.014 35.6104 5.882C35.7498 5.74267 35.9221 5.673 36.1274 5.673C36.3328 5.673 36.5014 5.739 36.6334 5.871C36.7728 5.99567 36.8424 6.15333 36.8424 6.344C36.8424 6.542 36.7728 6.71067 36.6334 6.85C36.5014 6.982 36.3328 7.048 36.1274 7.048ZM40.8687 14.066C40.2894 14.066 39.7687 13.9377 39.3067 13.681C38.8447 13.4243 38.4817 13.0723 38.2177 12.625C37.961 12.1703 37.8327 11.657 37.8327 11.085C37.8327 10.513 37.961 10.0033 38.2177 9.556C38.4817 9.10133 38.8447 8.74933 39.3067 8.5C39.7687 8.24333 40.2894 8.115 40.8687 8.115C41.448 8.115 41.965 8.24333 42.4197 8.5C42.8817 8.74933 43.241 9.10133 43.4977 9.556C43.7617 10.0033 43.8937 10.513 43.8937 11.085C43.8937 11.657 43.7617 12.1703 43.4977 12.625C43.241 13.0723 42.8817 13.4243 42.4197 13.681C41.965 13.9377 41.448 14.066 40.8687 14.066ZM40.8687 13.142C41.2427 13.142 41.5764 13.0577 41.8697 12.889C42.1704 12.713 42.405 12.471 42.5737 12.163C42.7424 11.8477 42.8267 11.4883 42.8267 11.085C42.8267 10.6817 42.7424 10.326 42.5737 10.018C42.405 9.70267 42.1704 9.46067 41.8697 9.292C41.5764 9.12333 41.2427 9.039 40.8687 9.039C40.4947 9.039 40.1574 9.12333 39.8567 9.292C39.5634 9.46067 39.3287 9.70267 39.1527 10.018C38.984 10.326 38.8997 10.6817 38.8997 11.085C38.8997 11.4883 38.984 11.8477 39.1527 12.163C39.3287 12.471 39.5634 12.713 39.8567 12.889C40.1574 13.0577 40.4947 13.142 40.8687 13.142ZM48.1671 8.115C48.9078 8.115 49.4945 8.33133 49.9271 8.764C50.3671 9.18933 50.5871 9.81633 50.5871 10.645V14H49.5311V10.766C49.5311 10.2013 49.3955 9.776 49.1241 9.49C48.8528 9.204 48.4641 9.061 47.9581 9.061C47.3861 9.061 46.9351 9.22967 46.6051 9.567C46.2751 9.897 46.1101 10.3737 46.1101 10.997V14H45.0541V8.17H46.0661V9.05C46.2788 8.74933 46.5648 8.51833 46.9241 8.357C47.2908 8.19567 47.7051 8.115 48.1671 8.115Z" fill="#3DC1F2"/>
</svg>
