<svg width="335" height="50" viewBox="0 0 335 50" fill="none" xmlns="http://www.w3.org/2000/svg">
<path d="M0 20C0 10.5719 0 5.85786 2.92893 2.92893C5.85786 0 10.5719 0 20 0H315C324.428 0 329.142 0 332.071 2.92893C335 5.85786 335 10.5719 335 20V30C335 39.4281 335 44.1421 332.071 47.0711C329.142 50 324.428 50 315 50H20C10.5719 50 5.85786 50 2.92893 47.0711C0 44.1421 0 39.4281 0 30V20Z" fill="#1F3F51"/>
<path d="M151.715 30.13C150.796 30.13 149.964 29.9307 149.219 29.532C148.482 29.1247 147.901 28.5657 147.477 27.855C147.061 27.1443 146.853 26.3427 146.853 25.45C146.853 24.5573 147.065 23.7557 147.49 23.045C147.914 22.3343 148.495 21.7797 149.232 21.381C149.977 20.9737 150.809 20.77 151.728 20.77C152.473 20.77 153.153 20.9 153.769 21.16C154.384 21.42 154.904 21.797 155.329 22.291L154.237 23.318C153.578 22.6073 152.768 22.252 151.806 22.252C151.182 22.252 150.623 22.3907 150.129 22.668C149.635 22.9367 149.249 23.3137 148.972 23.799C148.694 24.2843 148.556 24.8347 148.556 25.45C148.556 26.0653 148.694 26.6157 148.972 27.101C149.249 27.5863 149.635 27.9677 150.129 28.245C150.623 28.5137 151.182 28.648 151.806 28.648C152.768 28.648 153.578 28.2883 154.237 27.569L155.329 28.609C154.904 29.103 154.38 29.48 153.756 29.74C153.14 30 152.46 30.13 151.715 30.13ZM158.039 24.072C158.507 23.344 159.33 22.98 160.509 22.98V24.527C160.37 24.501 160.245 24.488 160.132 24.488C159.499 24.488 159.005 24.6743 158.65 25.047C158.295 25.411 158.117 25.9397 158.117 26.633V30H156.492V23.058H158.039V24.072ZM168.05 26.568C168.05 26.6807 168.041 26.841 168.024 27.049H162.577C162.672 27.5603 162.919 27.9677 163.318 28.271C163.725 28.5657 164.228 28.713 164.826 28.713C165.589 28.713 166.217 28.4617 166.711 27.959L167.582 28.96C167.27 29.3327 166.876 29.6143 166.399 29.805C165.922 29.9957 165.385 30.091 164.787 30.091C164.024 30.091 163.353 29.9393 162.772 29.636C162.191 29.3327 161.741 28.9123 161.42 28.375C161.108 27.829 160.952 27.2137 160.952 26.529C160.952 25.853 161.104 25.2463 161.407 24.709C161.719 24.163 162.148 23.7383 162.694 23.435C163.24 23.1317 163.855 22.98 164.54 22.98C165.216 22.98 165.818 23.1317 166.347 23.435C166.884 23.7297 167.3 24.15 167.595 24.696C167.898 25.2333 168.05 25.8573 168.05 26.568ZM164.54 24.28C164.02 24.28 163.578 24.436 163.214 24.748C162.859 25.0513 162.642 25.4587 162.564 25.97H166.503C166.434 25.4673 166.221 25.06 165.866 24.748C165.511 24.436 165.069 24.28 164.54 24.28ZM171.773 22.98C172.795 22.98 173.575 23.227 174.113 23.721C174.659 24.2063 174.932 24.943 174.932 25.931V30H173.398V29.155C173.198 29.4583 172.912 29.6923 172.54 29.857C172.176 30.013 171.734 30.091 171.214 30.091C170.694 30.091 170.239 30.0043 169.849 29.831C169.459 29.649 169.155 29.402 168.939 29.09C168.731 28.7693 168.627 28.4097 168.627 28.011C168.627 27.387 168.856 26.8887 169.316 26.516C169.784 26.1347 170.516 25.944 171.513 25.944H173.307V25.84C173.307 25.3547 173.159 24.982 172.865 24.722C172.579 24.462 172.15 24.332 171.578 24.332C171.188 24.332 170.802 24.3927 170.421 24.514C170.048 24.6353 169.732 24.8043 169.472 25.021L168.835 23.838C169.199 23.5607 169.636 23.3483 170.148 23.201C170.659 23.0537 171.201 22.98 171.773 22.98ZM171.552 28.908C171.959 28.908 172.319 28.817 172.631 28.635C172.951 28.4443 173.177 28.1757 173.307 27.829V27.023H171.63C170.694 27.023 170.226 27.3307 170.226 27.946C170.226 28.2407 170.343 28.4747 170.577 28.648C170.811 28.8213 171.136 28.908 171.552 28.908ZM180.89 29.623C180.699 29.779 180.465 29.896 180.188 29.974C179.919 30.052 179.633 30.091 179.33 30.091C178.567 30.091 177.978 29.8917 177.562 29.493C177.146 29.0943 176.938 28.5137 176.938 27.751V24.41H175.794V23.11H176.938V21.524H178.563V23.11H180.422V24.41H178.563V27.712C178.563 28.05 178.645 28.31 178.81 28.492C178.975 28.6653 179.213 28.752 179.525 28.752C179.889 28.752 180.192 28.6567 180.435 28.466L180.89 29.623ZM188.224 26.568C188.224 26.6807 188.216 26.841 188.198 27.049H182.751C182.847 27.5603 183.094 27.9677 183.492 28.271C183.9 28.5657 184.402 28.713 185 28.713C185.763 28.713 186.391 28.4617 186.885 27.959L187.756 28.96C187.444 29.3327 187.05 29.6143 186.573 29.805C186.097 29.9957 185.559 30.091 184.961 30.091C184.199 30.091 183.527 29.9393 182.946 29.636C182.366 29.3327 181.915 28.9123 181.594 28.375C181.282 27.829 181.126 27.2137 181.126 26.529C181.126 25.853 181.278 25.2463 181.581 24.709C181.893 24.163 182.322 23.7383 182.868 23.435C183.414 23.1317 184.03 22.98 184.714 22.98C185.39 22.98 185.993 23.1317 186.521 23.435C187.059 23.7297 187.475 24.15 187.769 24.696C188.073 25.2333 188.224 25.8573 188.224 26.568ZM184.714 24.28C184.194 24.28 183.752 24.436 183.388 24.748C183.033 25.0513 182.816 25.4587 182.738 25.97H186.677C186.608 25.4673 186.396 25.06 186.04 24.748C185.685 24.436 185.243 24.28 184.714 24.28Z" fill="#3DC1F2"/>
</svg>
