<svg width="26" height="26" viewBox="0 0 26 26" fill="none" xmlns="http://www.w3.org/2000/svg">
	<path d="M13 22.75C18.3848 22.75 22.75 18.3848 22.75 13C22.75 7.61522 18.3848 3.25 13 3.25C7.61522 3.25 3.25 7.61522 3.25 13C3.25 18.3848 7.61522 22.75 13 22.75Z" stroke="white" stroke-width="1.5" stroke-linecap="round" stroke-linejoin="round"/>
	<path d="M10.4922 10.4928V10.4928C10.7489 9.38661 11.7564 8.6196 12.891 8.66669V8.66669C14.1609 8.59635 15.2495 9.56401 15.3285 10.8334C15.3285 12.4626 12.9994 13 12.9994 14.0834" stroke="white" stroke-width="1.5" stroke-linecap="round" stroke-linejoin="round"/>
	<path d="M13.1341 17.0622C13.1341 17.137 13.0735 17.1976 12.9987 17.1976C12.9239 17.1976 12.8633 17.137 12.8633 17.0622C12.8633 16.9874 12.9239 16.9268 12.9987 16.9268" stroke="white" stroke-width="1.5" stroke-linecap="round" stroke-linejoin="round"/>
	<path d="M13 16.9268V16.9268C13.0748 16.9268 13.1354 16.9874 13.1354 17.0622" stroke="white" stroke-width="1.5" stroke-linecap="round" stroke-linejoin="round"/>
</svg>
