<svg width="40" height="24" viewBox="0 0 40 24" fill="none" xmlns="http://www.w3.org/2000/svg">
<path d="M0 4C0 1.79086 1.79086 0 4 0H36C38.2091 0 40 1.79086 40 4V20C40 22.2091 38.2091 24 36 24H4C1.79086 24 0 22.2091 0 20V4Z" fill="#171717"/>
<rect x="4" y="4" width="16" height="16" rx="2" fill="#1F3F51"/>
<path d="M4 1H36V-1H4V1ZM39 4V20H41V4H39ZM36 23H4V25H36V23ZM1 20V4H-1V20H1ZM4 23C2.34315 23 1 21.6569 1 20H-1C-1 22.7614 1.23858 25 4 25V23ZM39 20C39 21.6569 37.6569 23 36 23V25C38.7614 25 41 22.7614 41 20H39ZM36 1C37.6569 1 39 2.34315 39 4H41C41 1.23858 38.7614 -1 36 -1V1ZM4 -1C1.23858 -1 -1 1.23858 -1 4H1C1 2.34315 2.34315 1 4 1V-1Z" fill="#1F3F51"/>
</svg>
