<svg width="26" height="26" viewBox="0 0 26 26" fill="none" xmlns="http://www.w3.org/2000/svg">
<path d="M9.66123 20.1802V20.6602H9.66023C9.65023 21.9402 10.7002 22.9902 11.9902 22.9902V22.9892L11.9802 22.9882C13.2602 22.9882 14.3102 21.9382 14.3102 20.6482C14.3102 20.6382 14.3102 20.6382 14.3102 20.6382V20.1582" stroke="white" stroke-width="1.5" stroke-linecap="round" stroke-linejoin="round"/>
<path d="M17.5692 20.1798H17.5592C18.6192 20.1798 19.4792 19.3098 19.4792 18.2498V18.2488C19.4692 17.7088 19.2592 17.1888 18.8792 16.7988L17.5992 15.5188V11.7238V11.7228C17.5992 8.61277 15.0792 6.09277 11.9742 6.09277H11.9732H11.9632C8.85321 6.09277 6.33321 8.60277 6.33321 11.7128V15.4998L5.05321 16.7698V16.7598C4.66321 17.1398 4.45321 17.6598 4.45321 18.1998V18.1898C4.44321 19.2498 5.31321 20.1098 6.37321 20.1098H17.5232L17.5692 20.1798Z" stroke="white" stroke-width="1.5" stroke-linecap="round" stroke-linejoin="round"/>
<path d="M22.0195 5L20.0195 6.33" stroke="white" stroke-width="1.5" stroke-linecap="round" stroke-linejoin="round"/>
<path d="M22.9995 11H21.0195" stroke="white" stroke-width="1.5" stroke-linecap="round" stroke-linejoin="round"/>
<path d="M1.98047 5L3.98047 6.33" stroke="white" stroke-width="1.5" stroke-linecap="round" stroke-linejoin="round"/>
<path d="M1 11H2.98" stroke="white" stroke-width="1.5" stroke-linecap="round" stroke-linejoin="round"/>
<circle cx="19" cy="7" r="7" fill="#EC790F"/>
<path d="M19.5608 6.479C20.2722 6.567 20.8148 6.809 21.1888 7.205C21.5628 7.601 21.7498 8.096 21.7498 8.69C21.7498 9.13733 21.6362 9.54433 21.4088 9.911C21.1815 10.2777 20.8368 10.571 20.3748 10.791C19.9202 11.0037 19.3628 11.11 18.7028 11.11C18.1528 11.11 17.6212 11.033 17.1078 10.879C16.6018 10.7177 16.1692 10.4977 15.8098 10.219L16.4258 9.108C16.7045 9.34267 17.0418 9.52967 17.4378 9.669C17.8412 9.801 18.2555 9.867 18.6808 9.867C19.1868 9.867 19.5828 9.76433 19.8688 9.559C20.1622 9.34633 20.3088 9.06033 20.3088 8.701C20.3088 8.34167 20.1695 8.063 19.8908 7.865C19.6195 7.65967 19.2015 7.557 18.6368 7.557H17.9328V6.578L19.6818 4.499H16.1838V3.3H21.4308V4.257L19.5608 6.479Z" fill="white"/>
</svg>
