<svg width="335" height="50" viewBox="0 0 335 50" fill="none" xmlns="http://www.w3.org/2000/svg">
<path d="M0 20C0 10.5719 0 5.85786 2.92893 2.92893C5.85786 0 10.5719 0 20 0H315C324.428 0 329.142 0 332.071 2.92893C335 5.85786 335 10.5719 335 20V30C335 39.4281 335 44.1421 332.071 47.0711C329.142 50 324.428 50 315 50H20C10.5719 50 5.85786 50 2.92893 47.0711C0 44.1421 0 39.4281 0 30V20Z" fill="#65AFD6"/>
<path d="M116.524 30.13C115.822 30.13 115.142 30.0303 114.483 29.831C113.833 29.6317 113.318 29.3673 112.936 29.038L113.521 27.725C113.894 28.0197 114.349 28.2623 114.886 28.453C115.432 28.635 115.978 28.726 116.524 28.726C117.2 28.726 117.703 28.6177 118.032 28.401C118.37 28.1843 118.539 27.8983 118.539 27.543C118.539 27.283 118.444 27.0707 118.253 26.906C118.071 26.7327 117.837 26.5983 117.551 26.503C117.265 26.4077 116.875 26.2993 116.381 26.178C115.688 26.0133 115.125 25.8487 114.691 25.684C114.267 25.5193 113.898 25.2637 113.586 24.917C113.283 24.5617 113.131 24.085 113.131 23.487C113.131 22.9843 113.266 22.5293 113.534 22.122C113.812 21.706 114.223 21.3767 114.769 21.134C115.324 20.8913 116 20.77 116.797 20.77C117.352 20.77 117.898 20.8393 118.435 20.978C118.973 21.1167 119.436 21.316 119.826 21.576L119.293 22.889C118.895 22.655 118.479 22.4773 118.045 22.356C117.612 22.2347 117.192 22.174 116.784 22.174C116.117 22.174 115.619 22.2867 115.289 22.512C114.969 22.7373 114.808 23.0363 114.808 23.409C114.808 23.669 114.899 23.8813 115.081 24.046C115.272 24.2107 115.51 24.3407 115.796 24.436C116.082 24.5313 116.472 24.6397 116.966 24.761C117.642 24.917 118.197 25.0817 118.63 25.255C119.064 25.4197 119.432 25.6753 119.735 26.022C120.047 26.3687 120.203 26.8367 120.203 27.426C120.203 27.9287 120.065 28.3837 119.787 28.791C119.519 29.1983 119.107 29.5233 118.552 29.766C117.998 30.0087 117.322 30.13 116.524 30.13ZM125.362 22.98C126.238 22.98 126.94 23.2357 127.468 23.747C127.997 24.2583 128.261 25.0167 128.261 26.022V30H126.636V26.23C126.636 25.6233 126.493 25.1683 126.207 24.865C125.921 24.553 125.514 24.397 124.985 24.397C124.387 24.397 123.915 24.579 123.568 24.943C123.222 25.2983 123.048 25.814 123.048 26.49V30H121.423V20.354H123.048V23.864C123.317 23.578 123.646 23.3613 124.036 23.214C124.435 23.058 124.877 22.98 125.362 22.98ZM133.206 30.091C132.504 30.091 131.871 29.9393 131.308 29.636C130.745 29.3327 130.303 28.9123 129.982 28.375C129.67 27.829 129.514 27.2137 129.514 26.529C129.514 25.8443 129.67 25.2333 129.982 24.696C130.303 24.1587 130.745 23.7383 131.308 23.435C131.871 23.1317 132.504 22.98 133.206 22.98C133.917 22.98 134.554 23.1317 135.117 23.435C135.68 23.7383 136.118 24.1587 136.43 24.696C136.751 25.2333 136.911 25.8443 136.911 26.529C136.911 27.2137 136.751 27.829 136.43 28.375C136.118 28.9123 135.68 29.3327 135.117 29.636C134.554 29.9393 133.917 30.091 133.206 30.091ZM133.206 28.7C133.804 28.7 134.298 28.5007 134.688 28.102C135.078 27.7033 135.273 27.179 135.273 26.529C135.273 25.879 135.078 25.3547 134.688 24.956C134.298 24.5573 133.804 24.358 133.206 24.358C132.608 24.358 132.114 24.5573 131.724 24.956C131.343 25.3547 131.152 25.879 131.152 26.529C131.152 27.179 131.343 27.7033 131.724 28.102C132.114 28.5007 132.608 28.7 133.206 28.7ZM148.804 23.058L146.243 30H144.683L142.889 25.216L141.069 30H139.509L136.961 23.058H138.495L140.328 28.18L142.239 23.058H143.604L145.476 28.206L147.361 23.058H148.804ZM156.762 22.98C157.438 22.98 158.04 23.1273 158.569 23.422C159.106 23.7167 159.526 24.1327 159.83 24.67C160.133 25.2073 160.285 25.827 160.285 26.529C160.285 27.231 160.133 27.855 159.83 28.401C159.526 28.9383 159.106 29.3543 158.569 29.649C158.04 29.9437 157.438 30.091 156.762 30.091C155.826 30.091 155.085 29.779 154.539 29.155V32.522H152.914V23.058H154.461V23.968C154.729 23.6387 155.059 23.3917 155.449 23.227C155.847 23.0623 156.285 22.98 156.762 22.98ZM156.58 28.7C157.178 28.7 157.667 28.5007 158.049 28.102C158.439 27.7033 158.634 27.179 158.634 26.529C158.634 25.879 158.439 25.3547 158.049 24.956C157.667 24.5573 157.178 24.358 156.58 24.358C156.19 24.358 155.839 24.449 155.527 24.631C155.215 24.8043 154.968 25.0557 154.786 25.385C154.604 25.7143 154.513 26.0957 154.513 26.529C154.513 26.9623 154.604 27.3437 154.786 27.673C154.968 28.0023 155.215 28.258 155.527 28.44C155.839 28.6133 156.19 28.7 156.58 28.7ZM163.073 24.072C163.541 23.344 164.364 22.98 165.543 22.98V24.527C165.404 24.501 165.278 24.488 165.166 24.488C164.533 24.488 164.039 24.6743 163.684 25.047C163.328 25.411 163.151 25.9397 163.151 26.633V30H161.526V23.058H163.073V24.072ZM166.621 23.058H168.246V30H166.621V23.058ZM167.44 21.914C167.146 21.914 166.899 21.823 166.699 21.641C166.5 21.4503 166.4 21.2163 166.4 20.939C166.4 20.6617 166.5 20.432 166.699 20.25C166.899 20.0593 167.146 19.964 167.44 19.964C167.735 19.964 167.982 20.055 168.181 20.237C168.381 20.4103 168.48 20.6313 168.48 20.9C168.48 21.186 168.381 21.4287 168.181 21.628C167.991 21.8187 167.744 21.914 167.44 21.914ZM176.579 23.058L173.602 30H171.925L168.948 23.058H170.638L172.796 28.206L175.019 23.058H176.579ZM179.731 22.98C180.754 22.98 181.534 23.227 182.071 23.721C182.617 24.2063 182.89 24.943 182.89 25.931V30H181.356V29.155C181.157 29.4583 180.871 29.6923 180.498 29.857C180.134 30.013 179.692 30.091 179.172 30.091C178.652 30.091 178.197 30.0043 177.807 29.831C177.417 29.649 177.114 29.402 176.897 29.09C176.689 28.7693 176.585 28.4097 176.585 28.011C176.585 27.387 176.815 26.8887 177.274 26.516C177.742 26.1347 178.474 25.944 179.471 25.944H181.265V25.84C181.265 25.3547 181.118 24.982 180.823 24.722C180.537 24.462 180.108 24.332 179.536 24.332C179.146 24.332 178.76 24.3927 178.379 24.514C178.006 24.6353 177.69 24.8043 177.43 25.021L176.793 23.838C177.157 23.5607 177.595 23.3483 178.106 23.201C178.617 23.0537 179.159 22.98 179.731 22.98ZM179.51 28.908C179.917 28.908 180.277 28.817 180.589 28.635C180.91 28.4443 181.135 28.1757 181.265 27.829V27.023H179.588C178.652 27.023 178.184 27.3307 178.184 27.946C178.184 28.2407 178.301 28.4747 178.535 28.648C178.769 28.8213 179.094 28.908 179.51 28.908ZM188.848 29.623C188.658 29.779 188.424 29.896 188.146 29.974C187.878 30.052 187.592 30.091 187.288 30.091C186.526 30.091 185.936 29.8917 185.52 29.493C185.104 29.0943 184.896 28.5137 184.896 27.751V24.41H183.752V23.11H184.896V21.524H186.521V23.11H188.38V24.41H186.521V27.712C186.521 28.05 186.604 28.31 186.768 28.492C186.933 28.6653 187.171 28.752 187.483 28.752C187.847 28.752 188.151 28.6567 188.393 28.466L188.848 29.623ZM196.183 26.568C196.183 26.6807 196.174 26.841 196.157 27.049H190.71C190.805 27.5603 191.052 27.9677 191.451 28.271C191.858 28.5657 192.361 28.713 192.959 28.713C193.721 28.713 194.35 28.4617 194.844 27.959L195.715 28.96C195.403 29.3327 195.008 29.6143 194.532 29.805C194.055 29.9957 193.518 30.091 192.92 30.091C192.157 30.091 191.485 29.9393 190.905 29.636C190.324 29.3327 189.873 28.9123 189.553 28.375C189.241 27.829 189.085 27.2137 189.085 26.529C189.085 25.853 189.236 25.2463 189.54 24.709C189.852 24.163 190.281 23.7383 190.827 23.435C191.373 23.1317 191.988 22.98 192.673 22.98C193.349 22.98 193.951 23.1317 194.48 23.435C195.017 23.7297 195.433 24.15 195.728 24.696C196.031 25.2333 196.183 25.8573 196.183 26.568ZM192.673 24.28C192.153 24.28 191.711 24.436 191.347 24.748C190.991 25.0513 190.775 25.4587 190.697 25.97H194.636C194.566 25.4673 194.354 25.06 193.999 24.748C193.643 24.436 193.201 24.28 192.673 24.28ZM203.57 27.023L202.361 28.167V30H200.736V20.354H202.361V26.178L205.728 23.058H207.678L204.779 25.97L207.951 30H205.975L203.57 27.023ZM214.935 26.568C214.935 26.6807 214.926 26.841 214.909 27.049H209.462C209.557 27.5603 209.804 27.9677 210.203 28.271C210.61 28.5657 211.113 28.713 211.711 28.713C212.474 28.713 213.102 28.4617 213.596 27.959L214.467 28.96C214.155 29.3327 213.761 29.6143 213.284 29.805C212.807 29.9957 212.27 30.091 211.672 30.091C210.909 30.091 210.238 29.9393 209.657 29.636C209.076 29.3327 208.626 28.9123 208.305 28.375C207.993 27.829 207.837 27.2137 207.837 26.529C207.837 25.853 207.989 25.2463 208.292 24.709C208.604 24.163 209.033 23.7383 209.579 23.435C210.125 23.1317 210.74 22.98 211.425 22.98C212.101 22.98 212.703 23.1317 213.232 23.435C213.769 23.7297 214.185 24.15 214.48 24.696C214.783 25.2333 214.935 25.8573 214.935 26.568ZM211.425 24.28C210.905 24.28 210.463 24.436 210.099 24.748C209.744 25.0513 209.527 25.4587 209.449 25.97H213.388C213.319 25.4673 213.106 25.06 212.751 24.748C212.396 24.436 211.954 24.28 211.425 24.28ZM222.569 23.058L219.319 30.559C219.016 31.313 218.647 31.8417 218.214 32.145C217.781 32.457 217.256 32.613 216.641 32.613C216.294 32.613 215.952 32.5567 215.614 32.444C215.276 32.3313 214.999 32.1753 214.782 31.976L215.432 30.78C215.588 30.9273 215.77 31.0443 215.978 31.131C216.195 31.2177 216.411 31.261 216.628 31.261C216.914 31.261 217.148 31.1873 217.33 31.04C217.521 30.8927 217.694 30.6457 217.85 30.299L217.967 30.026L214.938 23.058H216.628L218.812 28.193L221.009 23.058H222.569Z" fill="white"/>
</svg>
