<svg width="59" height="21" viewBox="0 0 59 21" fill="none" xmlns="http://www.w3.org/2000/svg">
<rect width="59" height="21" rx="6" fill="#65AFD6"/>
<path d="M14.4747 8.17V14H13.4737V13.12C13.2611 13.4207 12.9787 13.6553 12.6267 13.824C12.2821 13.9853 11.9044 14.066 11.4937 14.066C10.7164 14.066 10.1041 13.8533 9.65675 13.428C9.20941 12.9953 8.98575 12.361 8.98575 11.525V8.17H10.0417V11.404C10.0417 11.9687 10.1774 12.3977 10.4487 12.691C10.7201 12.977 11.1087 13.12 11.6147 13.12C12.1721 13.12 12.6121 12.9513 12.9347 12.614C13.2574 12.2767 13.4187 11.8 13.4187 11.184V8.17H14.4747ZM16.1851 5.838H17.2411V14H16.1851V5.838ZM22.375 13.659C22.221 13.791 22.0303 13.8937 21.803 13.967C21.5757 14.033 21.341 14.066 21.099 14.066C20.5123 14.066 20.0577 13.9083 19.735 13.593C19.4123 13.2777 19.251 12.8267 19.251 12.24V9.039H18.261V8.17H19.251V6.894H20.307V8.17H21.979V9.039H20.307V12.196C20.307 12.5113 20.384 12.7533 20.538 12.922C20.6993 13.0907 20.9267 13.175 21.22 13.175C21.5427 13.175 21.8177 13.0833 22.045 12.9L22.375 13.659ZM24.3637 9.149C24.547 8.81167 24.8183 8.555 25.1777 8.379C25.537 8.203 25.9734 8.115 26.4867 8.115V9.138C26.428 9.13067 26.3474 9.127 26.2447 9.127C25.6727 9.127 25.2217 9.29933 24.8917 9.644C24.569 9.98133 24.4077 10.4653 24.4077 11.096V14H23.3517V8.17H24.3637V9.149ZM29.6005 8.115C30.4071 8.115 31.0231 8.313 31.4485 8.709C31.8811 9.105 32.0975 9.69533 32.0975 10.48V14H31.0965V13.23C30.9205 13.5013 30.6675 13.7103 30.3375 13.857C30.0148 13.9963 29.6298 14.066 29.1825 14.066C28.5298 14.066 28.0055 13.9083 27.6095 13.593C27.2208 13.2777 27.0265 12.8633 27.0265 12.35C27.0265 11.8367 27.2135 11.426 27.5875 11.118C27.9615 10.8027 28.5555 10.645 29.3695 10.645H31.0415V10.436C31.0415 9.98133 30.9095 9.633 30.6455 9.391C30.3815 9.149 29.9928 9.028 29.4795 9.028C29.1348 9.028 28.7975 9.08667 28.4675 9.204C28.1375 9.314 27.8588 9.46433 27.6315 9.655L27.1915 8.863C27.4921 8.621 27.8515 8.43767 28.2695 8.313C28.6875 8.181 29.1311 8.115 29.6005 8.115ZM29.3585 13.252C29.7618 13.252 30.1101 13.164 30.4035 12.988C30.6968 12.8047 30.9095 12.548 31.0415 12.218V11.404H29.4135C28.5188 11.404 28.0715 11.7047 28.0715 12.306C28.0715 12.5993 28.1851 12.8303 28.4125 12.999C28.6398 13.1677 28.9551 13.252 29.3585 13.252ZM36.8647 8.115C37.6053 8.115 38.192 8.33133 38.6247 8.764C39.0647 9.18933 39.2847 9.81633 39.2847 10.645V14H38.2287V10.766C38.2287 10.2013 38.093 9.776 37.8217 9.49C37.5503 9.204 37.1617 9.061 36.6557 9.061C36.0837 9.061 35.6327 9.22967 35.3027 9.567C34.9727 9.897 34.8077 10.3737 34.8077 10.997V14H33.7517V8.17H34.7637V9.05C34.9763 8.74933 35.2623 8.51833 35.6217 8.357C35.9883 8.19567 36.4027 8.115 36.8647 8.115ZM46.2402 11.118C46.2402 11.1987 46.2329 11.305 46.2182 11.437H41.4882C41.5542 11.9503 41.7779 12.3647 42.1592 12.68C42.5479 12.988 43.0282 13.142 43.6002 13.142C44.2969 13.142 44.8579 12.9073 45.2832 12.438L45.8662 13.12C45.6022 13.428 45.2722 13.6627 44.8762 13.824C44.4875 13.9853 44.0512 14.066 43.5672 14.066C42.9512 14.066 42.4049 13.9413 41.9282 13.692C41.4515 13.4353 41.0812 13.0797 40.8172 12.625C40.5605 12.1703 40.4322 11.657 40.4322 11.085C40.4322 10.5203 40.5569 10.0107 40.8062 9.556C41.0629 9.10133 41.4112 8.74933 41.8512 8.5C42.2985 8.24333 42.8009 8.115 43.3582 8.115C43.9155 8.115 44.4105 8.24333 44.8432 8.5C45.2832 8.74933 45.6242 9.10133 45.8662 9.556C46.1155 10.0107 46.2402 10.5313 46.2402 11.118ZM43.3582 9.006C42.8522 9.006 42.4269 9.16 42.0822 9.468C41.7449 9.776 41.5469 10.1793 41.4882 10.678H45.2282C45.1695 10.1867 44.9679 9.787 44.6232 9.479C44.2859 9.16367 43.8642 9.006 43.3582 9.006ZM50.6846 13.659C50.5306 13.791 50.3399 13.8937 50.1126 13.967C49.8852 14.033 49.6506 14.066 49.4086 14.066C48.8219 14.066 48.3672 13.9083 48.0446 13.593C47.7219 13.2777 47.5606 12.8267 47.5606 12.24V9.039H46.5706V8.17H47.5606V6.894H48.6166V8.17H50.2886V9.039H48.6166V12.196C48.6166 12.5113 48.6936 12.7533 48.8476 12.922C49.0089 13.0907 49.2362 13.175 49.5296 13.175C49.8522 13.175 50.1272 13.0833 50.3546 12.9L50.6846 13.659Z" fill="white"/>
</svg>
