<svg width="75" height="21" viewBox="0 0 75 21" fill="none" xmlns="http://www.w3.org/2000/svg">
	<rect width="75" height="21" rx="6" fill="#65AFD6"/>
	<path d="M14.0706 12.075H9.97857L9.13157 14H7.99857L11.4856 6.3H12.5746L16.0726 14H14.9176L14.0706 12.075ZM13.6856 11.195L12.0246 7.422L10.3636 11.195H13.6856ZM20.12 14L18.437 11.767L16.732 14H15.555L17.854 11.019L15.665 8.17H16.842L18.448 10.271L20.043 8.17H21.198L18.998 11.019L21.319 14H20.12ZM22.1713 8.17H23.2273V14H22.1713V8.17ZM22.6993 7.048C22.494 7.048 22.3216 6.982 22.1823 6.85C22.0503 6.718 21.9843 6.55667 21.9843 6.366C21.9843 6.17533 22.0503 6.014 22.1823 5.882C22.3216 5.74267 22.494 5.673 22.6993 5.673C22.9046 5.673 23.0733 5.739 23.2053 5.871C23.3446 5.99567 23.4143 6.15333 23.4143 6.344C23.4143 6.542 23.3446 6.71067 23.2053 6.85C23.0733 6.982 22.9046 7.048 22.6993 7.048ZM32.2366 8.115C32.9699 8.115 33.5492 8.32767 33.9746 8.753C34.4072 9.17833 34.6236 9.809 34.6236 10.645V14H33.5676V10.766C33.5676 10.2013 33.4356 9.776 33.1716 9.49C32.9149 9.204 32.5446 9.061 32.0606 9.061C31.5252 9.061 31.0999 9.22967 30.7846 9.567C30.4692 9.897 30.3116 10.3737 30.3116 10.997V14H29.2556V10.766C29.2556 10.2013 29.1236 9.776 28.8596 9.49C28.6029 9.204 28.2326 9.061 27.7486 9.061C27.2132 9.061 26.7879 9.22967 26.4726 9.567C26.1572 9.897 25.9996 10.3737 25.9996 10.997V14H24.9436V8.17H25.9556V9.039C26.1682 8.73833 26.4469 8.511 26.7916 8.357C27.1362 8.19567 27.5286 8.115 27.9686 8.115C28.4232 8.115 28.8266 8.20667 29.1786 8.39C29.5306 8.57333 29.8019 8.841 29.9926 9.193C30.2126 8.85567 30.5169 8.59167 30.9056 8.401C31.3016 8.21033 31.7452 8.115 32.2366 8.115ZM36.2666 8.17H37.3226V14H36.2666V8.17ZM36.7946 7.048C36.5893 7.048 36.417 6.982 36.2776 6.85C36.1456 6.718 36.0796 6.55667 36.0796 6.366C36.0796 6.17533 36.1456 6.014 36.2776 5.882C36.417 5.74267 36.5893 5.673 36.7946 5.673C37 5.673 37.1686 5.739 37.3006 5.871C37.44 5.99567 37.5096 6.15333 37.5096 6.344C37.5096 6.542 37.44 6.71067 37.3006 6.85C37.1686 6.982 37 7.048 36.7946 7.048ZM41.5359 14.066C40.9566 14.066 40.4359 13.9377 39.9739 13.681C39.5119 13.4243 39.1489 13.0723 38.8849 12.625C38.6282 12.1703 38.4999 11.657 38.4999 11.085C38.4999 10.513 38.6282 10.0033 38.8849 9.556C39.1489 9.10133 39.5119 8.74933 39.9739 8.5C40.4359 8.24333 40.9566 8.115 41.5359 8.115C42.1152 8.115 42.6322 8.24333 43.0869 8.5C43.5489 8.74933 43.9082 9.10133 44.1649 9.556C44.4289 10.0033 44.5609 10.513 44.5609 11.085C44.5609 11.657 44.4289 12.1703 44.1649 12.625C43.9082 13.0723 43.5489 13.4243 43.0869 13.681C42.6322 13.9377 42.1152 14.066 41.5359 14.066ZM41.5359 13.142C41.9099 13.142 42.2436 13.0577 42.5369 12.889C42.8376 12.713 43.0722 12.471 43.2409 12.163C43.4096 11.8477 43.4939 11.4883 43.4939 11.085C43.4939 10.6817 43.4096 10.326 43.2409 10.018C43.0722 9.70267 42.8376 9.46067 42.5369 9.292C42.2436 9.12333 41.9099 9.039 41.5359 9.039C41.1619 9.039 40.8246 9.12333 40.5239 9.292C40.2306 9.46067 39.9959 9.70267 39.8199 10.018C39.6512 10.326 39.5669 10.6817 39.5669 11.085C39.5669 11.4883 39.6512 11.8477 39.8199 12.163C39.9959 12.471 40.2306 12.713 40.5239 12.889C40.8246 13.0577 41.1619 13.142 41.5359 13.142ZM48.8343 8.115C49.575 8.115 50.1616 8.33133 50.5943 8.764C51.0343 9.18933 51.2543 9.81633 51.2543 10.645V14H50.1983V10.766C50.1983 10.2013 50.0626 9.776 49.7913 9.49C49.52 9.204 49.1313 9.061 48.6253 9.061C48.0533 9.061 47.6023 9.22967 47.2723 9.567C46.9423 9.897 46.7773 10.3737 46.7773 10.997V14H45.7213V8.17H46.7333V9.05C46.946 8.74933 47.232 8.51833 47.5913 8.357C47.958 8.19567 48.3723 8.115 48.8343 8.115ZM55.3836 9.534C56.139 9.60733 56.7146 9.842 57.1106 10.238C57.5066 10.6267 57.7046 11.1253 57.7046 11.734C57.7046 12.174 57.5946 12.5737 57.3746 12.933C57.1546 13.285 56.8246 13.5673 56.3846 13.78C55.952 13.9853 55.4203 14.088 54.7896 14.088C54.2396 14.088 53.7116 14.0073 53.2056 13.846C52.6996 13.6773 52.2853 13.4463 51.9626 13.153L52.4686 12.284C52.7326 12.5333 53.07 12.735 53.4806 12.889C53.8913 13.0357 54.3276 13.109 54.7896 13.109C55.3616 13.109 55.8053 12.988 56.1206 12.746C56.4433 12.504 56.6046 12.1703 56.6046 11.745C56.6046 11.3197 56.447 10.9897 56.1316 10.755C55.8163 10.5203 55.3396 10.403 54.7016 10.403H54.0856V9.633L56.0216 7.257H52.3146V6.3H57.3966V7.048L55.3836 9.534ZM59.0575 6.3H62.3025C63.1165 6.3 63.8389 6.46133 64.4695 6.784C65.1002 7.10667 65.5879 7.56133 65.9325 8.148C66.2845 8.72733 66.4605 9.39467 66.4605 10.15C66.4605 10.9053 66.2845 11.5763 65.9325 12.163C65.5879 12.7423 65.1002 13.1933 64.4695 13.516C63.8389 13.8387 63.1165 14 62.3025 14H59.0575V6.3ZM62.2365 13.043C62.8599 13.043 63.4062 12.922 63.8755 12.68C64.3522 12.438 64.7189 12.1007 64.9755 11.668C65.2322 11.228 65.3605 10.722 65.3605 10.15C65.3605 9.578 65.2322 9.07567 64.9755 8.643C64.7189 8.203 64.3522 7.862 63.8755 7.62C63.4062 7.378 62.8599 7.257 62.2365 7.257H60.1575V13.043H62.2365Z" fill="white"/>
</svg>
