<svg width="315" height="41" viewBox="0 0 315 41" fill="none" xmlns="http://www.w3.org/2000/svg">
<path d="M4.966 2.9C5.75467 2.9 6.43933 3.03 7.02 3.29C7.60933 3.55 8.06 3.92267 8.372 4.408C8.684 4.89333 8.84 5.46967 8.84 6.137C8.84 6.79567 8.684 7.372 8.372 7.866C8.06 8.35133 7.60933 8.724 7.02 8.984C6.43933 9.244 5.75467 9.374 4.966 9.374H2.912V12H1.222V2.9H4.966ZM4.888 7.944C5.62467 7.944 6.18367 7.788 6.565 7.476C6.94633 7.164 7.137 6.71767 7.137 6.137C7.137 5.55633 6.94633 5.11 6.565 4.798C6.18367 4.486 5.62467 4.33 4.888 4.33H2.912V7.944H4.888ZM11.5552 6.072C12.0232 5.344 12.8465 4.98 14.0252 4.98V6.527C13.8865 6.501 13.7609 6.488 13.6482 6.488C13.0155 6.488 12.5215 6.67433 12.1662 7.047C11.8109 7.411 11.6332 7.93967 11.6332 8.633V12H10.0082V5.058H11.5552V6.072ZM18.1602 12.091C17.4582 12.091 16.8256 11.9393 16.2622 11.636C15.6989 11.3327 15.2569 10.9123 14.9362 10.375C14.6242 9.829 14.4682 9.21367 14.4682 8.529C14.4682 7.84433 14.6242 7.23333 14.9362 6.696C15.2569 6.15867 15.6989 5.73833 16.2622 5.435C16.8256 5.13167 17.4582 4.98 18.1602 4.98C18.8709 4.98 19.5079 5.13167 20.0712 5.435C20.6346 5.73833 21.0722 6.15867 21.3842 6.696C21.7049 7.23333 21.8652 7.84433 21.8652 8.529C21.8652 9.21367 21.7049 9.829 21.3842 10.375C21.0722 10.9123 20.6346 11.3327 20.0712 11.636C19.5079 11.9393 18.8709 12.091 18.1602 12.091ZM18.1602 10.7C18.7582 10.7 19.2522 10.5007 19.6422 10.102C20.0322 9.70333 20.2272 9.179 20.2272 8.529C20.2272 7.879 20.0322 7.35467 19.6422 6.956C19.2522 6.55733 18.7582 6.358 18.1602 6.358C17.5622 6.358 17.0682 6.55733 16.6782 6.956C16.2969 7.35467 16.1062 7.879 16.1062 8.529C16.1062 9.179 16.2969 9.70333 16.6782 10.102C17.0682 10.5007 17.5622 10.7 18.1602 10.7ZM29.9181 2.354V12H28.3581V11.103C28.0895 11.4323 27.7558 11.6793 27.3571 11.844C26.9671 12.0087 26.5338 12.091 26.0571 12.091C25.3898 12.091 24.7875 11.9437 24.2501 11.649C23.7215 11.3543 23.3055 10.9383 23.0021 10.401C22.6988 9.855 22.5471 9.231 22.5471 8.529C22.5471 7.827 22.6988 7.20733 23.0021 6.67C23.3055 6.13267 23.7215 5.71667 24.2501 5.422C24.7875 5.12733 25.3898 4.98 26.0571 4.98C26.5165 4.98 26.9368 5.058 27.3181 5.214C27.6995 5.37 28.0245 5.604 28.2931 5.916V2.354H29.9181ZM26.2521 10.7C26.6421 10.7 26.9931 10.6133 27.3051 10.44C27.6171 10.258 27.8641 10.0023 28.0461 9.673C28.2281 9.34367 28.3191 8.96233 28.3191 8.529C28.3191 8.09567 28.2281 7.71433 28.0461 7.385C27.8641 7.05567 27.6171 6.80433 27.3051 6.631C26.9931 6.449 26.6421 6.358 26.2521 6.358C25.8621 6.358 25.5111 6.449 25.1991 6.631C24.8871 6.80433 24.6401 7.05567 24.4581 7.385C24.2761 7.71433 24.1851 8.09567 24.1851 8.529C24.1851 8.96233 24.2761 9.34367 24.4581 9.673C24.6401 10.0023 24.8871 10.258 25.1991 10.44C25.5111 10.6133 25.8621 10.7 26.2521 10.7ZM38.4649 5.058V12H36.9179V11.116C36.6579 11.428 36.3329 11.6707 35.9429 11.844C35.5529 12.0087 35.1326 12.091 34.6819 12.091C33.7546 12.091 33.0223 11.8353 32.4849 11.324C31.9563 10.804 31.6919 10.037 31.6919 9.023V5.058H33.3169V8.802C33.3169 9.426 33.4556 9.894 33.7329 10.206C34.0189 10.5093 34.4219 10.661 34.9419 10.661C35.5226 10.661 35.9819 10.4833 36.3199 10.128C36.6666 9.764 36.8399 9.244 36.8399 8.568V5.058H38.4649ZM43.4776 12.091C42.7582 12.091 42.1126 11.9393 41.5406 11.636C40.9686 11.3327 40.5222 10.9123 40.2016 10.375C39.8809 9.829 39.7206 9.21367 39.7206 8.529C39.7206 7.84433 39.8809 7.23333 40.2016 6.696C40.5222 6.15867 40.9642 5.73833 41.5276 5.435C42.0996 5.13167 42.7496 4.98 43.4776 4.98C44.1622 4.98 44.7602 5.11867 45.2716 5.396C45.7916 5.67333 46.1816 6.072 46.4416 6.592L45.1936 7.32C44.9942 6.99933 44.7429 6.761 44.4396 6.605C44.1449 6.44033 43.8199 6.358 43.4646 6.358C42.8579 6.358 42.3552 6.55733 41.9566 6.956C41.5579 7.346 41.3586 7.87033 41.3586 8.529C41.3586 9.18767 41.5536 9.71633 41.9436 10.115C42.3422 10.505 42.8492 10.7 43.4646 10.7C43.8199 10.7 44.1449 10.622 44.4396 10.466C44.7429 10.3013 44.9942 10.0587 45.1936 9.738L46.4416 10.466C46.1729 10.986 45.7786 11.389 45.2586 11.675C44.7472 11.9523 44.1536 12.091 43.4776 12.091ZM51.8081 11.623C51.6175 11.779 51.3835 11.896 51.1061 11.974C50.8375 12.052 50.5515 12.091 50.2481 12.091C49.4855 12.091 48.8961 11.8917 48.4801 11.493C48.0641 11.0943 47.8561 10.5137 47.8561 9.751V6.41H46.7121V5.11H47.8561V3.524H49.4811V5.11H51.3401V6.41H49.4811V9.712C49.4811 10.05 49.5635 10.31 49.7281 10.492C49.8928 10.6653 50.1311 10.752 50.4431 10.752C50.8071 10.752 51.1105 10.6567 51.3531 10.466L51.8081 11.623ZM54.9899 12.091C54.4266 12.091 53.8762 12.0173 53.3389 11.87C52.8016 11.7227 52.3726 11.5363 52.0519 11.311L52.6759 10.076C52.9879 10.284 53.3606 10.453 53.7939 10.583C54.2359 10.7043 54.6692 10.765 55.0939 10.765C56.0646 10.765 56.5499 10.5093 56.5499 9.998C56.5499 9.75533 56.4242 9.58633 56.1729 9.491C55.9302 9.39567 55.5359 9.30467 54.9899 9.218C54.4179 9.13133 53.9499 9.03167 53.5859 8.919C53.2306 8.80633 52.9186 8.61133 52.6499 8.334C52.3899 8.048 52.2599 7.65367 52.2599 7.151C52.2599 6.49233 52.5329 5.968 53.0789 5.578C53.6336 5.17933 54.3789 4.98 55.3149 4.98C55.7916 4.98 56.2682 5.03633 56.7449 5.149C57.2216 5.253 57.6116 5.396 57.9149 5.578L57.2909 6.813C56.7016 6.46633 56.0386 6.293 55.3019 6.293C54.8252 6.293 54.4612 6.36667 54.2099 6.514C53.9672 6.65267 53.8459 6.839 53.8459 7.073C53.8459 7.333 53.9759 7.51933 54.2359 7.632C54.5046 7.736 54.9162 7.83567 55.4709 7.931C56.0256 8.01767 56.4806 8.11733 56.8359 8.23C57.1912 8.34267 57.4946 8.53333 57.7459 8.802C58.0059 9.07067 58.1359 9.452 58.1359 9.946C58.1359 10.596 57.8542 11.116 57.2909 11.506C56.7276 11.896 55.9606 12.091 54.9899 12.091Z" fill="#1F3F51"/>
<rect y="20" width="40" height="21" rx="6" fill="#65AFD6"/>
<path d="M12.415 34.088C11.3884 34.088 10.589 33.7947 10.017 33.208C9.44502 32.6213 9.15902 31.778 9.15902 30.678V26.3H10.259V30.634C10.259 32.284 10.9814 33.109 12.426 33.109C13.13 33.109 13.669 32.9073 14.043 32.504C14.417 32.0933 14.604 31.47 14.604 30.634V26.3H15.671V30.678C15.671 31.7853 15.385 32.6323 14.813 33.219C14.241 33.7983 13.4417 34.088 12.415 34.088ZM24.2482 26.3V34H23.3462L18.7262 28.258V34H17.6262V26.3H18.5282L23.1482 32.042V26.3H24.2482ZM28.497 34.088C27.9176 34.088 27.3566 34 26.814 33.824C26.2786 33.6407 25.857 33.406 25.5489 33.12L25.9559 32.262C26.2493 32.526 26.6233 32.7423 27.078 32.911C27.54 33.0723 28.013 33.153 28.497 33.153C29.135 33.153 29.6116 33.0467 29.927 32.834C30.2423 32.614 30.4 32.3243 30.4 31.965C30.4 31.701 30.312 31.4883 30.136 31.327C29.9673 31.1583 29.7546 31.03 29.498 30.942C29.2486 30.854 28.893 30.755 28.431 30.645C27.8516 30.5057 27.3823 30.3663 27.023 30.227C26.671 30.0877 26.3666 29.875 26.11 29.589C25.8606 29.2957 25.736 28.9033 25.736 28.412C25.736 28.0013 25.8423 27.631 26.055 27.301C26.275 26.971 26.605 26.707 27.0449 26.509C27.485 26.311 28.0313 26.212 28.684 26.212C29.1386 26.212 29.586 26.2707 30.026 26.388C30.466 26.5053 30.8436 26.674 31.1589 26.894L30.796 27.774C30.4733 27.5687 30.1286 27.4147 29.762 27.312C29.3953 27.202 29.036 27.147 28.684 27.147C28.0606 27.147 27.5913 27.2607 27.276 27.488C26.968 27.7153 26.814 28.0087 26.814 28.368C26.814 28.632 26.902 28.8483 27.078 29.017C27.254 29.1783 27.4703 29.3067 27.727 29.402C27.991 29.49 28.3466 29.5853 28.794 29.688C29.3733 29.8273 29.839 29.9667 30.191 30.106C30.543 30.2453 30.8436 30.458 31.093 30.744C31.3496 31.03 31.478 31.415 31.478 31.899C31.478 32.3023 31.368 32.6727 31.148 33.01C30.928 33.34 30.5943 33.604 30.147 33.802C29.6996 33.9927 29.1496 34.088 28.497 34.088Z" fill="white"/>
<rect x="50" y="20" width="75" height="21" rx="6" fill="#65AFD6"/>
<path d="M64.0706 32.075H59.9786L59.1316 34H57.9986L61.4856 26.3H62.5746L66.0726 34H64.9176L64.0706 32.075ZM63.6856 31.195L62.0246 27.422L60.3636 31.195H63.6856ZM70.12 34L68.437 31.767L66.732 34H65.555L67.854 31.019L65.665 28.17H66.842L68.448 30.271L70.043 28.17H71.198L68.998 31.019L71.319 34H70.12ZM72.1713 28.17H73.2273V34H72.1713V28.17ZM72.6993 27.048C72.494 27.048 72.3216 26.982 72.1823 26.85C72.0503 26.718 71.9843 26.5567 71.9843 26.366C71.9843 26.1753 72.0503 26.014 72.1823 25.882C72.3216 25.7427 72.494 25.673 72.6993 25.673C72.9046 25.673 73.0733 25.739 73.2053 25.871C73.3446 25.9957 73.4143 26.1533 73.4143 26.344C73.4143 26.542 73.3446 26.7107 73.2053 26.85C73.0733 26.982 72.9046 27.048 72.6993 27.048ZM82.2366 28.115C82.9699 28.115 83.5492 28.3277 83.9746 28.753C84.4072 29.1783 84.6236 29.809 84.6236 30.645V34H83.5676V30.766C83.5676 30.2013 83.4356 29.776 83.1716 29.49C82.9149 29.204 82.5446 29.061 82.0606 29.061C81.5252 29.061 81.0999 29.2297 80.7846 29.567C80.4692 29.897 80.3116 30.3737 80.3116 30.997V34H79.2556V30.766C79.2556 30.2013 79.1236 29.776 78.8596 29.49C78.6029 29.204 78.2326 29.061 77.7486 29.061C77.2132 29.061 76.7879 29.2297 76.4726 29.567C76.1572 29.897 75.9996 30.3737 75.9996 30.997V34H74.9436V28.17H75.9556V29.039C76.1682 28.7383 76.4469 28.511 76.7916 28.357C77.1362 28.1957 77.5286 28.115 77.9686 28.115C78.4232 28.115 78.8266 28.2067 79.1786 28.39C79.5306 28.5733 79.8019 28.841 79.9926 29.193C80.2126 28.8557 80.5169 28.5917 80.9056 28.401C81.3016 28.2103 81.7452 28.115 82.2366 28.115ZM86.2666 28.17H87.3226V34H86.2666V28.17ZM86.7946 27.048C86.5893 27.048 86.417 26.982 86.2776 26.85C86.1456 26.718 86.0796 26.5567 86.0796 26.366C86.0796 26.1753 86.1456 26.014 86.2776 25.882C86.417 25.7427 86.5893 25.673 86.7946 25.673C87 25.673 87.1686 25.739 87.3006 25.871C87.44 25.9957 87.5096 26.1533 87.5096 26.344C87.5096 26.542 87.44 26.7107 87.3006 26.85C87.1686 26.982 87 27.048 86.7946 27.048ZM91.5359 34.066C90.9566 34.066 90.4359 33.9377 89.9739 33.681C89.5119 33.4243 89.1489 33.0723 88.8849 32.625C88.6282 32.1703 88.4999 31.657 88.4999 31.085C88.4999 30.513 88.6282 30.0033 88.8849 29.556C89.1489 29.1013 89.5119 28.7493 89.9739 28.5C90.4359 28.2433 90.9566 28.115 91.5359 28.115C92.1152 28.115 92.6322 28.2433 93.0869 28.5C93.5489 28.7493 93.9082 29.1013 94.1649 29.556C94.4289 30.0033 94.5609 30.513 94.5609 31.085C94.5609 31.657 94.4289 32.1703 94.1649 32.625C93.9082 33.0723 93.5489 33.4243 93.0869 33.681C92.6322 33.9377 92.1152 34.066 91.5359 34.066ZM91.5359 33.142C91.9099 33.142 92.2436 33.0577 92.5369 32.889C92.8376 32.713 93.0722 32.471 93.2409 32.163C93.4096 31.8477 93.4939 31.4883 93.4939 31.085C93.4939 30.6817 93.4096 30.326 93.2409 30.018C93.0722 29.7027 92.8376 29.4607 92.5369 29.292C92.2436 29.1233 91.9099 29.039 91.5359 29.039C91.1619 29.039 90.8246 29.1233 90.5239 29.292C90.2306 29.4607 89.9959 29.7027 89.8199 30.018C89.6512 30.326 89.5669 30.6817 89.5669 31.085C89.5669 31.4883 89.6512 31.8477 89.8199 32.163C89.9959 32.471 90.2306 32.713 90.5239 32.889C90.8246 33.0577 91.1619 33.142 91.5359 33.142ZM98.8343 28.115C99.575 28.115 100.162 28.3313 100.594 28.764C101.034 29.1893 101.254 29.8163 101.254 30.645V34H100.198V30.766C100.198 30.2013 100.063 29.776 99.7913 29.49C99.52 29.204 99.1313 29.061 98.6253 29.061C98.0533 29.061 97.6023 29.2297 97.2723 29.567C96.9423 29.897 96.7773 30.3737 96.7773 30.997V34H95.7213V28.17H96.7333V29.05C96.946 28.7493 97.232 28.5183 97.5913 28.357C97.958 28.1957 98.3723 28.115 98.8343 28.115ZM105.384 29.534C106.139 29.6073 106.715 29.842 107.111 30.238C107.507 30.6267 107.705 31.1253 107.705 31.734C107.705 32.174 107.595 32.5737 107.375 32.933C107.155 33.285 106.825 33.5673 106.385 33.78C105.952 33.9853 105.42 34.088 104.79 34.088C104.24 34.088 103.712 34.0073 103.206 33.846C102.7 33.6773 102.285 33.4463 101.963 33.153L102.469 32.284C102.733 32.5333 103.07 32.735 103.481 32.889C103.891 33.0357 104.328 33.109 104.79 33.109C105.362 33.109 105.805 32.988 106.121 32.746C106.443 32.504 106.605 32.1703 106.605 31.745C106.605 31.3197 106.447 30.9897 106.132 30.755C105.816 30.5203 105.34 30.403 104.702 30.403H104.086V29.633L106.022 27.257H102.315V26.3H107.397V27.048L105.384 29.534ZM109.058 26.3H112.303C113.117 26.3 113.839 26.4613 114.47 26.784C115.1 27.1067 115.588 27.5613 115.933 28.148C116.285 28.7273 116.461 29.3947 116.461 30.15C116.461 30.9053 116.285 31.5763 115.933 32.163C115.588 32.7423 115.1 33.1933 114.47 33.516C113.839 33.8387 113.117 34 112.303 34H109.058V26.3ZM112.237 33.043C112.86 33.043 113.406 32.922 113.876 32.68C114.352 32.438 114.719 32.1007 114.976 31.668C115.232 31.228 115.361 30.722 115.361 30.15C115.361 29.578 115.232 29.0757 114.976 28.643C114.719 28.203 114.352 27.862 113.876 27.62C113.406 27.378 112.86 27.257 112.237 27.257H110.158V33.043H112.237Z" fill="white"/>
<rect x="135" y="20" width="59" height="21" rx="6" fill="#65AFD6"/>
<path d="M149.475 28.17V34H148.474V33.12C148.261 33.4207 147.979 33.6553 147.627 33.824C147.282 33.9853 146.904 34.066 146.494 34.066C145.716 34.066 145.104 33.8533 144.657 33.428C144.209 32.9953 143.986 32.361 143.986 31.525V28.17H145.042V31.404C145.042 31.9687 145.177 32.3977 145.449 32.691C145.72 32.977 146.109 33.12 146.615 33.12C147.172 33.12 147.612 32.9513 147.935 32.614C148.257 32.2767 148.419 31.8 148.419 31.184V28.17H149.475ZM151.185 25.838H152.241V34H151.185V25.838ZM157.375 33.659C157.221 33.791 157.03 33.8937 156.803 33.967C156.576 34.033 156.341 34.066 156.099 34.066C155.512 34.066 155.058 33.9083 154.735 33.593C154.412 33.2777 154.251 32.8267 154.251 32.24V29.039H153.261V28.17H154.251V26.894H155.307V28.17H156.979V29.039H155.307V32.196C155.307 32.5113 155.384 32.7533 155.538 32.922C155.699 33.0907 155.927 33.175 156.22 33.175C156.543 33.175 156.818 33.0833 157.045 32.9L157.375 33.659ZM159.364 29.149C159.547 28.8117 159.818 28.555 160.178 28.379C160.537 28.203 160.973 28.115 161.487 28.115V29.138C161.428 29.1307 161.347 29.127 161.245 29.127C160.673 29.127 160.222 29.2993 159.892 29.644C159.569 29.9813 159.408 30.4653 159.408 31.096V34H158.352V28.17H159.364V29.149ZM164.6 28.115C165.407 28.115 166.023 28.313 166.448 28.709C166.881 29.105 167.097 29.6953 167.097 30.48V34H166.096V33.23C165.92 33.5013 165.667 33.7103 165.337 33.857C165.015 33.9963 164.63 34.066 164.182 34.066C163.53 34.066 163.005 33.9083 162.609 33.593C162.221 33.2777 162.026 32.8633 162.026 32.35C162.026 31.8367 162.213 31.426 162.587 31.118C162.961 30.8027 163.555 30.645 164.369 30.645H166.041V30.436C166.041 29.9813 165.909 29.633 165.645 29.391C165.381 29.149 164.993 29.028 164.479 29.028C164.135 29.028 163.797 29.0867 163.467 29.204C163.137 29.314 162.859 29.4643 162.631 29.655L162.191 28.863C162.492 28.621 162.851 28.4377 163.269 28.313C163.687 28.181 164.131 28.115 164.6 28.115ZM164.358 33.252C164.762 33.252 165.11 33.164 165.403 32.988C165.697 32.8047 165.909 32.548 166.041 32.218V31.404H164.413C163.519 31.404 163.071 31.7047 163.071 32.306C163.071 32.5993 163.185 32.8303 163.412 32.999C163.64 33.1677 163.955 33.252 164.358 33.252ZM171.865 28.115C172.605 28.115 173.192 28.3313 173.625 28.764C174.065 29.1893 174.285 29.8163 174.285 30.645V34H173.229V30.766C173.229 30.2013 173.093 29.776 172.822 29.49C172.55 29.204 172.162 29.061 171.656 29.061C171.084 29.061 170.633 29.2297 170.303 29.567C169.973 29.897 169.808 30.3737 169.808 30.997V34H168.752V28.17H169.764V29.05C169.976 28.7493 170.262 28.5183 170.622 28.357C170.988 28.1957 171.403 28.115 171.865 28.115ZM181.24 31.118C181.24 31.1987 181.233 31.305 181.218 31.437H176.488C176.554 31.9503 176.778 32.3647 177.159 32.68C177.548 32.988 178.028 33.142 178.6 33.142C179.297 33.142 179.858 32.9073 180.283 32.438L180.866 33.12C180.602 33.428 180.272 33.6627 179.876 33.824C179.488 33.9853 179.051 34.066 178.567 34.066C177.951 34.066 177.405 33.9413 176.928 33.692C176.452 33.4353 176.081 33.0797 175.817 32.625C175.561 32.1703 175.432 31.657 175.432 31.085C175.432 30.5203 175.557 30.0107 175.806 29.556C176.063 29.1013 176.411 28.7493 176.851 28.5C177.299 28.2433 177.801 28.115 178.358 28.115C178.916 28.115 179.411 28.2433 179.843 28.5C180.283 28.7493 180.624 29.1013 180.866 29.556C181.116 30.0107 181.24 30.5313 181.24 31.118ZM178.358 29.006C177.852 29.006 177.427 29.16 177.082 29.468C176.745 29.776 176.547 30.1793 176.488 30.678H180.228C180.17 30.1867 179.968 29.787 179.623 29.479C179.286 29.1637 178.864 29.006 178.358 29.006ZM185.685 33.659C185.531 33.791 185.34 33.8937 185.113 33.967C184.885 34.033 184.651 34.066 184.409 34.066C183.822 34.066 183.367 33.9083 183.045 33.593C182.722 33.2777 182.561 32.8267 182.561 32.24V29.039H181.571V28.17H182.561V26.894H183.617V28.17H185.289V29.039H183.617V32.196C183.617 32.5113 183.694 32.7533 183.848 32.922C184.009 33.0907 184.236 33.175 184.53 33.175C184.852 33.175 185.127 33.0833 185.355 32.9L185.685 33.659Z" fill="white"/>
<path d="M215.485 28.115C216.292 28.115 216.908 28.313 217.333 28.709C217.766 29.105 217.982 29.6953 217.982 30.48V34H216.981V33.23C216.805 33.5013 216.552 33.7103 216.222 33.857C215.9 33.9963 215.515 34.066 215.067 34.066C214.415 34.066 213.89 33.9083 213.494 33.593C213.106 33.2777 212.911 32.8633 212.911 32.35C212.911 31.8367 213.098 31.426 213.472 31.118C213.846 30.8027 214.44 30.645 215.254 30.645H216.926V30.436C216.926 29.9813 216.794 29.633 216.53 29.391C216.266 29.149 215.878 29.028 215.364 29.028C215.02 29.028 214.682 29.0867 214.352 29.204C214.022 29.314 213.744 29.4643 213.516 29.655L213.076 28.863C213.377 28.621 213.736 28.4377 214.154 28.313C214.572 28.181 215.016 28.115 215.485 28.115ZM215.243 33.252C215.647 33.252 215.995 33.164 216.288 32.988C216.582 32.8047 216.794 32.548 216.926 32.218V31.404H215.298C214.404 31.404 213.956 31.7047 213.956 32.306C213.956 32.5993 214.07 32.8303 214.297 32.999C214.525 33.1677 214.84 33.252 215.243 33.252ZM222.749 28.115C223.49 28.115 224.077 28.3313 224.509 28.764C224.949 29.1893 225.169 29.8163 225.169 30.645V34H224.113V30.766C224.113 30.2013 223.978 29.776 223.706 29.49C223.435 29.204 223.046 29.061 222.54 29.061C221.968 29.061 221.517 29.2297 221.187 29.567C220.857 29.897 220.692 30.3737 220.692 30.997V34H219.636V28.17H220.648V29.05C220.861 28.7493 221.147 28.5183 221.506 28.357C221.873 28.1957 222.287 28.115 222.749 28.115ZM232.356 25.838V34H231.344V33.076C231.109 33.3987 230.812 33.6443 230.453 33.813C230.094 33.9817 229.698 34.066 229.265 34.066C228.7 34.066 228.194 33.9413 227.747 33.692C227.3 33.4427 226.948 33.0943 226.691 32.647C226.442 32.1923 226.317 31.6717 226.317 31.085C226.317 30.4983 226.442 29.9813 226.691 29.534C226.948 29.0867 227.3 28.7383 227.747 28.489C228.194 28.2397 228.7 28.115 229.265 28.115C229.683 28.115 230.068 28.1957 230.42 28.357C230.772 28.511 231.065 28.742 231.3 29.05V25.838H232.356ZM229.353 33.142C229.72 33.142 230.053 33.0577 230.354 32.889C230.655 32.713 230.889 32.471 231.058 32.163C231.227 31.8477 231.311 31.4883 231.311 31.085C231.311 30.6817 231.227 30.326 231.058 30.018C230.889 29.7027 230.655 29.4607 230.354 29.292C230.053 29.1233 229.72 29.039 229.353 29.039C228.979 29.039 228.642 29.1233 228.341 29.292C228.048 29.4607 227.813 29.7027 227.637 30.018C227.468 30.326 227.384 30.6817 227.384 31.085C227.384 31.4883 227.468 31.8477 227.637 32.163C227.813 32.471 228.048 32.713 228.341 32.889C228.642 33.0577 228.979 33.142 229.353 33.142ZM238.622 26.3V34H237.533V27.257H235.795V26.3H238.622ZM243.152 34.088C242.544 34.088 242.001 33.934 241.524 33.626C241.055 33.3107 240.685 32.856 240.413 32.262C240.142 31.668 240.006 30.964 240.006 30.15C240.006 29.336 240.142 28.632 240.413 28.038C240.685 27.444 241.055 26.993 241.524 26.685C242.001 26.3697 242.544 26.212 243.152 26.212C243.754 26.212 244.289 26.3697 244.758 26.685C245.235 26.993 245.609 27.444 245.88 28.038C246.152 28.632 246.287 29.336 246.287 30.15C246.287 30.964 246.152 31.668 245.88 32.262C245.609 32.856 245.235 33.3107 244.758 33.626C244.289 33.934 243.754 34.088 243.152 34.088ZM243.152 33.109C243.768 33.109 244.26 32.856 244.626 32.35C245 31.844 245.187 31.1107 245.187 30.15C245.187 29.1893 245 28.456 244.626 27.95C244.26 27.444 243.768 27.191 243.152 27.191C242.529 27.191 242.03 27.444 241.656 27.95C241.29 28.456 241.106 29.1893 241.106 30.15C241.106 31.1107 241.29 31.844 241.656 32.35C242.03 32.856 242.529 33.109 243.152 33.109ZM250.189 34.088C249.581 34.088 249.038 33.934 248.561 33.626C248.092 33.3107 247.722 32.856 247.45 32.262C247.179 31.668 247.043 30.964 247.043 30.15C247.043 29.336 247.179 28.632 247.45 28.038C247.722 27.444 248.092 26.993 248.561 26.685C249.038 26.3697 249.581 26.212 250.189 26.212C250.791 26.212 251.326 26.3697 251.795 26.685C252.272 26.993 252.646 27.444 252.917 28.038C253.189 28.632 253.324 29.336 253.324 30.15C253.324 30.964 253.189 31.668 252.917 32.262C252.646 32.856 252.272 33.3107 251.795 33.626C251.326 33.934 250.791 34.088 250.189 34.088ZM250.189 33.109C250.805 33.109 251.297 32.856 251.663 32.35C252.037 31.844 252.224 31.1107 252.224 30.15C252.224 29.1893 252.037 28.456 251.663 27.95C251.297 27.444 250.805 27.191 250.189 27.191C249.566 27.191 249.067 27.444 248.693 27.95C248.327 28.456 248.143 29.1893 248.143 30.15C248.143 31.1107 248.327 31.844 248.693 32.35C249.067 32.856 249.566 33.109 250.189 33.109ZM264.5 28.115C265.234 28.115 265.813 28.3277 266.238 28.753C266.671 29.1783 266.887 29.809 266.887 30.645V34H265.831V30.766C265.831 30.2013 265.699 29.776 265.435 29.49C265.179 29.204 264.808 29.061 264.324 29.061C263.789 29.061 263.364 29.2297 263.048 29.567C262.733 29.897 262.575 30.3737 262.575 30.997V34H261.519V30.766C261.519 30.2013 261.387 29.776 261.123 29.49C260.867 29.204 260.496 29.061 260.012 29.061C259.477 29.061 259.052 29.2297 258.736 29.567C258.421 29.897 258.263 30.3737 258.263 30.997V34H257.207V28.17H258.219V29.039C258.432 28.7383 258.711 28.511 259.055 28.357C259.4 28.1957 259.792 28.115 260.232 28.115C260.687 28.115 261.09 28.2067 261.442 28.39C261.794 28.5733 262.066 28.841 262.256 29.193C262.476 28.8557 262.781 28.5917 263.169 28.401C263.565 28.2103 264.009 28.115 264.5 28.115ZM271.06 34.066C270.48 34.066 269.96 33.9377 269.498 33.681C269.036 33.4243 268.673 33.0723 268.409 32.625C268.152 32.1703 268.024 31.657 268.024 31.085C268.024 30.513 268.152 30.0033 268.409 29.556C268.673 29.1013 269.036 28.7493 269.498 28.5C269.96 28.2433 270.48 28.115 271.06 28.115C271.639 28.115 272.156 28.2433 272.611 28.5C273.073 28.7493 273.432 29.1013 273.689 29.556C273.953 30.0033 274.085 30.513 274.085 31.085C274.085 31.657 273.953 32.1703 273.689 32.625C273.432 33.0723 273.073 33.4243 272.611 33.681C272.156 33.9377 271.639 34.066 271.06 34.066ZM271.06 33.142C271.434 33.142 271.767 33.0577 272.061 32.889C272.361 32.713 272.596 32.471 272.765 32.163C272.933 31.8477 273.018 31.4883 273.018 31.085C273.018 30.6817 272.933 30.326 272.765 30.018C272.596 29.7027 272.361 29.4607 272.061 29.292C271.767 29.1233 271.434 29.039 271.06 29.039C270.686 29.039 270.348 29.1233 270.048 29.292C269.754 29.4607 269.52 29.7027 269.344 30.018C269.175 30.326 269.091 30.6817 269.091 31.085C269.091 31.4883 269.175 31.8477 269.344 32.163C269.52 32.471 269.754 32.713 270.048 32.889C270.348 33.0577 270.686 33.142 271.06 33.142ZM276.257 29.149C276.44 28.8117 276.712 28.555 277.071 28.379C277.43 28.203 277.867 28.115 278.38 28.115V29.138C278.321 29.1307 278.241 29.127 278.138 29.127C277.566 29.127 277.115 29.2993 276.785 29.644C276.462 29.9813 276.301 30.4653 276.301 31.096V34H275.245V28.17H276.257V29.149ZM284.597 31.118C284.597 31.1987 284.59 31.305 284.575 31.437H279.845C279.911 31.9503 280.135 32.3647 280.516 32.68C280.905 32.988 281.385 33.142 281.957 33.142C282.654 33.142 283.215 32.9073 283.64 32.438L284.223 33.12C283.959 33.428 283.629 33.6627 283.233 33.824C282.844 33.9853 282.408 34.066 281.924 34.066C281.308 34.066 280.762 33.9413 280.285 33.692C279.808 33.4353 279.438 33.0797 279.174 32.625C278.917 32.1703 278.789 31.657 278.789 31.085C278.789 30.5203 278.914 30.0107 279.163 29.556C279.42 29.1013 279.768 28.7493 280.208 28.5C280.655 28.2433 281.158 28.115 281.715 28.115C282.272 28.115 282.767 28.2433 283.2 28.5C283.64 28.7493 283.981 29.1013 284.223 29.556C284.472 30.0107 284.597 30.5313 284.597 31.118ZM281.715 29.006C281.209 29.006 280.784 29.16 280.439 29.468C280.102 29.776 279.904 30.1793 279.845 30.678H283.585C283.526 30.1867 283.325 29.787 282.98 29.479C282.643 29.1637 282.221 29.006 281.715 29.006ZM286.016 34.066C285.811 34.066 285.635 33.9963 285.488 33.857C285.342 33.7103 285.268 33.527 285.268 33.307C285.268 33.0943 285.342 32.9183 285.488 32.779C285.635 32.6323 285.811 32.559 286.016 32.559C286.222 32.559 286.394 32.6287 286.533 32.768C286.673 32.9073 286.742 33.087 286.742 33.307C286.742 33.527 286.669 33.7103 286.522 33.857C286.383 33.9963 286.214 34.066 286.016 34.066ZM288.208 34.066C288.003 34.066 287.827 33.9963 287.68 33.857C287.534 33.7103 287.46 33.527 287.46 33.307C287.46 33.0943 287.534 32.9183 287.68 32.779C287.827 32.6323 288.003 32.559 288.208 32.559C288.414 32.559 288.586 32.6287 288.725 32.768C288.865 32.9073 288.934 33.087 288.934 33.307C288.934 33.527 288.861 33.7103 288.714 33.857C288.575 33.9963 288.406 34.066 288.208 34.066ZM290.401 34.066C290.195 34.066 290.019 33.9963 289.873 33.857C289.726 33.7103 289.653 33.527 289.653 33.307C289.653 33.0943 289.726 32.9183 289.873 32.779C290.019 32.6323 290.195 32.559 290.401 32.559C290.606 32.559 290.778 32.6287 290.918 32.768C291.057 32.9073 291.127 33.087 291.127 33.307C291.127 33.527 291.053 33.7103 290.907 33.857C290.767 33.9963 290.599 34.066 290.401 34.066Z" fill="#7199A8"/>
<path d="M212.361 35.1H291.644V35.65H212.361V35.1Z" fill="#7199A8"/>
</svg>
