<svg width="163" height="50" viewBox="0 0 163 50" fill="none" xmlns="http://www.w3.org/2000/svg">
<g clip-path="url(#clip0_667_119658)">
<path d="M0 20C0 10.5719 0 5.85786 2.92893 2.92893C5.85786 0 10.5719 0 20 0H142.5C151.928 0 156.642 0 159.571 2.92893C162.5 5.85786 162.5 10.5719 162.5 20V30C162.5 39.4281 162.5 44.1421 159.571 47.0711C156.642 50 151.928 50 142.5 50H20C10.5719 50 5.85786 50 2.92893 47.0711C0 44.1421 0 39.4281 0 30V20Z" fill="#65AFD6"/>
<path d="M63.4237 30L61.5647 27.335C61.4867 27.3437 61.3697 27.348 61.2137 27.348H59.1597V30H57.4697V20.9H61.2137C62.0023 20.9 62.687 21.03 63.2677 21.29C63.857 21.55 64.3077 21.9227 64.6197 22.408C64.9317 22.8933 65.0877 23.4697 65.0877 24.137C65.0877 24.8217 64.9187 25.411 64.5807 25.905C64.2513 26.399 63.7747 26.7673 63.1507 27.01L65.2437 30H63.4237ZM63.3847 24.137C63.3847 23.5563 63.194 23.11 62.8127 22.798C62.4313 22.486 61.8723 22.33 61.1357 22.33H59.1597V25.957H61.1357C61.8723 25.957 62.4313 25.801 62.8127 25.489C63.194 25.1683 63.3847 24.7177 63.3847 24.137ZM73.0484 26.568C73.0484 26.6807 73.0398 26.841 73.0224 27.049H67.5754C67.6708 27.5603 67.9178 27.9677 68.3164 28.271C68.7238 28.5657 69.2264 28.713 69.8244 28.713C70.5871 28.713 71.2154 28.4617 71.7094 27.959L72.5804 28.96C72.2684 29.3327 71.8741 29.6143 71.3974 29.805C70.9208 29.9957 70.3834 30.091 69.7854 30.091C69.0228 30.091 68.3511 29.9393 67.7704 29.636C67.1898 29.3327 66.7391 28.9123 66.4184 28.375C66.1064 27.829 65.9504 27.2137 65.9504 26.529C65.9504 25.853 66.1021 25.2463 66.4054 24.709C66.7174 24.163 67.1464 23.7383 67.6924 23.435C68.2384 23.1317 68.8538 22.98 69.5384 22.98C70.2144 22.98 70.8168 23.1317 71.3454 23.435C71.8828 23.7297 72.2988 24.15 72.5934 24.696C72.8968 25.2333 73.0484 25.8573 73.0484 26.568ZM69.5384 24.28C69.0184 24.28 68.5764 24.436 68.2124 24.748C67.8571 25.0513 67.6404 25.4587 67.5624 25.97H71.5014C71.4321 25.4673 71.2198 25.06 70.8644 24.748C70.5091 24.436 70.0671 24.28 69.5384 24.28ZM77.4944 30.091C76.775 30.091 76.1294 29.9393 75.5574 29.636C74.9854 29.3327 74.539 28.9123 74.2184 28.375C73.8977 27.829 73.7374 27.2137 73.7374 26.529C73.7374 25.8443 73.8977 25.2333 74.2184 24.696C74.539 24.1587 74.981 23.7383 75.5444 23.435C76.1164 23.1317 76.7664 22.98 77.4944 22.98C78.179 22.98 78.777 23.1187 79.2884 23.396C79.8084 23.6733 80.1984 24.072 80.4584 24.592L79.2104 25.32C79.011 24.9993 78.7597 24.761 78.4564 24.605C78.1617 24.4403 77.8367 24.358 77.4814 24.358C76.8747 24.358 76.372 24.5573 75.9734 24.956C75.5747 25.346 75.3754 25.8703 75.3754 26.529C75.3754 27.1877 75.5704 27.7163 75.9604 28.115C76.359 28.505 76.866 28.7 77.4814 28.7C77.8367 28.7 78.1617 28.622 78.4564 28.466C78.7597 28.3013 79.011 28.0587 79.2104 27.738L80.4584 28.466C80.1897 28.986 79.7954 29.389 79.2754 29.675C78.764 29.9523 78.1704 30.091 77.4944 30.091ZM87.9875 26.568C87.9875 26.6807 87.9788 26.841 87.9615 27.049H82.5145C82.6098 27.5603 82.8568 27.9677 83.2555 28.271C83.6628 28.5657 84.1655 28.713 84.7635 28.713C85.5262 28.713 86.1545 28.4617 86.6485 27.959L87.5195 28.96C87.2075 29.3327 86.8132 29.6143 86.3365 29.805C85.8598 29.9957 85.3225 30.091 84.7245 30.091C83.9618 30.091 83.2902 29.9393 82.7095 29.636C82.1288 29.3327 81.6782 28.9123 81.3575 28.375C81.0455 27.829 80.8895 27.2137 80.8895 26.529C80.8895 25.853 81.0412 25.2463 81.3445 24.709C81.6565 24.163 82.0855 23.7383 82.6315 23.435C83.1775 23.1317 83.7928 22.98 84.4775 22.98C85.1535 22.98 85.7558 23.1317 86.2845 23.435C86.8218 23.7297 87.2378 24.15 87.5325 24.696C87.8358 25.2333 87.9875 25.8573 87.9875 26.568ZM84.4775 24.28C83.9575 24.28 83.5155 24.436 83.1515 24.748C82.7962 25.0513 82.5795 25.4587 82.5015 25.97H86.4405C86.3712 25.4673 86.1588 25.06 85.8035 24.748C85.4482 24.436 85.0062 24.28 84.4775 24.28ZM89.2484 23.058H90.8734V30H89.2484V23.058ZM90.0674 21.914C89.7728 21.914 89.5258 21.823 89.3264 21.641C89.1271 21.4503 89.0274 21.2163 89.0274 20.939C89.0274 20.6617 89.1271 20.432 89.3264 20.25C89.5258 20.0593 89.7728 19.964 90.0674 19.964C90.3621 19.964 90.6091 20.055 90.8084 20.237C91.0078 20.4103 91.1074 20.6313 91.1074 20.9C91.1074 21.186 91.0078 21.4287 90.8084 21.628C90.6178 21.8187 90.3708 21.914 90.0674 21.914ZM99.2062 23.058L96.2292 30H94.5522L91.5752 23.058H93.2652L95.4232 28.206L97.6462 23.058H99.2062ZM106.257 26.568C106.257 26.6807 106.249 26.841 106.231 27.049H100.784C100.88 27.5603 101.127 27.9677 101.525 28.271C101.933 28.5657 102.435 28.713 103.033 28.713C103.796 28.713 104.424 28.4617 104.918 27.959L105.789 28.96C105.477 29.3327 105.083 29.6143 104.606 29.805C104.13 29.9957 103.592 30.091 102.994 30.091C102.232 30.091 101.56 29.9393 100.979 29.636C100.399 29.3327 99.9481 28.9123 99.6274 28.375C99.3154 27.829 99.1594 27.2137 99.1594 26.529C99.1594 25.853 99.3111 25.2463 99.6144 24.709C99.9264 24.163 100.355 23.7383 100.901 23.435C101.447 23.1317 102.063 22.98 102.747 22.98C103.423 22.98 104.026 23.1317 104.554 23.435C105.092 23.7297 105.508 24.15 105.802 24.696C106.106 25.2333 106.257 25.8573 106.257 26.568ZM102.747 24.28C102.227 24.28 101.785 24.436 101.421 24.748C101.066 25.0513 100.849 25.4587 100.771 25.97H104.71C104.641 25.4673 104.429 25.06 104.073 24.748C103.718 24.436 103.276 24.28 102.747 24.28Z" fill="white"/>
</g>
<defs>
<clipPath id="clip0_667_119658">
<path d="M0 20C0 10.5719 0 5.85786 2.92893 2.92893C5.85786 0 10.5719 0 20 0H142.5C151.928 0 156.642 0 159.571 2.92893C162.5 5.85786 162.5 10.5719 162.5 20V30C162.5 39.4281 162.5 44.1421 159.571 47.0711C156.642 50 151.928 50 142.5 50H20C10.5719 50 5.85786 50 2.92893 47.0711C0 44.1421 0 39.4281 0 30V20Z" fill="white"/>
</clipPath>
</defs>
</svg>
