<svg width="143" height="12" viewBox="0 0 143 12" fill="none" xmlns="http://www.w3.org/2000/svg">
	<path d="M4.87512 11.14C3.52178 11.14 2.46712 10.762 1.71112 10.006C0.955116 9.24067 0.577116 8.14867 0.577116 6.73V1.2H2.39712V6.66C2.39712 8.58267 3.22778 9.544 4.88912 9.544C6.54112 9.544 7.36712 8.58267 7.36712 6.66V1.2H9.15912V6.73C9.15912 8.14867 8.78112 9.24067 8.02512 10.006C7.27845 10.762 6.22845 11.14 4.87512 11.14ZM11.24 0.611999H12.99V11H11.24V0.611999ZM19.85 10.594C19.6447 10.762 19.3927 10.888 19.094 10.972C18.8047 11.056 18.4967 11.098 18.17 11.098C17.3487 11.098 16.714 10.8833 16.266 10.454C15.818 10.0247 15.594 9.39933 15.594 8.578V4.98H14.362V3.58H15.594V1.872H17.344V3.58H19.346V4.98H17.344V8.536C17.344 8.9 17.4327 9.18 17.61 9.376C17.7873 9.56267 18.044 9.656 18.38 9.656C18.772 9.656 19.0987 9.55333 19.36 9.348L19.85 10.594ZM22.6556 4.616C23.1596 3.832 24.0463 3.44 25.3156 3.44V5.106C25.1663 5.078 25.0309 5.064 24.9096 5.064C24.2283 5.064 23.6963 5.26467 23.3136 5.666C22.9309 6.058 22.7396 6.62733 22.7396 7.374V11H20.9896V3.524H22.6556V4.616ZM29.3151 3.44C30.4165 3.44 31.2565 3.706 31.8351 4.238C32.4231 4.76067 32.7171 5.554 32.7171 6.618V11H31.0651V10.09C30.8505 10.4167 30.5425 10.6687 30.1411 10.846C29.7491 11.014 29.2731 11.098 28.7131 11.098C28.1531 11.098 27.6631 11.0047 27.2431 10.818C26.8231 10.622 26.4965 10.356 26.2631 10.02C26.0391 9.67467 25.9271 9.28733 25.9271 8.858C25.9271 8.186 26.1745 7.64933 26.6691 7.248C27.1731 6.83733 27.9618 6.632 29.0351 6.632H30.9671V6.52C30.9671 5.99733 30.8085 5.596 30.4911 5.316C30.1831 5.036 29.7211 4.896 29.1051 4.896C28.6851 4.896 28.2698 4.96133 27.8591 5.092C27.4578 5.22267 27.1171 5.40467 26.8371 5.638L26.1511 4.364C26.5431 4.06533 27.0145 3.83667 27.5651 3.678C28.1158 3.51933 28.6991 3.44 29.3151 3.44ZM29.0771 9.824C29.5158 9.824 29.9031 9.726 30.2391 9.53C30.5845 9.32467 30.8271 9.03533 30.9671 8.662V7.794H29.1611C28.1531 7.794 27.6491 8.12533 27.6491 8.788C27.6491 9.10533 27.7751 9.35733 28.0271 9.544C28.2791 9.73067 28.6291 9.824 29.0771 9.824ZM38.905 3.44C39.8477 3.44 40.6037 3.71533 41.173 4.266C41.7424 4.81667 42.027 5.63333 42.027 6.716V11H40.277V6.94C40.277 6.28667 40.123 5.79667 39.815 5.47C39.507 5.134 39.0684 4.966 38.499 4.966C37.855 4.966 37.3464 5.162 36.973 5.554C36.5997 5.93667 36.413 6.492 36.413 7.22V11H34.663V3.524H36.329V4.49C36.6184 4.14467 36.9824 3.88333 37.421 3.706C37.8597 3.52867 38.3544 3.44 38.905 3.44ZM51.0434 7.304C51.0434 7.42533 51.034 7.598 51.0154 7.822H45.1494C45.252 8.37267 45.518 8.81133 45.9474 9.138C46.386 9.45533 46.9274 9.614 47.5714 9.614C48.3927 9.614 49.0694 9.34333 49.6014 8.802L50.5394 9.88C50.2034 10.2813 49.7787 10.5847 49.2654 10.79C48.752 10.9953 48.1734 11.098 47.5294 11.098C46.708 11.098 45.9847 10.9347 45.3594 10.608C44.734 10.2813 44.2487 9.82867 43.9034 9.25C43.5674 8.662 43.3994 7.99933 43.3994 7.262C43.3994 6.534 43.5627 5.88067 43.8894 5.302C44.2254 4.714 44.6874 4.25667 45.2754 3.93C45.8634 3.60333 46.526 3.44 47.2634 3.44C47.9914 3.44 48.64 3.60333 49.2094 3.93C49.788 4.24733 50.236 4.7 50.5534 5.288C50.88 5.86667 51.0434 6.53867 51.0434 7.304ZM47.2634 4.84C46.7034 4.84 46.2274 5.008 45.8354 5.344C45.4527 5.67067 45.2194 6.10933 45.1354 6.66H49.3774C49.3027 6.11867 49.074 5.68 48.6914 5.344C48.3087 5.008 47.8327 4.84 47.2634 4.84ZM56.9184 10.594C56.713 10.762 56.461 10.888 56.1624 10.972C55.873 11.056 55.565 11.098 55.2384 11.098C54.417 11.098 53.7824 10.8833 53.3344 10.454C52.8864 10.0247 52.6624 9.39933 52.6624 8.578V4.98H51.4304V3.58H52.6624V1.872H54.4124V3.58H56.4144V4.98H54.4124V8.536C54.4124 8.9 54.501 9.18 54.6784 9.376C54.8557 9.56267 55.1124 9.656 55.4484 9.656C55.8404 9.656 56.167 9.55333 56.4284 9.348L56.9184 10.594ZM66.0091 11.14C64.6558 11.14 63.6011 10.762 62.8451 10.006C62.0891 9.24067 61.7111 8.14867 61.7111 6.73V1.2H63.5311V6.66C63.5311 8.58267 64.3618 9.544 66.0231 9.544C67.6751 9.544 68.5011 8.58267 68.5011 6.66V1.2H70.2931V6.73C70.2931 8.14867 69.9151 9.24067 69.1591 10.006C68.4124 10.762 67.3624 11.14 66.0091 11.14ZM74.684 11.098C74.0773 11.098 73.4846 11.0187 72.906 10.86C72.3273 10.7013 71.8653 10.5007 71.52 10.258L72.192 8.928C72.528 9.152 72.9293 9.334 73.396 9.474C73.872 9.60467 74.3386 9.67 74.796 9.67C75.8413 9.67 76.364 9.39467 76.364 8.844C76.364 8.58267 76.2286 8.40067 75.958 8.298C75.6966 8.19533 75.272 8.09733 74.684 8.004C74.068 7.91067 73.564 7.80333 73.172 7.682C72.7893 7.56067 72.4533 7.35067 72.164 7.052C71.884 6.744 71.744 6.31933 71.744 5.778C71.744 5.06867 72.038 4.504 72.626 4.084C73.2233 3.65467 74.026 3.44 75.034 3.44C75.5473 3.44 76.0606 3.50067 76.574 3.622C77.0873 3.734 77.5073 3.888 77.834 4.084L77.162 5.414C76.5273 5.04067 75.8133 4.854 75.02 4.854C74.5066 4.854 74.1146 4.93333 73.844 5.092C73.5826 5.24133 73.452 5.442 73.452 5.694C73.452 5.974 73.592 6.17467 73.872 6.296C74.1613 6.408 74.6046 6.51533 75.202 6.618C75.7993 6.71133 76.2893 6.81867 76.672 6.94C77.0546 7.06133 77.3813 7.26667 77.652 7.556C77.932 7.84533 78.072 8.256 78.072 8.788C78.072 9.488 77.7686 10.048 77.162 10.468C76.5553 10.888 75.7293 11.098 74.684 11.098ZM86.3071 7.304C86.3071 7.42533 86.2977 7.598 86.2791 7.822H80.4131C80.5157 8.37267 80.7817 8.81133 81.2111 9.138C81.6497 9.45533 82.1911 9.614 82.8351 9.614C83.6564 9.614 84.3331 9.34333 84.8651 8.802L85.8031 9.88C85.4671 10.2813 85.0424 10.5847 84.5291 10.79C84.0157 10.9953 83.4371 11.098 82.7931 11.098C81.9717 11.098 81.2484 10.9347 80.6231 10.608C79.9977 10.2813 79.5124 9.82867 79.1671 9.25C78.8311 8.662 78.6631 7.99933 78.6631 7.262C78.6631 6.534 78.8264 5.88067 79.1531 5.302C79.4891 4.714 79.9511 4.25667 80.5391 3.93C81.1271 3.60333 81.7897 3.44 82.5271 3.44C83.2551 3.44 83.9037 3.60333 84.4731 3.93C85.0517 4.24733 85.4997 4.7 85.8171 5.288C86.1437 5.86667 86.3071 6.53867 86.3071 7.304ZM82.5271 4.84C81.9671 4.84 81.4911 5.008 81.0991 5.344C80.7164 5.67067 80.4831 6.10933 80.3991 6.66H84.6411C84.5664 6.11867 84.3377 5.68 83.9551 5.344C83.5724 5.008 83.0964 4.84 82.5271 4.84ZM89.354 4.616C89.858 3.832 90.7447 3.44 92.014 3.44V5.106C91.8647 5.078 91.7294 5.064 91.608 5.064C90.9267 5.064 90.3947 5.26467 90.012 5.666C89.6294 6.058 89.438 6.62733 89.438 7.374V11H87.688V3.524H89.354V4.616ZM101.54 11.14C100.551 11.14 99.6548 10.9253 98.8521 10.496C98.0588 10.0573 97.4334 9.45533 96.9761 8.69C96.5281 7.92467 96.3041 7.06133 96.3041 6.1C96.3041 5.13867 96.5328 4.27533 96.9901 3.51C97.4474 2.74467 98.0728 2.14733 98.8661 1.718C99.6688 1.27933 100.565 1.06 101.554 1.06C102.357 1.06 103.089 1.2 103.752 1.48C104.415 1.76 104.975 2.166 105.432 2.698L104.256 3.804C103.547 3.03867 102.674 2.656 101.638 2.656C100.966 2.656 100.364 2.80533 99.8321 3.104C99.3001 3.39333 98.8848 3.79933 98.5861 4.322C98.2874 4.84467 98.1381 5.43733 98.1381 6.1C98.1381 6.76267 98.2874 7.35533 98.5861 7.878C98.8848 8.40067 99.3001 8.81133 99.8321 9.11C100.364 9.39933 100.966 9.544 101.638 9.544C102.674 9.544 103.547 9.15667 104.256 8.382L105.432 9.502C104.975 10.034 104.41 10.44 103.738 10.72C103.075 11 102.343 11.14 101.54 11.14ZM113.463 7.304C113.463 7.42533 113.453 7.598 113.435 7.822H107.569C107.671 8.37267 107.937 8.81133 108.367 9.138C108.805 9.45533 109.347 9.614 109.991 9.614C110.812 9.614 111.489 9.34333 112.021 8.802L112.959 9.88C112.623 10.2813 112.198 10.5847 111.685 10.79C111.171 10.9953 110.593 11.098 109.949 11.098C109.127 11.098 108.404 10.9347 107.779 10.608C107.153 10.2813 106.668 9.82867 106.323 9.25C105.987 8.662 105.819 7.99933 105.819 7.262C105.819 6.534 105.982 5.88067 106.309 5.302C106.645 4.714 107.107 4.25667 107.695 3.93C108.283 3.60333 108.945 3.44 109.683 3.44C110.411 3.44 111.059 3.60333 111.629 3.93C112.207 4.24733 112.655 4.7 112.973 5.288C113.299 5.86667 113.463 6.53867 113.463 7.304ZM109.683 4.84C109.123 4.84 108.647 5.008 108.255 5.344C107.872 5.67067 107.639 6.10933 107.555 6.66H111.797C111.722 6.11867 111.493 5.68 111.111 5.344C110.728 5.008 110.252 4.84 109.683 4.84ZM119.086 3.44C120.028 3.44 120.784 3.71533 121.354 4.266C121.923 4.81667 122.208 5.63333 122.208 6.716V11H120.458V6.94C120.458 6.28667 120.304 5.79667 119.996 5.47C119.688 5.134 119.249 4.966 118.68 4.966C118.036 4.966 117.527 5.162 117.154 5.554C116.78 5.93667 116.594 6.492 116.594 7.22V11H114.844V3.524H116.51V4.49C116.799 4.14467 117.163 3.88333 117.602 3.706C118.04 3.52867 118.535 3.44 119.086 3.44ZM128.621 10.594C128.416 10.762 128.164 10.888 127.865 10.972C127.576 11.056 127.268 11.098 126.941 11.098C126.12 11.098 125.485 10.8833 125.037 10.454C124.589 10.0247 124.365 9.39933 124.365 8.578V4.98H123.133V3.58H124.365V1.872H126.115V3.58H128.117V4.98H126.115V8.536C126.115 8.9 126.204 9.18 126.381 9.376C126.559 9.56267 126.815 9.656 127.151 9.656C127.543 9.656 127.87 9.55333 128.131 9.348L128.621 10.594ZM136.543 7.304C136.543 7.42533 136.534 7.598 136.515 7.822H130.649C130.752 8.37267 131.018 8.81133 131.447 9.138C131.886 9.45533 132.427 9.614 133.071 9.614C133.892 9.614 134.569 9.34333 135.101 8.802L136.039 9.88C135.703 10.2813 135.278 10.5847 134.765 10.79C134.252 10.9953 133.673 11.098 133.029 11.098C132.208 11.098 131.484 10.9347 130.859 10.608C130.234 10.2813 129.748 9.82867 129.403 9.25C129.067 8.662 128.899 7.99933 128.899 7.262C128.899 6.534 129.062 5.88067 129.389 5.302C129.725 4.714 130.187 4.25667 130.775 3.93C131.363 3.60333 132.026 3.44 132.763 3.44C133.491 3.44 134.14 3.60333 134.709 3.93C135.288 4.24733 135.736 4.7 136.053 5.288C136.38 5.86667 136.543 6.53867 136.543 7.304ZM132.763 4.84C132.203 4.84 131.727 5.008 131.335 5.344C130.952 5.67067 130.719 6.10933 130.635 6.66H134.877C134.802 6.11867 134.574 5.68 134.191 5.344C133.808 5.008 133.332 4.84 132.763 4.84ZM139.59 4.616C140.094 3.832 140.981 3.44 142.25 3.44V5.106C142.101 5.078 141.965 5.064 141.844 5.064C141.163 5.064 140.631 5.26467 140.248 5.666C139.865 6.058 139.674 6.62733 139.674 7.374V11H137.924V3.524H139.59V4.616Z" fill="white"/>
</svg>
